<?xml version="1.0" encoding="UTF-8"?><svg id="Home" xmlns="http://www.w3.org/2000/svg" width="120" height="120" viewBox="0 0 120 120"><circle cx="60" cy="60" r="60" fill="#204278"/><path d="M68.28,84.18h-16.06l-2.53-2.53v-7.89c-8.96-4.12-14.74-13.12-14.74-22.99,0-13.95,11.35-25.3,25.3-25.3s25.3,11.35,25.3,25.3c0,9.88-5.77,18.87-14.74,22.99v7.89l-2.53,2.53ZM52.59,83.29h15.32l2.01-2.01v-8.1l.27-.12c8.79-3.92,14.47-12.68,14.47-22.3,0-13.46-10.95-24.41-24.41-24.41s-24.41,10.95-24.41,24.41c0,9.62,5.68,18.37,14.47,22.3l.27.12v8.1l2.01,2.01Z" fill="#f3f4f5"/><path d="M60.14,59.18c-.07,0-.15,0-.23,0-1.66-.08-2.99-1.14-3.46-2.76-.48-1.66.12-3.36,1.52-4.34l1.5-1.05-11.94-8.33.51-.73,12.21,8.52,12.21-8.52.51.73-11.94,8.33,1.5,1.05c1.4.98,1.99,2.68,1.52,4.34-.47,1.62-1.79,2.68-3.45,2.76-.12,0-.24,0-.35,0-.03,0-.06,0-.1,0ZM60.25,51.58l-1.77,1.24c-1.08.75-1.54,2.07-1.17,3.36.28.97,1.12,2.04,2.64,2.11.1,0,.19,0,.29,0,.12,0,.22,0,.31,0,1.51-.07,2.35-1.14,2.64-2.11.37-1.28-.09-2.6-1.17-3.36l-1.77-1.24Z" fill="#f3f4f5"/><path d="M70.85,93.66h-21.21v-7.57h21.21v7.57ZM50.53,92.76h19.42v-5.78h-19.42v5.78Z" fill="#f3f4f5"/></svg>