<?xml version="1.0" encoding="UTF-8"?><svg id="Home" xmlns="http://www.w3.org/2000/svg" width="120" height="120" viewBox="0 0 120 120"><circle cx="60" cy="60" r="60" fill="#205b66"/><polygon points="69.95 88.17 33.01 88.17 33.01 51.23 39.03 45.21 75.97 45.21 75.97 53.8 75.23 53.8 75.23 45.95 39.34 45.95 33.75 51.54 33.75 87.43 69.65 87.43 75.23 81.84 75.23 64.15 75.97 64.15 75.97 82.15 69.95 88.17" fill="#f3f4f5"/><path d="M52.44,79.58l-16.95-16.95,5.69-5.69,14.57,14.57h1.64s40.54-40.55,40.54-40.55l5.69,5.69-42.87,42.87-8.31.06ZM36.54,62.63l16.21,16.21,7.7-.05,42.14-42.14-4.65-4.65-40.23,40.23-2.25.02-14.26-14.26-4.65,4.65Z" fill="#f3f4f5"/></svg>