<?xml version="1.0" encoding="UTF-8"?><svg id="Home" xmlns="http://www.w3.org/2000/svg" width="120" height="120" viewBox="0 0 120 120"><circle cx="60" cy="60" r="60" fill="#62ba97"/><path d="M50.92,95.69h-9.54v-4.9c-1.8-.45-3.52-1.15-5.11-2.08l-3.58,3.58-6.75-6.75,3.51-3.51c-1.04-1.69-1.8-3.52-2.29-5.44h-4.9v-9.54h4.9c.44-1.74,1.1-3.4,1.99-4.95l-3.49-3.49,6.75-6.75,3.36,3.36c1.73-1.09,3.61-1.89,5.6-2.38v-4.9h3.72v.93h-2.79v4.7l-.36.08c-2.13.49-4.14,1.35-5.98,2.55l-.32.21-3.23-3.23-5.43,5.43,3.34,3.34-.19.31c-.99,1.66-1.72,3.46-2.16,5.36l-.08.36h-4.7v7.68h4.7l.08.36c.48,2.07,1.3,4.03,2.45,5.83l.2.32-3.38,3.38,5.43,5.43,3.44-3.44.31.19c1.7,1.04,3.56,1.8,5.51,2.25l.36.08v4.7h7.68v-4.7l.36-.08c2.07-.48,4.03-1.3,5.83-2.45l.32-.2,3.2,3.2,5.43-5.43-3.26-3.26.19-.31c1.04-1.7,1.8-3.55,2.25-5.51l.08-.36h1.99v.93h-1.25c-.45,1.8-1.15,3.52-2.08,5.11l3.4,3.4-6.75,6.75-3.34-3.34c-1.69,1.04-3.52,1.81-5.44,2.29v4.9ZM46.15,79.39c-4.18,0-7.58-3.4-7.58-7.58s3.4-7.58,7.58-7.58c1.38,0,2.73.38,3.91,1.08l-.48.8c-1.03-.62-2.22-.95-3.43-.95-3.66,0-6.65,2.98-6.65,6.65s2.98,6.65,6.65,6.65,6.64-2.98,6.64-6.65c0-.59-.08-1.18-.23-1.75l.9-.24c.18.64.26,1.31.26,1.99,0,4.18-3.4,7.58-7.58,7.58Z" fill="#f3f4f5"/><path d="M46.15,81.91c-5.56,0-10.09-4.53-10.09-10.09s4.53-10.09,10.09-10.09c2.02,0,3.97.6,5.64,1.72l-.52.77c-1.51-1.02-3.29-1.56-5.12-1.56-5.05,0-9.16,4.11-9.16,9.16s4.11,9.16,9.16,9.16c4.78,0,8.8-3.73,9.13-8.5l.93.07c-.37,5.25-4.79,9.36-10.06,9.36Z" fill="#f3f4f5"/><path d="M76.44,77.39h-10.52v-5.44c-2.03-.5-3.96-1.29-5.76-2.35l-3.98,3.98-7.44-7.44,3.91-3.91c-1.17-1.9-2.04-3.96-2.57-6.12h-5.44v-10.52h5.44c.49-1.96,1.24-3.83,2.25-5.58l-3.87-3.87,7.44-7.44,3.73,3.73c1.95-1.23,4.06-2.13,6.29-2.68v-5.44h10.52v5.44c2.16.54,4.22,1.4,6.12,2.57l3.71-3.71,7.44,7.44-3.78,3.78c1.06,1.79,1.84,3.73,2.35,5.76h5.44v10.52h-5.44c-.5,2.03-1.29,3.96-2.35,5.76l3.78,3.78-7.44,7.44-3.71-3.71c-1.9,1.17-3.96,2.04-6.12,2.57v5.44ZM66.85,76.46h8.66v-5.25l.36-.08c2.31-.53,4.5-1.45,6.51-2.74l.32-.2,3.58,3.58,6.12-6.12-3.64-3.64.19-.31c1.16-1.9,2.01-3.97,2.51-6.16l.08-.36h5.25v-8.66h-5.25l-.08-.36c-.5-2.18-1.35-4.26-2.51-6.16l-.19-.31,3.64-3.64-6.12-6.12-3.58,3.58-.32-.2c-2-1.28-4.19-2.2-6.51-2.74l-.36-.08v-5.25h-8.66v5.25l-.36.08c-2.38.55-4.63,1.5-6.67,2.84l-.32.21-3.61-3.61-6.12,6.12,3.73,3.73-.19.31c-1.11,1.85-1.92,3.87-2.41,5.98l-.08.36h-5.25v8.66h5.25l.08.36c.53,2.31,1.45,4.5,2.74,6.51l.2.32-3.78,3.78,6.12,6.12,3.83-3.83.31.19c1.9,1.16,3.97,2.01,6.16,2.51l.36.08v5.25ZM71.18,59.24c-4.62,0-8.39-3.76-8.39-8.39s3.76-8.39,8.39-8.39,8.39,3.76,8.39,8.39-3.76,8.39-8.39,8.39ZM71.18,43.4c-4.11,0-7.45,3.34-7.45,7.46s3.34,7.45,7.45,7.45,7.46-3.34,7.46-7.45-3.34-7.46-7.46-7.46Z" fill="#f3f4f5"/><path d="M71.18,62.87c-6.47,0-11.74-5.27-11.74-11.74s5.27-11.74,11.74-11.74,11.74,5.27,11.74,11.74-5.27,11.74-11.74,11.74ZM71.18,40.33c-5.96,0-10.81,4.85-10.81,10.81s4.85,10.81,10.81,10.81,10.81-4.85,10.81-10.81-4.85-10.81-10.81-10.81Z" fill="#f3f4f5"/></svg>