<?xml version="1.0" encoding="UTF-8"?><svg id="Corporate" xmlns="http://www.w3.org/2000/svg" width="75.32" height="103.25" viewBox="0 0 75.32 103.25"><path d="M19.28,42.16c.79,2.82,2.67,5.29,5.44,6.07,3.23.91,6.78-.77,8.88-3.38,2.1-2.62,2.98-6,3.43-9.33,1.72-12.65-2.33-25.97-10.81-35.51,1.47,1.66,3.65,2.91,5.42,4.21,18.12,13.36,38.14,27.41,42.82,51.11,1.72,8.73.92,17.91-3.22,25.84-5.8,13.01-18.85,22.09-34.02,22.09C16.67,103.25,0,86.58,0,66.02c0-5.28,1.1-10.3,3.08-14.85,4.53-11.29,13.3-21.26,22.87-28.59-2.67,4.74-7.06,10.07-7.06,15.81-.09,1.25.05,2.54.39,3.77Z" fill="#e74922"/></svg>