<?xml version="1.0" encoding="UTF-8"?><svg id="Headhunting" xmlns="http://www.w3.org/2000/svg" width="247.28" height="101.76" viewBox="0 0 247.28 101.76"><path d="M129.62,50.48c-5.88,0-11.76.02-17.64-.02-.78,0-1.08.26-1.22.99-.66,3.47-1.14,6.96-1.61,10.46-.98,7.24-2.28,14.4-4.94,21.24-1.51,3.88-3.37,7.58-6.33,10.61-4.06,4.14-9,6.64-14.7,7.54-8.96,1.42-17.3-.42-25.02-5.13-1.79-1.09-3.34-2.46-4.43-4.28-.37-.63-.81-.84-1.54-.84-17.02.02-34.04.02-51.06.01-1.14,0-1.28.29-1.02-1.23,2.74-15.54,5.48-31.07,8.21-46.61C10.81,29.1,13.29,14.98,15.75.85,15.87.2,16.13,0,16.79,0c3.92.03,7.84.01,11.76.01.84,0,.88.03.73.84-1.24,7.04-2.48,14.08-3.72,21.12-1.67,9.51-3.34,19.01-5.01,28.52-1.38,7.85-2.77,15.69-4.15,23.54-.24,1.39-.48,2.78-.74,4.17-.1.52.04.68.57.68,11.44-.01,22.88-.01,34.31,0,.48,0,.78-.11.84-.64.48-4.24,2.05-8.16,3.62-12.07,1.21-3.02,2.49-6.02,3.3-9.19.4-1.58.71-3.16.39-4.79-.37-1.94-1.51-3.27-3.3-4.07-1.22-.55-2.51-.85-3.84-.91-3.84-.18-7.65.12-11.39,1.05-.84.21-.89.19-1-.66-.35-3.01-.68-6.01-1.04-9.02-.06-.49.1-.7.56-.83,2.5-.66,5.04-1.04,7.61-1.23,2.52-.2,5.05-.23,7.58-.12,3.31.13,6.57.63,9.65,1.97,4.7,2.06,7.27,5.64,7.89,10.71.54,4.42-.39,8.6-1.92,12.7-1.38,3.71-3.07,7.31-4.32,11.07-.89,2.67-1.48,5.41-1.52,8.23-.03,2.15.77,4.04,2.16,5.69,1.63,1.93,3.81,2.81,6.18,3.37,4.37,1.03,8.66,1.04,12.83-.86,2.8-1.28,4.8-3.4,6.41-5.95,2.36-3.73,3.49-7.9,4.18-12.19,1.07-6.63,2.07-13.27,3.12-19.9.11-.68-.19-.76-.75-.76-3.55,0-7.11.08-10.66-.04-2.3-.08-4.6.02-6.89.06-.63,0-.78-.18-.67-.79.57-3.11,1.12-6.23,1.65-9.35.09-.52.41-.58.83-.57,2.21,0,4.42,0,6.63,0,3.67,0,7.34,0,11.01,0,.6,0,.87-.16.99-.81.53-2.98.63-6.02,1.18-9,.87-4.72,2.07-9.33,4.22-13.66,3.62-7.28,9.43-11.9,17.13-14.25,3.97-1.21,8.04-1.74,12.17-1.96,4.18-.22,8.33-.09,12.43.85.85.19.87.21.63,1.03-.9,3.06-1.8,6.12-2.69,9.18-.13.45-.32.62-.82.53-2.99-.51-6-.81-9.04-.72-3.51.1-6.94.61-10.19,2.02-4.26,1.84-7.01,5.11-8.86,9.24-1.86,4.16-2.73,8.58-3.2,13.08-.13,1.22-.3,2.44-.53,3.65-.15.78-.14.8.69.8,6.7,0,13.4,0,20.1,0,4.94,0,9.89,0,14.83.01.66,0,.95-.14,1.03-.88.45-4.07.8-8.15,1.73-12.16,1-4.32,2.37-8.51,4.63-12.36,3.3-5.62,8.09-9.41,14.15-11.66,3.81-1.41,7.76-2.12,11.8-2.46,2.43-.2,4.86-.3,7.3-.24,2.53.06,5.04.38,7.51.94.49.11.78.26.6.87-.94,3.14-1.86,6.29-2.77,9.44-.14.48-.43.49-.84.42-2.97-.51-5.96-.8-8.97-.71-3.41.1-6.75.58-9.94,1.9-3.79,1.57-6.5,4.28-8.39,7.87-1.94,3.68-2.94,7.64-3.56,11.71-.3,2-.52,4.02-.81,6.02-.08.55.02.77.64.76,5.31-.02,10.62-.01,15.93-.01,4.85,0,9.71-.01,14.56.02.72,0,.97-.24,1.11-.92,1.28-6.32,3.87-12.05,8.05-16.98,5.23-6.17,11.9-9.85,19.86-11.22,2.84-.49,5.7-.67,8.57-.53,3.81.2,7.44,1.03,10.58,3.36,3.24,2.4,5.02,5.66,5.57,9.6.9,6.45-1.12,11.98-5.43,16.76-3.65,4.04-8.29,6.39-13.45,7.84-3.96,1.12-8.02,1.66-12.11,1.96-3.5.26-7,.4-10.51.42-.71,0-.8.14-.7.96.71,5.93,4.63,9.95,10.56,10.89,4.18.66,8.26.1,12.31-.9,3.55-.88,6.96-2.17,10.22-3.83.83-.42.85-.41,1.18.42,1.11,2.75,2.2,5.5,3.34,8.23.26.63.13.93-.45,1.23-5.93,3.07-12.18,5.08-18.82,5.83-4.86.55-9.71.46-14.42-.99-8.57-2.64-13.61-8.42-15.06-17.29-.2-1.19-.22-2.4-.36-3.6-.04-.31-.12-.55-.49-.5-1.41.16-2.82,0-4.23-.01-9.05-.03-18.09,0-27.14-.03-.68,0-.89.25-.97.9-1.33,11.06-2.28,22.54-8.19,32.29-6.03,9.94-16.17,14.41-27.36,15.75-1.36.16-2.72.29-4.07.47-.49.07-.71-.02-.74-.57-.15-3.25-.32-6.5-.5-9.75-.04-.67.45-.64.87-.69,1.65-.2,3.31-.33,4.95-.58,3.31-.5,6.61-1.43,9.48-3.2,2.92-1.8,4.74-4.11,6.47-7.05,4.02-6.81,4.98-13.72,6.08-21.37.23-1.58.4-3.16.61-4.74.12-.88.1-.92-.82-.92-5.9,0-11.8,0-17.7,0ZM209.22,38.84c2.28,0,4.55-.12,6.82-.26,3.12-.19,6.21-.6,9.21-1.53,2.96-.92,5.68-2.25,7.65-4.75,1.59-2.01,2.24-4.31,1.97-6.85-.27-2.55-2.33-4.41-5.24-4.75-4.26-.5-8.33.25-12.09,2.28-6.14,3.31-9.55,8.72-11.45,15.24-.13.44-.03.64.46.62.89-.02,1.78,0,2.67,0Z" fill="#f3f4f5"/><path d="M206.75,91.08c-12.19,0-24.37,0-36.56,0-1.04,0-1.04,0-.79-1.02.83-3.45,1.67-6.9,2.47-10.36.15-.64.43-.83,1.07-.83,24.47.01,48.93.01,73.4.01.92,0,.97.06.77.92-.84,3.52-1.69,7.04-2.5,10.57-.15.67-.53.72-1.08.72-12.26,0-24.51,0-36.77,0Z" fill="#f3f4f5"/><path d="M61.53,19.4c0-4.84,3.7-8.48,8.56-8.47,4.87.02,8.4,3.68,8.45,8.65.04,4.42-3.93,8.56-8.78,8.37-4.55-.17-8.24-3.86-8.24-8.56Z" fill="#f3f4f5"/></svg>