<?xml version="1.0" encoding="UTF-8"?><svg id="Contacto" xmlns="http://www.w3.org/2000/svg" width="246.43" height="238.62" viewBox="0 0 246.43 238.62"><path d="M223.28,136.3l-36.4-21.02L122.77,30.25l-22.73,39.36-17.94-.41-9.21,15.95,8.58,16.62,11.38-19.7-32.76,56.75,100.49,22,13.12,7.58-23.13,40.07c-3.71,6.43-1.51,14.65,4.92,18.36,6.43,3.71,14.65,1.51,18.36-4.92l23.13-40.07c12.57,7.26,28.65,2.95,35.91-9.62h0c7.26-12.57,2.95-28.65-9.62-35.91Z" fill="#62ba97" stroke="#62ba97" stroke-miterlimit="10" stroke-width="20"/><rect x="57.13" y="13.28" width="11" height="48.64" transform="translate(-9.35 25.16) rotate(-21.17)" fill="#62ba97" stroke="#62ba97" stroke-miterlimit="10" stroke-width="20"/><rect x="11.97" y="77.72" width="48.64" height="11" transform="translate(-12.35 6.56) rotate(-8.83)" fill="#62ba97" stroke="#62ba97" stroke-miterlimit="10" stroke-width="20"/><rect x="39.08" y="33.8" width="11" height="48.64" transform="translate(-28.04 67.76) rotate(-60.07)" fill="#62ba97" stroke="#62ba97" stroke-miterlimit="10" stroke-width="20"/><line x1="72.68" y1="60.08" x2="55.12" y2="14.72" fill="none" stroke="#e74920" stroke-miterlimit="10" stroke-width="11"/><line x1="61.59" y1="79.29" x2="13.53" y2="86.75" fill="none" stroke="#e74920" stroke-miterlimit="10" stroke-width="11"/><line x1="66.92" y1="70.06" x2="24.77" y2="45.79" fill="none" stroke="#e74920" stroke-miterlimit="10" stroke-width="11"/><path d="M168.77,169.07h2.94c6.51,0,11.8,5.29,11.8,11.8v47.13h-26.53v-47.13c0-6.51,5.29-11.8,11.8-11.8Z" transform="translate(218.41 455.59) rotate(-150)" fill="none" stroke="#143932" stroke-miterlimit="10" stroke-width="2"/><path d="M192.06,127.35h44.36v51.89h-44.36c-12.73,0-23.07-10.34-23.07-23.07v-5.76c0-12.73,10.34-23.07,23.07-23.07Z" transform="translate(301.62 387.41) rotate(-150)" fill="none" stroke="#143932" stroke-miterlimit="10" stroke-width="2"/><polygon points="61.36 137.19 160.54 158.91 186.49 113.97 123.22 30.04 61.36 137.19" fill="none" stroke="#143932" stroke-miterlimit="10" stroke-width="2"/><polygon points="73.99 84.23 82.47 100.63 100.79 68.89 83.08 68.49 73.99 84.23" fill="none" stroke="#143932" stroke-miterlimit="10" stroke-width="2"/><rect x="169.3" y="183.55" width="7.02" height="7.02" transform="translate(228.94 435.47) rotate(-150)" fill="none" stroke="#143932" stroke-miterlimit="10" stroke-width="2"/><rect x="163.69" y="193.27" width="7.02" height="7.02" transform="translate(213.62 450.8) rotate(-150)" fill="none" stroke="#143932" stroke-miterlimit="10" stroke-width="2"/></svg>