<?xml version="1.0" encoding="UTF-8"?><svg id="Contacto" xmlns="http://www.w3.org/2000/svg" width="39.38" height="42.87" viewBox="0 0 39.38 42.87"><path d="M28.97,41.87c-2.73-.08-5.22-.86-7.54-2.26-4.07-2.45-7.5-5.64-10.58-9.23-2.43-2.83-4.69-5.79-6.52-9.05-1.3-2.32-2.4-4.72-2.98-7.34-.55-2.47-.48-4.89.48-7.25C3.4,2.9,6.57.98,10.72,1c.62,0,1.24.03,1.79.41.69.47,1.08,1.15,1.3,1.91.28.96.51,1.93.71,2.9.37,1.8.71,3.61,1.06,5.41.11.57-.05,1.04-.46,1.45-.48.49-1.07.78-1.69,1.04-.57.24-1.15.48-1.7.76-.61.31-.72.6-.61,1.27.21,1.37.88,2.55,1.49,3.75,1.97,3.86,4.79,6.99,8.35,9.45.5.35.97.74,1.5,1.05,1.3.77,1.98.57,2.77-.72.36-.59.77-1.16,1.19-1.72.15-.2.37-.35.56-.51.47-.39.99-.46,1.56-.27,2.81.94,5.55,2.06,8.16,3.46,1.57.84,1.82,1.29,1.61,3.07-.37,3.18-2.89,6.89-6.72,7.8-.86.2-1.75.24-2.63.36Z" fill="none" stroke="#62ba97" stroke-miterlimit="10" stroke-width="2"/></svg>