<?xml version="1.0" encoding="UTF-8"?><svg id="Headhunting" xmlns="http://www.w3.org/2000/svg" width="14.99" height="25.27" viewBox="0 0 14.99 25.27"><path d="M9.08,9.22c.53,0,.97,0,1.4,0,1.24,0,2.47,0,3.71,0,.26,0,.35.07.35.34-.01,1.36,0,2.71,0,4.12h-5.19v11.59h-4.82v-11.34c-.17,0-.3,0-.43,0-1.24,0-2.47,0-3.71,0-.29,0-.39-.06-.39-.37.02-1.26,0-2.52,0-3.77,0-.09,0-.18.02-.3h4.5c0-.17,0-.29,0-.42.06-1.57.1-3.14.21-4.71.04-.57.21-1.15.41-1.69.48-1.33,1.52-2.04,2.86-2.27,1.08-.19,2.18-.28,3.28-.34C12.4,0,13.53.02,14.65,0c.26,0,.35.07.34.34-.01,1.17-.01,2.34,0,3.5,0,.27-.09.33-.35.34-1.1.05-2.2.07-3.29.2-1.43.18-2.03.85-2.16,2.27-.07.83-.08,1.67-.12,2.56Z" fill="#f3f4f5"/></svg>