<?xml version="1.0" encoding="UTF-8"?><svg id="Corporate" xmlns="http://www.w3.org/2000/svg" width="233.99" height="93.24" viewBox="0 0 233.99 93.24"><path d="M81.62,66.13c-1.56-6.64-3.04-12.89-4.51-19.15-3.47-14.84-6.93-29.68-10.41-44.52-.64-2.72-.64-2.73,2.1-2.15,14.03,2.94,23.39,12.62,25.46,26.67.88,5.99.03,11.91-1.76,17.7-2.37,7.66-6.15,14.6-10.88,21.45Z" fill="#d6d6d6"/><path d="M42.69,70.56c5.23,0,10.46.04,15.69-.03,1.29-.02,1.92.16,2.1,1.68.43,3.68,1.09,7.34,1.73,11,.14.82-.03,1.26-.76,1.68-10.76,6.11-22.17,9.45-34.67,8.04-3.37-.38-6.57-1.4-9.58-2.99-.85-.45-1.02-.84-.58-1.76,2.63-5.43,5.2-10.89,7.75-16.36.45-.97,1.03-1.29,2.12-1.28,5.4.07,10.81.03,16.21.03h0Z" fill="#d6d6d6"/><path d="M3.05,74.12C.52,68.28-.38,62.56.14,56.63c1.3-14.63,8.15-26.65,17.93-37.19,5.38-5.8,11.76-10.31,18.9-13.73.35-.17.66-.48,1.28-.31C26.56,28.21,14.9,50.97,3.05,74.12Z" fill="#d6d6d6"/><path d="M90.27,83.15c2.47-4.74,4.82-9.26,7.18-13.76,3.71-7.09,7.46-14.16,11.12-21.28.64-1.24,1.36-1.75,2.79-1.69,2.96.13,5.93.09,8.89.01,1.1-.03,1.48.25,1.5,1.4.19,10.16.45,20.32.68,30.48.03,1.28.05,2.55.12,3.83.04.74-.22,1.02-.99,1.01-2.44-.04-4.88-.06-7.32,0-.93.02-1.03-.38-1.02-1.14.04-1.8-.04-3.6.03-5.4.04-.94-.32-1.18-1.2-1.16-2.44.05-4.88.05-7.32,0-.83-.02-1.22.29-1.57,1-.95,1.92-2.01,3.79-2.96,5.72-.35.72-.78,1.01-1.6.99-2.67-.05-5.34-.02-8.33-.02ZM107.35,68.47c1.83,0,3.43,0,5.02,0,.52,0,.87-.09.86-.76-.02-3.25-.01-6.5-.01-9.75-.11-.02-.23-.04-.34-.06-1.81,3.45-3.61,6.89-5.54,10.56Z" fill="#d6d6d6"/><path d="M134.53,46.46c1.13.11,2.94-.6,3.77.28.75.8-.1,2.52-.23,3.84-.2,2.08-.4,4.16-.76,6.22-.25,1.43.36,1.42,1.38,1.1,1.45-.46,2.94-.65,4.46-.64,4.08.01,6.53,2.68,6.01,6.72-.55,4.37-1.23,8.73-1.86,13.09-.25,1.78-.55,3.55-.75,5.34-.09.82-.44,1.08-1.23,1.04-2.26-.12-4.52-.23-6.79-.25-1.08,0-.89-.66-.82-1.27.62-5.07,1.25-10.13,1.88-15.2.05-.4.15-.8.16-1.21.02-.86.21-1.83-1.06-2.02-1.13-.17-2.01.24-2.31,1.35-.34,1.28-.53,2.61-.7,3.92-.53,4.26-1.06,8.52-1.48,12.79-.12,1.24-.48,1.69-1.78,1.61-2.08-.13-4.18-.05-6.27-.02-.71,0-1.03-.1-.92-.96,1.33-10.3,2.62-20.6,3.93-30.9.12-.98.41-1.96.36-2.93-.08-1.78.78-2.13,2.3-1.92.8.11,1.62.02,2.68.02Z" fill="#d6d6d6"/><path d="M32.03,54.77c6.37-12.93,12.65-25.69,19.17-38.92.76,3.48,1.42,6.46,2.05,9.45,1.95,9.24,3.85,18.49,5.87,27.72.33,1.49.1,1.88-1.45,1.87-8.01-.07-16.03-.03-24.04-.04-.45,0-.9-.04-1.6-.08Z" fill="#d6d6d6"/><path d="M224.17,56.92c5.21-.46,10.34,3.42,8.95,10.82-.31,1.65-.63,3.3-.91,4.96-1.26,7.4-8.73,12.27-15.98,10.4-4.28-1.1-6.74-5.25-5.94-10.05.32-1.94.66-3.88,1.05-5.81,1.28-6.39,7.27-10.76,12.84-10.32ZM218.62,73.2c-.05,2.35.49,3.65,1.61,3.8,1.8.24,2.34-1.24,2.86-2.48.93-2.19,1.29-4.55,1.64-6.9.16-1.06.08-2.09-.26-3.08-.5-1.46-1.96-1.81-2.99-.67-.57.63-1.04,1.41-1.33,2.21-.88,2.4-1.35,4.89-1.53,7.11Z" fill="#d6d6d6"/><path d="M164.14,56.92c5.29-.53,10.4,3.49,9.07,10.72-.33,1.77-.64,3.54-.98,5.3-1.39,7.3-8.89,12.03-16.03,10.15-4.19-1.11-6.67-5.29-5.88-9.94.33-1.94.67-3.88,1.06-5.81,1.25-6.22,6.4-10.41,12.76-10.41ZM158.63,73.65c.11,1.31-.02,3.02,1.69,3.34,1.68.32,2.32-1.24,2.84-2.52.78-1.94,1.17-3.98,1.49-6.04.2-1.28.31-2.53-.1-3.77-.54-1.63-1.77-1.9-3.04-.72-.66.61-1.05,1.39-1.34,2.19-.87,2.4-1.31,4.91-1.54,7.52Z" fill="#d6d6d6"/><path d="M177.98,83.15c-1.13-.22-3.07.7-3.8-.39-.58-.87.21-2.66.38-4.04.84-6.68,1.7-13.35,2.47-20.04.13-1.1.42-1.49,1.54-1.45,2.03.09,4.23-.45,6.06.15,2.42.8,4.57-.11,6.84-.12.95,0,1.21.2,1.05,1.16-.35,2.12-.61,4.25-.84,6.38-.1.94-.5,1.28-1.45,1.21-1.6-.11-3.1.21-4.39,1.29-1.28,1.08-1.48,2.58-1.66,4.08-.42,3.34-.85,6.68-1.14,10.03-.12,1.4-.59,1.94-2.01,1.75-.91-.12-1.86-.02-3.05-.02Z" fill="#d6d6d6"/><path d="M196.32,83.09c-1.33,0-3,.49-3.9-.13-.99-.68-.05-2.36.09-3.56.81-6.97,1.78-13.92,2.6-20.88.13-1.1.5-1.3,1.49-1.26,1.97.08,4.1-.45,5.88.14,2.49.81,4.73-.07,7.07-.13.86-.02,1.16.17,1.02,1.05-.35,2.23-.71,4.47-.95,6.71-.09.86-.42.98-1.19,1.01-4.54.16-5.77,1.38-6.27,5.88-.37,3.34-.88,6.67-1.21,10.02-.11,1.1-.53,1.33-1.51,1.25-1.04-.08-2.09-.02-3.13-.02,0-.02,0-.04,0-.06Z" fill="#d6d6d6"/><path d="M137.34,28.98c0-1.91-.03-3.83.02-5.74.01-.6-.37-1.53.24-1.74.95-.32,2.23-.52,3,.09.55.44.54.44,1.03.06,1.42-1.12,2.63-1.09,3.82.23.63.7.83.41,1.25-.09.87-1.06,2.04-1.07,3.18-.65,1.18.44,1.84,1.35,1.83,2.68,0,3.89-.06,7.77.02,11.66.03,1.72-1.15,1.04-1.91,1.1-.78.06-1.75.39-1.7-1.14.1-3.07.04-6.15.02-9.22,0-.65.23-1.59-.8-1.62-1.12-.02-.96.96-.96,1.68-.02,2.9-.11,5.81.03,8.7.08,1.55-.59,1.69-1.82,1.65-1.11-.04-2,.09-1.9-1.58.16-2.78.06-5.57.05-8.35,0-.51-.1-1.03-.18-1.54-.05-.31-.25-.52-.58-.56-.39-.04-.66.12-.81.49-.25.6-.27,1.24-.27,1.88,0,2.73-.13,5.46.05,8.18.12,1.8-.96,1.38-1.95,1.47-1.19.11-1.8-.1-1.7-1.54.14-2.02.04-4.06.04-6.09Z" fill="#d6d6d6"/><path d="M213.42,22.04c0-1.65.09-3.1-.02-4.54-.15-1.91,1.21-1.21,2.09-1.31.98-.12,1.73-.13,1.7,1.34-.09,5.86-.03,11.72-.05,17.59,0,.55.36,1.52-.68,1.43-1-.09-2.44.88-2.94-1.01-.76,1.12-1.7,1.88-3.08,1.53-1.49-.38-2.11-1.58-2.31-2.97-.48-3.34-.54-6.71,0-10.05.52-3.24,2.44-3.99,5.29-2.01ZM213.35,29c0-1.1.04-2.21-.02-3.3-.03-.51-.16-1.12-.86-1.09-.64.03-.81.57-.86,1.12-.24,2.2-.25,4.4,0,6.6.06.5.23.96.78,1,.68.06.91-.51.93-1.02.06-1.1.02-2.2.02-3.3Z" fill="#d6d6d6"/><path d="M108.22,26.39c0-2.96.04-5.92-.02-8.88-.02-1.05.27-1.41,1.37-1.37,2.2.09,4.41.09,6.61,0,1.07-.04,1.37.26,1.35,1.35-.05,2.84.01,2.83-2.83,2.83-1.23,0-2.67-.51-2.5,1.8.11,1.46.48,1.97,1.88,1.72.11-.02.23,0,.35,0,2.65,0,3.33.9,2.68,3.49-.1.39-.26.63-.67.65-.23.01-.46,0-.7.01q-3.46.11-3.46,3.54c0,.81,0,1.62,0,2.44,0,2.62-.77,3.19-3.37,2.63-.91-.2-.66-.81-.67-1.34-.02-2.96,0-5.92,0-8.88h0Z" fill="#d6d6d6"/><path d="M128.36,30.18c0,1.39,0,2.79,0,4.18,0,2.18-.98,2.98-3,2.13-.79-.33-1.12-.24-1.75.15-1.59.99-3.44.46-4.36-1.11-1.49-2.56-.24-6.48,2.46-7.69.58-.26,1.18-.5,1.76-.75.55-.24,1.03-.6,1.21-1.18.25-.8.13-1.54-.74-1.88-.97-.39-1.17.35-1.38,1.05-.32,1.05-1.8,1.61-3.17,1.14-1.09-.38-.52-1.3-.41-1.92.45-2.53,2.31-3.66,5.38-3.38,2.86.25,3.93,1.38,3.98,4.21.01.87,0,1.74,0,2.61,0,.81,0,1.63,0,2.44ZM124.78,29.2c-.89.66-1.55,1.04-2.05,1.57-.66.71-.53,1.63-.19,2.43.21.49.72.78,1.31.54.85-.35.91-1.12.93-1.89.02-.75,0-1.5,0-2.65Z" fill="#d6d6d6"/><path d="M162.76,30.54c0,1.28,0,2.55,0,3.83,0,2.05-1.42,3.08-3.19,2.08-.62-.35-.79-.39-1.32-.05-2.38,1.51-4.78.5-5.12-2.28-.36-2.87,0-5.34,3.47-6.52.7-.24,1.42-.49,1.98-1.05.56-.57.61-1.25.35-1.93-.17-.45-.62-.77-1.09-.71-.78.1-.82.77-.98,1.42-.47,1.89-2,.69-3.02.84-1.04.16-.64-.85-.57-1.41.31-2.64,1.77-3.86,4.61-3.91,3.15-.06,4.49.9,4.76,3.77.19,1.95.04,3.94.04,5.91.03,0,.06,0,.1,0ZM159.2,29.4c-1.58.54-2.46,1.35-2.6,2.77-.07.74.2,1.44,1.01,1.6.88.18,1.27-.45,1.36-1.2.12-.97.14-1.95.23-3.17Z" fill="#d6d6d6"/><path d="M218.69,29.1c.08-1.51.05-3.08.26-4.63.33-2.41,2.2-3.71,4.93-3.6,2.67.1,4.22,1.47,4.46,3.93.01.12.01.23.02.35.25,4.56.25,4.54-4.3,4.61-.55,0-1.51-.4-1.59.46-.1,1.15-.59,2.56.55,3.42.91.69,1.3-.15,1.48-.96.11-.48-.2-1.26.43-1.36.96-.16,1.96-.06,2.94,0,.11,0,.26.35.31.55.52,2.11-1.14,4.66-3.35,5.17-2.88.66-5.5-.78-5.88-3.36-.22-1.48-.17-3-.25-4.57ZM224.75,26.02c-.15-1.17-.12-2.17-1.26-2.11-1.12.06-.97,1.08-1.09,1.86-.16,1.05.55.89,1.19.93.77.04,1.27-.14,1.16-.68Z" fill="#d6d6d6"/><path d="M190.71,30.2c0,1.51.03,3.02-.02,4.53-.02.6.38,1.52-.3,1.74-.95.3-2.28.52-2.98-.09-.57-.49-.62-.37-1.07-.08-2.51,1.64-4.97.59-5.29-2.39-.32-2.85.22-5.19,3.53-6.34.84-.29,1.79-.52,2.28-1.45.31-.59.29-1.13-.05-1.63-.26-.38-.68-.71-1.17-.55-.54.18-.75.67-.83,1.22-.31,2.21-2,.87-2.99,1-1.18.16-.59-1.03-.56-1.57.11-1.95,1.26-3.28,3.19-3.55,4.76-.68,6.37.92,6.25,4.97-.04,1.39,0,2.79,0,4.18ZM187.11,29.42c-1.49.58-2.53,1.3-2.49,2.87.02.7.17,1.43,1.07,1.5.76.06,1.1-.46,1.28-1.13.28-1.02.18-2.04.14-3.24Z" fill="#d6d6d6"/><path d="M199.25,25.96c-.7-.09-1.73.42-1.64-1.02.03-.54-.32-1-.95-1.05-.43-.04-.85.06-1,.51-.2.57-.23,1.23.28,1.61.78.59,1.62,1.11,2.49,1.57,2.01,1.06,2.93,2.69,2.82,4.96-.09,1.81-.64,3.35-2.38,4.11-1.87.83-3.77.71-5.47-.45-1.21-.83-1.35-2.23-1.48-3.57-.05-.49.16-.82.68-.75,1.17.16,2.9-.81,3.04,1.52.03.47.52.74,1.05.71.44-.03.81-.22.93-.66.16-.62.29-1.32-.35-1.75-.86-.58-1.81-1.03-2.69-1.59-2.18-1.4-2.98-3.27-2.51-5.78.4-2.11,1.88-3.33,4.18-3.44,2.32-.11,3.96.93,4.6,2.91.62,1.91.42,2.17-1.6,2.17Z" fill="#d6d6d6"/><path d="M168.13,28.92c0,1.1-.05,2.21.02,3.31.04.67.12,1.56,1.02,1.58.95.03.87-.85,1.02-1.53.17-.75-.41-1.92,1.24-1.91,2.39.03,2.39-.08,2.22,2.4-.21,3.07-1.74,4.42-4.89,4.34-2.71-.07-4.16-1.57-4.21-4.47-.04-2.32-.06-4.65.01-6.97.12-3.81,2.32-5.47,6.01-4.62,2.11.49,3.86,3.54,3.02,5.52-.42.99-1.53.33-2.31.45-.48.08-1.1.13-1.1-.7,0-.41-.04-.81-.1-1.21-.09-.58-.37-.92-1.03-.94-.7-.02-.77.52-.8.91-.12,1.27-.14,2.55-.2,3.82.03,0,.05,0,.08,0Z" fill="#d6d6d6"/><path d="M230.26,26.48c0-3.02.09-6.04-.04-9.05-.06-1.43.73-1.4,1.6-1.24.8.15,2.17-.82,2.15,1.18-.07,5.97-.09,11.95.01,17.92.03,1.75-1.05,1.26-1.92,1.29-.97.04-1.93.23-1.85-1.41.14-2.89.04-5.8.04-8.7h.01Z" fill="#d6d6d6"/><path d="M133.7,22.45c.22-.26.36-.43.51-.59.48-.52,1.02-1.13,1.76-.82.65.28.23,1.03.28,1.57.06.57-.01,1.16.02,1.73.05.88.1,1.55-1.21,1.42-.99-.1-1.27.73-1.25,1.67.04,2.6-.08,5.21.05,7.81.09,1.69-.99,1.34-1.9,1.35-.9.01-1.82.24-1.78-1.31.1-4.17.02-8.34.04-12.5,0-.54-.35-1.52.71-1.38.95.13,2.36-.9,2.77,1.04Z" fill="#d6d6d6"/><path d="M175.76,28.91c0-2.08.04-4.17-.02-6.25-.02-.92.17-1.32,1.22-1.33,2.54-.02,2.54-.08,2.54,2.41,0,3.82-.09,7.64.04,11.45.06,1.64-.87,1.41-1.84,1.4-.99-.01-2.12.35-1.98-1.44.16-2.07.04-4.16.04-6.24Z" fill="#d6d6d6"/><path d="M177.81,16.21c1.82-.54,1.62.68,1.74,1.99.15,1.69-.63,1.71-1.97,1.84-2.07.2-1.73-1.03-1.86-2.3-.18-1.76.84-1.66,2.09-1.53Z" fill="#d6d6d6"/></svg>