<?xml version="1.0" encoding="UTF-8"?><svg id="Corporate" xmlns="http://www.w3.org/2000/svg" width="242.84" height="108.92" viewBox="0 0 242.84 108.92"><path d="M109,54.62c-.15,30.34-24.63,54.46-55.13,54.3C23.98,108.77-.17,84.16,0,54.04.17,24.01,24.81-.21,54.97,0c29.82.21,54.17,24.82,54.02,54.61ZM106.36,54.56c.04-28.57-23.18-51.92-51.71-51.99C25.94,2.5,2.59,25.73,2.57,54.39c-.02,28.62,23.15,51.9,51.71,51.97,28.75.07,52.04-23.1,52.08-51.79Z" fill="#d6d6d6"/><path d="M161,82.78c-5.7,4.08-10.94.18-11.31-5.52-.09-1.47-.07-2.92.22-4.39,1.07-5.47,7.09-7.6,11.01-4.24.51-1.35,1.53-1.76,2.86-1.42,1.46.38,1.09,1.61,1.1,2.6.03,4.41.03,8.82,0,13.23-.04,7.2-5.83,10.92-12.41,7.99-1.08-.48-2.39-1.02-1.7-2.59.67-1.52,1.84-1.06,3.02-.54,4.63,2.02,7.42.09,7.2-5.12ZM161.07,75.92s.07,0,.11,0c-.04-.84,0-1.69-.15-2.5-.33-1.74-1.35-2.94-3.18-3.13-1.9-.21-3.29.65-3.93,2.45-.77,2.18-.77,4.4.2,6.53.77,1.7,2.21,2.23,3.99,2,1.8-.23,2.69-1.38,2.95-3.05.12-.75.02-1.53.02-2.3Z" fill="#d6d6d6"/><path d="M238.92,82.74c-5.97,4.53-11.38-.3-11.34-6.08,0-1.05-.02-2.11.12-3.15.86-6.2,7.21-8.26,11.13-4.87.5-1.35,1.51-1.75,2.83-1.42,1.46.36,1.13,1.58,1.14,2.58.02,4.48.05,8.97,0,13.45-.08,7.03-5.95,10.69-12.43,7.77-1.1-.49-2.38-1.05-1.68-2.61.68-1.51,1.86-1.02,3.04-.51,4.65,2.03,7.52-.05,7.19-5.17ZM239,75.84s0,0,.01,0c0-.7.07-1.4-.01-2.09-.24-1.98-1.54-3.35-3.33-3.48-2.03-.14-3.36.83-3.94,2.74-.63,2.06-.63,4.15.23,6.15.77,1.78,2.27,2.38,4.13,2.1,1.79-.26,2.65-1.45,2.89-3.12.11-.75.02-1.53.02-2.3Z" fill="#d6d6d6"/><path d="M173.41,69.24c.79-.6,1.15-.9,1.54-1.16,3.75-2.46,8.35-.63,9.01,3.79.57,3.81.17,7.69.17,11.54,0,1.28-.94,1.58-2.05,1.54-1.1-.04-1.69-.58-1.69-1.7,0-2.94.02-5.88-.01-8.83-.02-2.43-.91-3.63-2.72-3.82-2.11-.22-3.83,1.01-4.04,3.35-.26,2.85-.18,5.73-.2,8.6,0,1.33-.2,2.39-1.88,2.41-1.66.02-1.94-1-1.94-2.35.01-7,.01-14.01,0-21.01,0-1.35.26-2.35,1.93-2.35,1.71,0,1.9,1.05,1.88,2.37-.03,2.37,0,4.75,0,7.62Z" fill="#d6d6d6"/><path d="M213.37,69.3c2.41-2.27,4.82-2.9,7.47-1.69,2.7,1.23,3.18,3.71,3.2,6.35.02,2.94,0,5.88,0,8.82,0,1.29-.34,2.18-1.87,2.19-1.49,0-1.95-.81-1.94-2.13.01-2.8.02-5.6,0-8.4-.03-2.58-.92-3.73-2.89-3.84-2.19-.12-3.8,1.25-3.95,3.72-.17,2.86-.09,5.74-.08,8.61,0,1.13-.33,1.91-1.6,2.02-1.67.14-2.22-.68-2.2-2.26.05-4.41.02-8.82.01-13.23,0-1.09-.03-2.17,1.46-2.31,1.38-.13,2.4.21,2.39,2.15Z" fill="#d6d6d6"/><path d="M142.65,36.68c0,.35,0,.7,0,1.05,0,4.33-.85,5.31-5.19,5.99-6.68,1.05-11.27-2.21-12.41-8.84-.53-3.11-.27-6.16,1.12-9.03,2.63-5.4,9.74-7.42,14.78-4.22.71.45,1.61.92.99,1.95-.58.96-1.3.35-1.99-.02-6-3.24-11.72-.36-12.77,6.4-.25,1.61-.22,3.21.07,4.81,1.04,5.9,6.45,8.77,11.94,6.37.89-.39,1.37-.92,1.27-1.91-.02-.21,0-.42,0-.63-.03-1.54.49-3.45-.23-4.52-.81-1.21-2.85-.3-4.35-.45-.74-.07-1.48-.08-1.52-1.03-.04-.95.64-1.12,1.43-1.11.56,0,1.12,0,1.69,0q5.18,0,5.18,5.19Z" fill="#d6d6d6"/><path d="M148.24,32.15c0-2.94.01-5.88,0-8.82,0-1.9.86-2.85,2.81-2.83,2.74.03,5.47,0,8.21,0,.8,0,1.69,0,1.66,1.09-.03,1.08-.93,1.05-1.72,1.05-2.32,0-4.63.06-6.94-.02-1.32-.05-1.97.28-1.84,1.74.17,1.94-.78,4.42.36,5.7,1.17,1.32,3.7.28,5.63.44.7.06,1.4,0,2.1.02.7.02,1.27.23,1.27,1.06,0,.83-.57,1.07-1.26,1.08-2.17.02-4.35.07-6.52,0-1.15-.04-1.64.28-1.58,1.52.09,1.89.1,3.78,0,5.67-.07,1.34.49,1.67,1.72,1.63,2.31-.07,4.63-.03,6.94-.01.82,0,1.88-.15,1.83,1.12-.04,1.04-.94,1.05-1.73,1.05-2.74,0-5.47-.02-8.21,0-1.97.02-2.77-.94-2.74-2.86.05-2.87.01-5.74.01-8.61Z" fill="#d6d6d6"/><path d="M189.69,76.22c0-1.05,0-2.1,0-3.15-.02-1.25.44-2.77-1.8-2.61-.83.06-1.04-.8-1.03-1.56,0-.68.23-1.47.95-1.41,2.34.17,1.89-1.41,1.88-2.74,0-1.16-.08-2.32,1.55-2.46,1.62-.13,2.44.59,2.2,2.21-.32,2.18.28,3.3,2.73,2.88,1.12-.19,1.92.29,1.9,1.61-.02,1.32-.85,1.75-1.96,1.58-2.25-.35-2.9.58-2.7,2.73.19,2.01.03,4.06.05,6.09.01,1.71.72,2.53,2.52,1.91,1.04-.36,1.98-.37,2.41.87.46,1.32-.36,1.93-1.42,2.39-3.92,1.7-7.15-.31-7.27-4.54-.04-1.26,0-2.52,0-3.78Z" fill="#d6d6d6"/><path d="M126.09,72.57c0-2.8,0-5.6,0-8.39,0-1.36-.14-2.77,1.88-2.82,2.04-.05,1.95,1.32,1.94,2.71-.01,5.04.05,10.07-.04,15.11-.03,1.57.44,2.11,2.02,2.01,1.88-.12,3.78-.03,5.67-.02,1.15,0,1.88.49,1.91,1.73.03,1.25-.68,1.78-1.84,1.79-2.94.01-5.89.05-8.82-.04-1.88-.06-2.72-1.21-2.72-3.04,0-3.01,0-6.02,0-9.02Z" fill="#d6d6d6"/><path d="M146.04,76.05c0,2.31-.02,4.62,0,6.93.02,1.29-.52,1.96-1.86,1.98-1.33.02-1.92-.63-1.92-1.92,0-4.69,0-9.39,0-14.08,0-1.36.7-1.86,1.98-1.85,1.36.01,1.84.72,1.81,2-.04,2.31-.01,4.62-.01,6.93Z" fill="#d6d6d6"/><path d="M201.06,76.01c0-2.31.04-4.62-.01-6.93-.03-1.32.51-1.96,1.84-1.96,1.28,0,1.96.51,1.95,1.87-.02,4.69-.01,9.39,0,14.08,0,1.33-.69,1.89-1.97,1.89-1.37,0-1.83-.74-1.81-2.01.03-2.31,0-4.62,0-6.93Z" fill="#d6d6d6"/><path d="M205.03,62.36c-.12,1.28-.79,2.03-2.12,2.03-1.25,0-1.97-.75-2.02-1.92-.06-1.28.7-2.15,1.99-2.19,1.29-.04,2.01.76,2.16,2.08Z" fill="#d6d6d6"/><path d="M144.28,64.45c-1.42-.14-2.19-.83-2.16-2.15.03-1.21.79-1.97,1.97-2.01,1.28-.04,2.11.73,2.16,2.03.04,1.34-.82,1.95-1.96,2.13Z" fill="#d6d6d6"/><path d="M101.54,65.09c.45-3.66.86-7.31.13-10.98-.34-1.74-.9-3.39-2-4.81-1.69-2.17-4.29-2.75-6.09-1.37-1.69,1.29-1.96,3.99-.24,6.03,2.61,3.09,4.19,6.53,3.93,10.56-.78,12.03-5.16,22.36-15.08,29.75-9.56,7.13-20.51,9.43-32.23,8.57-3.53-.26-7.04-.72-10.32-2.25,3.21.56,6.39,1.26,9.66,1.34,2.75.07,5.48.04,8.09-.99,1.46-.58,2.81-1.35,3.64-2.73.99-1.66,1.04-3.38-.33-4.85-1.3-1.4-2.93-1.55-4.63-.75-.44.21-.89.46-1.23.8-4.25,4.23-9.5,4.51-14.93,3.57-18.61-3.24-31.31-16.74-33.56-35.49-.55-4.59-.69-9.15.21-13.71.59,2.22.15,4.5.62,6.73.43,2.02.98,3.96,2.38,5.52,1.71,1.91,4.13,2.27,5.83.93,1.65-1.3,2.04-3.72.34-5.63-4.75-5.36-4.56-11.44-3.17-17.83,4.56-20.96,21.3-29.41,36.07-31.22,4.99-.61,9.95-.45,14.88.47.37.07.89-.08,1.07.7-2.4-.3-4.73-.5-7.08-.47-2.34.03-4.62.35-6.74,1.41-1.41.71-2.62,1.65-3.22,3.17-.56,1.41-.48,2.77.54,3.94,1.01,1.16,2.36,1.53,3.82,1.16.73-.18,1.52-.51,2.05-1.01,4.87-4.57,10.65-4.53,16.62-3.24,17.72,3.83,29.35,16.47,31.89,34.48.75,5.31.81,10.61-.02,15.92-.12.8-.18,1.62-.9,2.28ZM45.88,51.28c.34,1.75-.44,2.58-1.79,3.28-4.8,2.48-9.6,4.99-13.68,8.61-2.91,2.59-4.98,5.69-5.68,9.58-.99,5.56,2.74,10.08,8.36,10.2,3.49.07,6.44-1.19,8.99-3.49,2.67-2.41,4.4-5.43,5.63-8.76,1.54-4.2,1.93-8.6,2.12-13.02.05-1.25.43-2.02,1.57-2.66,3.86-2.15,7.58-4.55,11.15-7.16.79-.58,1.28-.81,2.01.17.9,1.2-.21,1.28-.73,1.62-6.75,4.32-9.66,10.51-8.98,18.41.82,9.59,8.97,15.96,18.33,14.37,9.69-1.64,14.92-13.02,9.71-21.13-3.49-5.43-11.32-5.98-15.34-1.09-2.72,3.31-2.27,8.77.93,10.91,1.28.86,2.8,1.46,4.05.22,1.34-1.32.31-2.55-.66-3.64-.14-.16-.28-.32-.4-.49-.82-1.19-1.01-2.49-.38-3.78.68-1.39,1.92-1.99,3.44-2.01,2.1-.04,3.8,1.28,4.68,3.59,1.68,4.38-.16,9.64-4.16,11.89-3.94,2.22-8.84,1.11-11.88-2.67-4.8-5.98-3.5-16.38,2.64-21,1.84-1.39,3.8-2.31,6.24-1.88,1.08.19,2.25.08,3.36-.07,1.27-.17,2.64-.49,2.73-2.1.1-1.75-1.35-2.15-2.65-2.44-1.59-.35-3.23-.32-4.79.18-1.59.51-2.11-.67-2.76-1.64-.76-1.14.39-1.45.95-1.92,2.43-2.03,4.82-4.08,6.68-6.68,1.37-1.92,2.35-3.99,2.41-6.39.06-2.78-1.49-4.79-4.15-5.26-2.99-.52-5.37.78-7.32,2.86-2.9,3.09-4.81,6.9-4.39,11.03.41,4.12-1.42,6.17-4.59,7.8-.25.13-.47.3-.71.45-2.1,1.3-4.21,2.61-6.55,4.06-.03-2.59.27-4.55,1.89-6.21,1.27-1.3,2.3-2.84,2.7-4.68.18-.84.18-1.72-.59-2.32-.83-.65-1.73-.45-2.58-.03-.9.45-1.58,1.16-2.15,1.98-.93,1.34-1.54,2.81-2,4.38-.64,2.2-4.14,4.8-6.38,4.82-1.18.01-2.13-.49-2.44-1.62-.3-1.1.88-1.05,1.46-1.38,3.43-1.96,6.15-4.65,8.24-7.97,1.59-2.53,2.72-5.23,2.66-8.29-.06-2.95-1.79-4.64-4.76-4.73-3-.1-5.25,1.4-7.13,3.49-3.19,3.55-4.94,7.77-5.51,12.49-.08.64.22,1.61-.62,1.82-.91.22-1.55-.51-2.02-1.23-.72-1.11-.89-2.36-.77-3.64.1-1.11.37-2.21.54-3.31.1-.63.16-1.29-.46-1.72-.69-.48-1.37-.24-1.95.19-.44.33-.85.75-1.14,1.21-2.95,4.7-.38,11.27,4.98,12.67.95.25,1.53.59,1.98,1.55,1.69,3.63,4.62,4.94,8.47,3.86,1.07-.3,2.07-.82,3.19-1.27Z" fill="#d6d6d6"/><path d="M8.48,39.86c-.38,1.66-.77,3.32-1.15,4.97-.38-1.85.34-3.44,1.15-4.97Z" fill="#d6d6d6"/><path d="M69.21,8.68c-1.21-.35-2.42-.71-3.64-1.06,1.36-.2,2.57.13,3.64,1.06Z" fill="#d6d6d6"/><path d="M45.24,58.43c-.84,5.86-1.81,11.13-4.95,15.7-1.66,2.42-3.87,4.04-6.93,4.14-2.32.07-3.68-1.21-3.77-3.54-.09-2.2.79-4.11,2.06-5.82,3.41-4.63,8.15-7.54,13.6-10.48Z" fill="#d6d6d6"/><path d="M37.96,42.86c.68-5.04,2.22-9.01,5.15-12.37.76-.87,1.73-1.92,3.04-1.1,1.29.82.79,2.13.35,3.22-1.66,4.12-4.45,7.31-8.54,10.25Z" fill="#d6d6d6"/><path d="M66.58,40.24c.22-4.23,1.26-7.5,3.78-10.18.72-.77,1.64-1.56,2.75-.81,1.15.78.63,1.91.18,2.84-1.48,3.07-3.83,5.43-6.71,8.14Z" fill="#d6d6d6"/></svg>