<?xml version="1.0" encoding="UTF-8"?><svg id="Headhunting" xmlns="http://www.w3.org/2000/svg" width="287.98" height="79.06" viewBox="0 0 287.98 79.06"><path d="M287.98,66.45c-2.42,0-4.84,0-7.26-.01-.23,0-.46,0-.69,0-1.08,0-1.97-.42-2.65-1.27-1.29-1.6-2.58-3.2-3.87-4.79-.93-1.15-1.86-2.3-2.79-3.45-.43-.54-.52-.54-.94-.01-2.17,2.69-4.36,5.36-6.5,8.07-.79,1-1.76,1.46-3.03,1.46-12.53-.01-25.07-.02-37.6,0-2.27,0-3.53-1.66-3.53-3.55,0-3.11,0-6.22,0-9.33,0-5.15,0-10.29,0-15.44,0-.5.05-.99.21-1.47.48-1.45,1.64-2.34,3.16-2.43.15,0,.31,0,.46,0,8.18,0,16.35,0,24.53,0,.77,0,.7-.12.71.71,0,1.88,0,3.76,0,5.64,0,.13,0,.27,0,.4,0,.16-.06.25-.24.25-.15,0-.31,0-.46,0-5.78,0-11.56,0-17.33,0-.37,0-.73.02-1.06.2-.65.34-1.03.89-1.06,1.61-.05,1.15-.03,2.3-.04,3.45,0,.2.1.27.28.26.15,0,.31,0,.46,0,5.45,0,10.9,0,16.35,0,.13,0,.27.01.4,0,.32-.04.38.12.38.4,0,2.05,0,4.11,0,6.16,0,.42-.01.43-.46.43-1.21,0-2.42,0-3.63,0-4.34,0-8.68,0-13.01,0-.13,0-.27,0-.4,0-.26-.02-.38.06-.38.35.01,1.11-.02,2.23.01,3.34.03,1.15.74,1.83,1.89,1.89.15,0,.31,0,.46,0,8.33,0,16.66,0,24.99.02.94,0,1.58-.36,2.15-1.08,1.37-1.7,2.81-3.36,4.21-5.03.83-.98,1.66-1.97,2.5-2.97-.1-.23-.29-.4-.44-.58-1.98-2.32-3.97-4.63-5.96-6.95-.2-.23-.39-.47-.58-.72-.4-.53-.92-.79-1.58-.8-.9,0-1.8-.01-2.71-.03-.45,0-.46-.01-.46-.43,0-2.02-.01-4.03-.01-6.05,0-.43,0-.43.45-.43,2.4.01,4.8.02,7.2.03,1.13,0,2.04.45,2.78,1.29,2.31,2.62,4.61,5.24,6.92,7.87.13.14.23.31.43.42.15-.06.24-.21.35-.33,2.34-2.67,4.69-5.33,7.03-8,.68-.78,1.53-1.22,2.57-1.23,2.59-.03,5.18-.02,7.77-.03v6.91c-.96,0-1.92.03-2.87,0-.86-.02-1.53.27-1.98,1.02-.07.11-.17.21-.26.31-1.3,1.51-2.6,3.02-3.9,4.53-.81.95-1.62,1.89-2.43,2.84-.27.32-.27.32,0,.66.01.01.03.03.04.04,2.2,2.63,4.4,5.26,6.61,7.89.37.44.82.79,1.41.81,1.13.04,2.26.06,3.39-.01v7.14Z" fill="#a3a49e"/><path d="M12.36,42.39c.24.08.37.26.52.4,1.59,1.44,3.33,2.66,5.36,3.4.9.33,1.83.54,2.8.57,3.24.1,6.48.22,9.72.34,4.16.15,8.32.31,12.48.46,4.1.15,8.21.31,12.31.46,5.22.19,10.43.39,15.65.58,1.15.04,2.3.08,3.45.14.24.01.38-.04.51-.26.2-.35.27-.67.18-1.08-.26-1.11-.57-2.19-1.04-3.22-.07-.16-.13-.33-.35-.13-2.3-.1-4.6.07-6.9.12-3.68.09-7.37.19-11.05.29-5.14.14-10.28.3-15.43.41-2.74.06-5.49.07-8.23.15-3.7.11-7.4.22-11.11.33-.33,0-.65,0-.98,0-.44.03-.79-.14-1.09-.43-.35-.34-.63-.73-.76-1.2-.18-.65-.37-1.29-.54-1.94-.1-.4-.08-.43.34-.41,2.32.08,4.64.16,6.96.23,2.97.1,5.95.2,8.92.29,3.45.11,6.91.23,10.36.35.82.03,1.65.06,2.47.09.17,0,.35.01.52-.02.24-.05.5-.11.53-.43.03-.28-.11-.62-.36-.73-.68-.31-1.11-.91-1.69-1.42.39-.04.77-.09,1.16-.12,2.35-.17,4.71-.33,7.06-.5.57-.04,1.14-.15,1.72,0,1.14.31,1.97,1.23,2.07,2.41.04.52.28.81.75.96.29.09.58.18.9.2,2.95.15,5.9.29,8.86.39,1.27.04,2.53.1,3.8.11.34,0,.65-.07.9-.3.27-.25.28-.31.07-.62-1.17-1.7-2.69-2.98-4.65-3.71-1.15-.43-2.33-.62-3.55-.58-3.91.11-7.82.29-11.74.46-2.72.12-5.45.21-8.17.31-3.59.14-7.17.28-10.76.42-4.24.17-8.48.35-12.71.52-1.17.05-2.34.08-3.51.15-.37.02-.56-.11-.71-.43-.67-1.44-.65-2.89-.14-4.35.24-.03.35.14.48.24,1.07.81,2.13,1.63,3.2,2.45.2.16.41.28.66.32.8.12,1.59.25,2.39.38.05,0,.11-.01.23-.02-.16-.83-.32-1.65-.47-2.45.16-.13.32-.08.47-.08,4.43.16,8.86.32,13.29.48,5.06.19,10.13.38,15.19.56,1.76.07,3.53.14,5.29.19.58.02,1.14.17,1.71.21.27.02.54.03.8-.02.53-.11.78-.46.71-1-.06-.41-.23-.78-.49-1.09-1.19-1.45-2.67-2.4-4.55-2.66-1.55-.21-3.1-.07-4.66.02-4.12.23-8.24.45-12.35.72-3.58.23-7.16.52-10.73.8-1.63.13-3.25.28-4.87.42-.55.04-.52.08-.69-.44-.24-.73-.47-1.46-.62-2.21-.29-1.43-.08-2.82.35-4.18.23-.03.27.15.37.26,2.04,2.25,4.52,3.64,7.57,3.94.42.04.65-.1.89-.44,6.49-9.23,12.99-18.46,19.5-27.68.8-1.13,1.59-2.26,2.39-3.39.09-.12.18-.25.27-.37.19.08.26.25.35.39,6.28,9.03,12.56,18.05,18.84,27.08,1.63,2.35,3.28,4.68,4.89,7.05,2.58,3.8,4.14,7.99,4.69,12.55.61,5.02-.02,9.89-1.97,14.55-2.57,6.13-6.77,10.83-12.58,14.05-3.79,2.09-7.87,3.2-12.2,3.37-3.96.16-7.81-.39-11.47-1.97-.48-.21-.95-.3-1.48-.3-5.72.05-11.44.06-17.16.09-7.24.04-14.47.07-21.71.11-1.04,0-2.07.01-3.11.02-.1,0-.19,0-.29,0-.43-.02-.49-.11-.26-.46.16-.24.33-.47.49-.71.25-.36.52-.72.75-1.09.16-.26.36-.34.66-.33,1.48.07,2.95.11,4.43.16,2.93.1,5.87.21,8.8.32,4.49.16,8.98.32,13.46.48,4.32.15,8.63.31,12.95.47.4.01.81.03,1.21.06.23.01.35-.05.37-.31.1-1.26.27-2.52.5-3.76.06-.33.03-.35-.39-.33-2.36.08-4.72.16-7.08.25-3.74.13-7.48.25-11.22.38-3.99.14-7.98.29-11.97.43-3.36.12-6.71.24-10.07.36-.07,0-.15,0-.22-.01-.09-.14.02-.23.08-.32.83-1.2,1.68-2.39,2.5-3.59.16-.24.34-.31.62-.29,2.59.16,5.17.3,7.76.44,3.06.17,6.13.35,9.19.52,2.45.14,4.9.26,7.36.4,3.76.21,7.51.43,11.26.64.67.04,1.34.06,2.01.12.3.03.4-.1.46-.36.21-.92.45-1.82.75-2.72.13-.38.26-.76.39-1.14.13-.41.12-.43-.3-.42-1.07.02-2.15.05-3.22.08-5.62.16-11.24.33-16.86.49-5.81.17-11.63.34-17.44.51-.21,0-.42,0-.62,0-.06-.18.06-.27.14-.37.77-1.1,1.55-2.19,2.31-3.3.18-.26.37-.33.67-.31,2.38.14,4.75.27,7.13.39,1.97.1,3.95.2,5.92.3,3.26.17,6.51.35,9.77.52,1.84.1,3.68.18,5.52.27,2.4.12,4.79.24,7.19.37.27.02.42-.04.53-.3.64-1.53,1.45-2.96,2.36-4.34.03-.04.04-.1.09-.23-12.54.4-25.03.79-37.5,1.18-.12-.2.02-.29.09-.39.73-1.06,1.47-2.11,2.2-3.17.18-.26.36-.36.71-.34,1.97.15,3.94.27,5.92.4,2.81.18,5.63.37,8.44.55,1.93.13,3.87.24,5.8.37,2.8.18,5.59.37,8.39.55,1.95.13,3.91.24,5.86.38.34.02.56-.07.77-.35,1.1-1.47,2.37-2.77,3.83-3.88.07-.05.16-.1.17-.24-.7,0-1.4-.01-2.1,0-5.16.11-10.32.22-15.49.34-6.1.14-12.2.27-18.31.41-.77.02-1.54.02-2.3.04-.26,0-.36-.08-.31-.33.01-.06,0-.12.02-.17.15-.85.09-1.68-.18-2.5-.05-.14-.08-.3-.11-.45-.02-.12.04-.18.15-.19.1,0,.19,0,.29,0,4.93.14,9.86.28,14.79.42,3.84.11,7.67.22,11.51.34,4.34.13,8.67.27,13.01.41.08,0,.15,0,.23,0,1.06.07,2.07-.03,3.09-.42,1.81-.69,3.72-.68,5.63-.59,1.43.07,2.84.28,4.11.97.6.33,1.19.46,1.86.47,1.75.04,3.49.09,5.24.16.5.02.82-.26,1.18-.51.11-.08.1-.2.12-.31.19-1.06.25-2.13.2-3.21,0-.12.01-.29-.18-.1,0,0-.07-.02-.09-.05-.35-.52-.89-.44-1.4-.43-4.64.11-9.29.22-13.93.33-4.32.1-8.63.19-12.95.29-4.32.1-8.63.2-12.95.29-3.17.07-6.33.11-9.5.17-2.09.04-4.18.13-6.28.07-1.48-.04-2.95-.02-4.42.24-.2.04-.37.04-.47-.2-.62-1.46-1.41-2.86-1.78-4.42-.33-1.4-.1-2.74.64-3.98ZM69.23,54.92s-.03.07-.05.11c1.47,1.33,2.57,2.96,3.67,4.63.76-1.07,1.35-2.14,1.79-3.29.22-.58.13-.93-.31-1.36-.13-.13-.26-.2-.45-.19-1.55.04-3.1.08-4.65.11Z" fill="#a3a49e"/><path d="M204.38,48.38c-.12.21-.24.42-.36.63-2.91,5.49-5.82,10.98-8.73,16.47-.17.33-.41.54-.75.66-.6.22-1.23.31-1.86.36-1.38.12-2.76.11-4.13-.16-.23-.04-.45-.11-.67-.18-.36-.12-.62-.34-.8-.69-1.59-3.02-3.2-6.03-4.8-9.05-1.38-2.59-2.75-5.19-4.12-7.78-.06-.11-.11-.24-.3-.35,0,.19,0,.35,0,.51,0,4.57-.03,9.14.01,13.71.02,1.86-1.54,3.57-3.05,3.96-.3.08-.6.11-.91.11-11.71,0-23.42-.01-35.13-.03-2.14,0-3.67-1.53-3.67-3.67,0-8.33,0-16.66-.01-25,0-1.85,1.39-3.7,3.71-3.69,8.14.03,16.28.01,24.42.01.08,0,.15,0,.23,0,.32-.05.38.12.38.4,0,2.07,0,4.15,0,6.22,0,.31-.12.38-.41.38-1.82-.01-3.65,0-5.47,0-3.92,0-7.83,0-11.75,0-.49,0-.95.07-1.35.39-.48.38-.75.88-.76,1.49-.02,1.15,0,2.3-.01,3.46,0,.29.1.38.37.35.13-.01.27,0,.4,0,5.47,0,10.94,0,16.41,0,.69,0,.64-.07.64.66,0,1.86,0,3.72,0,5.59,0,.58.1.59-.59.59-5.51,0-11.02,0-16.53,0q-.82,0-.82.82c0,.9,0,1.8,0,2.71,0,1.44.72,2.16,2.15,2.17,2.96,0,5.91,0,8.87,0,4.07,0,8.14,0,12.21,0,.41,0,.8-.03,1.18-.22.65-.33,1.03-.84,1.06-1.58,0-.17,0-.35,0-.52,0-7.37,0-14.74,0-22.12,0-.15,0-.31,0-.46-.01-.21.07-.33.3-.31.11,0,.23,0,.35,0,2.42,0,4.84,0,7.26,0,1.8,0,3.14.82,3.99,2.37,1.53,2.77,3.01,5.57,4.5,8.36,1.74,3.24,3.49,6.49,5.24,9.73.06.11.13.22.21.36.34-.44.53-.93.77-1.38,2.38-4.51,4.75-9.03,7.13-13.54.61-1.15,1.2-2.32,1.83-3.46.88-1.59,2.22-2.44,4.07-2.44,2.4,0,4.8,0,7.2,0,.12,0,.23,0,.35,0,.26-.03.32.1.32.34-.01.83,0,1.65-.01,2.48,0,3.67-.01,7.33-.02,11,0,6.03-.02,12.06-.02,18.08,0,.45,0,.45-.49.45-2.46,0-4.91,0-7.37,0-.53,0-.54,0-.54-.53,0-2.82,0-5.64,0-8.47,0-2.94,0-5.87,0-8.81,0-.11-.01-.23-.02-.34l-.1-.03Z" fill="#a3a49e"/><path d="M99.17,50.36c0-5.13,0-10.25,0-15.38,0-.13.01-.27,0-.4-.04-.31.12-.41.4-.38.08,0,.15,0,.23,0,8.35,0,16.7,0,25.05,0,1.5,0,2.76.58,3.8,1.64.62.63.92,1.39.91,2.28-.02,4.88-.03,9.75-.02,14.63,0,1.07-.43,1.89-1.24,2.53-.93.74-1.98,1.16-3.18,1.16-4.93,0-9.87,0-14.8,0-.47,0-.48,0-.48-.47,0-2,0-3.99,0-5.99,0-.49,0-.49.51-.49,3.15,0,6.3,0,9.44,0,.41,0,.8-.06,1.15-.29.55-.36.88-.88.89-1.53.03-1.57.03-3.15,0-4.72-.02-.96-.79-1.92-2.1-1.9-3.21.03-6.41.01-9.62.01-.84,0-1.69,0-2.53,0-.49,0-.49,0-.49.51,0,.13,0,.27,0,.4,0,7.97,0,15.93,0,23.9,0,.75.11.68-.67.68-2.21,0-4.41,0-6.62,0-.13,0-.27,0-.4,0-.17,0-.24-.09-.23-.25,0-.15,0-.31,0-.46,0-5.16,0-10.33,0-15.49Z" fill="#a3a49e"/></svg>