<?xml version="1.0" encoding="UTF-8"?><svg id="Headhunting" xmlns="http://www.w3.org/2000/svg" width="134.45" height="108.94" viewBox="0 0 134.45 108.94"><polygon points="70.33 108.94 0 108.94 0 38.61 11.47 27.14 81.8 27.14 81.8 43.51 80.39 43.51 80.39 28.55 12.05 28.55 1.4 39.19 1.4 107.54 69.75 107.54 80.39 96.89 80.39 63.2 81.8 63.2 81.8 97.47 70.33 108.94" fill="#f3f4f5"/><path d="M36.99,92.58L4.73,60.32l10.84-10.84,27.73,27.73,3.12-.02L123.61,0l10.84,10.84L52.81,92.48l-15.82.1ZM6.71,60.32l30.86,30.86,14.66-.1L132.47,10.84l-8.86-8.86L47.01,78.59l-4.28.03-27.16-27.16-8.86,8.86Z" fill="#f3f4f5"/></svg>