<?xml version="1.0" encoding="UTF-8"?><svg id="Headhunting" xmlns="http://www.w3.org/2000/svg" width="68.2" height="92.82" viewBox="0 0 68.2 92.82"><path d="M33.72,92.82C15.13,92.82,0,77.7,0,59.11c0-4.67.94-9.2,2.79-13.45,3.72-9.26,11.01-18.38,20.53-25.67l2.45-1.87-1.51,2.68c-.54.96-1.14,1.92-1.78,2.94-2.17,3.46-4.41,7.03-4.41,10.8-.07,1.07.04,2.16.32,3.18.71,2.53,2.35,4.38,4.4,4.96,2.4.68,5.37-.48,7.23-2.8,1.51-1.88,2.44-4.42,2.92-7.98,1.51-11.08-2.02-22.7-9.45-31.06,0,0,0,0,0,0l.94-.84h0s0,0,0,0c.9,1.01,2.14,1.86,3.35,2.69.47.32.93.64,1.37.96l1.61,1.19c16.04,11.81,32.63,24.02,36.7,44.63,1.64,8.32.6,16.63-2.92,23.38-5.4,12.12-17.49,19.97-30.8,19.97ZM21.29,23.24c-7.97,6.73-14.07,14.76-17.34,22.91-1.79,4.11-2.69,8.46-2.69,12.96,0,17.9,14.56,32.46,32.46,32.46,12.8,0,24.45-7.56,29.66-19.26,3.41-6.54,4.41-14.55,2.82-22.59-3.97-20.12-20.36-32.19-36.21-43.85l-1.61-1.19c-.26-.19-.52-.38-.79-.56,5.46,8.12,7.9,18.24,6.58,27.96-.52,3.8-1.53,6.53-3.19,8.6-1.83,2.28-5.19,4.17-8.55,3.22-2.47-.69-4.44-2.87-5.27-5.83h0c-.32-1.16-.45-2.39-.37-3.56,0-4.02,2.37-7.86,4.5-11.26Z" fill="#f3f4f5"/></svg>