<?xml version="1.0" encoding="UTF-8"?><svg id="Headhunting" xmlns="http://www.w3.org/2000/svg" width="108.81" height="111.3" viewBox="0 0 108.81 111.3"><path d="M20.36,99.3h-7.32v-3.43c-1.05-.29-2.06-.7-3.01-1.23l-2.51,2.51-5.18-5.18,2.46-2.46c-.59-1.02-1.05-2.1-1.36-3.24H0v-7.32h3.43c.28-1.01.67-1.98,1.17-2.9l-2.45-2.45,5.18-5.18,2.35,2.35c1.05-.62,2.17-1.1,3.35-1.42v-3.43h3.66v1.45h-2.21v3.12l-.56.13c-1.41.32-2.73.89-3.95,1.68l-.49.32-2.15-2.15-3.13,3.13,2.21,2.21-.29.49c-.66,1.1-1.13,2.29-1.42,3.54l-.13.56H1.45v4.42h3.12l.13.56c.31,1.37.86,2.66,1.62,3.85l.31.49-2.25,2.25,3.13,3.13,2.28-2.28.49.3c1.12.69,2.35,1.19,3.64,1.48l.56.13v3.12h4.42v-3.12l.56-.13c1.37-.31,2.66-.86,3.85-1.62l.49-.31,2.13,2.13,3.13-3.13-2.16-2.16.3-.49c.69-1.12,1.19-2.35,1.48-3.64l.13-.56h3.12v-.91h1.45v2.36h-3.43c-.29,1.05-.7,2.06-1.23,3.01l2.39,2.39-5.18,5.18-2.34-2.34c-1.02.59-2.1,1.05-3.24,1.36v3.43ZM16.69,88.19c-3.07,0-5.58-2.5-5.58-5.58s2.5-5.58,5.58-5.58,5.58,2.5,5.58,5.58-2.5,5.58-5.58,5.58ZM16.69,78.49c-2.27,0-4.12,1.85-4.12,4.12s1.85,4.12,4.12,4.12,4.12-1.85,4.12-4.12-1.85-4.12-4.12-4.12Z" fill="#f3f4f5"/><path d="M61.02,100.41h-22.93l-4.2-4.2v-10.86c-12.76-6.05-20.97-19-20.97-33.13,0-20.2,16.44-36.64,36.64-36.64,5.29,0,10.39,1.11,15.17,3.29l-.6,1.32c-4.59-2.1-9.49-3.16-14.57-3.16-19.4,0-35.19,15.79-35.19,35.19,0,13.72,8.07,26.28,20.55,32.01l.42.19v11.19l3.35,3.35h21.73l3.35-3.35v-11.19l.42-.19c12.48-5.72,20.55-18.29,20.55-32.01,0-.82-.03-1.65-.09-2.46l1.45-.1c.06.84.09,1.71.09,2.56,0,14.13-8.22,27.08-20.97,33.13v10.86l-4.2,4.2Z" fill="#f3f4f5"/><path d="M49.7,65.76c-.09,0-.18,0-.29,0-.1,0-.22,0-.33,0-2.28-.11-4.16-1.62-4.8-3.84-.66-2.3.16-4.67,2.11-6.02l1.9-1.33-16.08-11.23.83-1.19,16.52,11.53,16.52-11.53.83,1.19-16.08,11.23,1.9,1.33c1.94,1.36,2.77,3.72,2.11,6.02-.64,2.22-2.52,3.73-4.8,3.83-.11,0-.22,0-.33,0ZM49.56,55.45l-2.34,1.63c-1.43.99-2.03,2.73-1.54,4.43.37,1.28,1.48,2.69,3.48,2.79.13,0,.26,0,.39,0,.16,0,.29,0,.42,0,2-.1,3.11-1.5,3.48-2.79.49-1.7-.12-3.44-1.54-4.43l-2.34-1.63Z" fill="#f3f4f5"/><path d="M64.27,111.3h-29.42v-8.53h29.42v8.53ZM36.3,109.85h26.51v-5.63h-26.51v5.63Z" fill="#f3f4f5"/><path d="M88.82,50.44h-10.46v-5.18c-1.78-.46-3.48-1.16-5.07-2.07l-3.78,3.78-7.4-7.4,3.71-3.71c-1.02-1.69-1.78-3.51-2.28-5.42h-5.18v-10.46h5.18c.45-1.72,1.11-3.36,1.97-4.9l-3.69-3.69,7.4-7.4,3.55,3.55c1.74-1.07,3.61-1.86,5.58-2.38V0h10.46v5.18c1.91.5,3.73,1.26,5.42,2.28l3.53-3.53,7.4,7.4-3.6,3.6c.91,1.59,1.61,3.29,2.07,5.07h5.18v10.46h-5.18c-.46,1.78-1.16,3.48-2.07,5.07l3.6,3.6-7.4,7.4-3.53-3.53c-1.69,1.02-3.51,1.78-5.42,2.28v5.18ZM79.81,48.99h7.56v-4.87l.56-.13c2.14-.49,4.17-1.35,6.02-2.53l.49-.31,3.32,3.32,5.34-5.34-3.37-3.37.3-.49c1.08-1.76,1.86-3.67,2.32-5.7l.13-.56h4.87v-7.56h-4.87l-.13-.56c-.47-2.02-1.25-3.94-2.32-5.7l-.3-.49,3.37-3.37-5.34-5.34-3.32,3.32-.49-.31c-1.85-1.19-3.88-2.04-6.02-2.53l-.56-.13V1.45h-7.56v4.87l-.56.13c-2.2.51-4.28,1.39-6.18,2.63l-.49.32-3.35-3.35-5.34,5.34,3.46,3.46-.29.49c-1.03,1.72-1.78,3.58-2.23,5.54l-.13.56h-4.87v7.56h4.87l.13.56c.49,2.14,1.34,4.17,2.53,6.02l.31.49-3.51,3.51,5.34,5.34,3.56-3.56.49.3c1.76,1.08,3.67,1.86,5.7,2.32l.56.13v4.87ZM83.59,33.39c-4.5,0-8.17-3.66-8.17-8.17s3.66-8.17,8.17-8.17,8.17,3.66,8.17,8.17-3.66,8.17-8.17,8.17ZM83.59,18.51c-3.7,0-6.71,3.01-6.71,6.71s3.01,6.71,6.71,6.71,6.71-3.01,6.71-6.71-3.01-6.71-6.71-6.71Z" fill="#f3f4f5"/><path d="M83.59,37.23c-6.62,0-12.01-5.39-12.01-12.01s5.39-12.01,12.01-12.01,12.01,5.39,12.01,12.01-5.39,12.01-12.01,12.01ZM83.59,14.67c-5.82,0-10.55,4.74-10.55,10.55s4.73,10.55,10.55,10.55,10.55-4.74,10.55-10.55-4.74-10.55-10.55-10.55Z" fill="#f3f4f5"/><path d="M16.69,91.22c-4.75,0-8.61-3.86-8.61-8.61s3.86-8.61,8.61-8.61,8.61,3.86,8.61,8.61-3.86,8.61-8.61,8.61ZM16.69,75.45c-3.95,0-7.16,3.21-7.16,7.16s3.21,7.16,7.16,7.16,7.16-3.21,7.16-7.16-3.21-7.16-7.16-7.16Z" fill="#f3f4f5"/></svg>