<?xml version="1.0" encoding="UTF-8"?><svg id="Headhunting" xmlns="http://www.w3.org/2000/svg" width="113.32" height="96.27" viewBox="0 0 113.32 96.27"><path d="M25.99,96.27h-1.83c-4.4,0-7.98-3.58-7.98-7.98v-30.02h17.79v30.02c0,4.4-3.58,7.98-7.98,7.98ZM17.43,59.52v28.77c0,3.71,3.02,6.73,6.73,6.73h1.83c3.71,0,6.73-3.02,6.73-6.73v-28.77h-15.3Z" fill="#f3f4f5"/><path d="M43.3,59.52H15.01c-8.28,0-15.01-6.73-15.01-15.01v-3.59c0-8.28,6.73-15.01,15.01-15.01h28.29v33.61ZM15.01,27.16c-7.59,0-13.76,6.17-13.76,13.76v3.59c0,7.59,6.17,13.76,13.76,13.76h27.04v-31.11H15.01Z" fill="#f3f4f5"/><path d="M103.63,78.95l-61.58-19.59V26.12L103.63,0v78.95ZM43.3,58.44l59.09,18.8V1.88l-59.09,25.07v31.49Z" fill="#f3f4f5"/><path d="M102.38,52.91v-25.05l10.94,5.98v12.05l-10.94,7.02ZM103.63,29.97v20.66l8.44-5.42v-10.62l-8.44-4.62Z" fill="#f3f4f5"/><path d="M30.08,73.09h-5.63v-5.63h5.63v5.63ZM25.7,71.84h3.13v-3.13h-3.13v3.13Z" fill="#f3f4f5"/><path d="M30.08,80.08h-5.63v-5.63h5.63v5.63ZM25.7,78.84h3.13v-3.13h-3.13v3.13Z" fill="#f3f4f5"/></svg>