<?xml version="1.0" encoding="UTF-8"?><svg id="Corporate" xmlns="http://www.w3.org/2000/svg" width="87.31" height="116.26" viewBox="0 0 87.31 116.26"><path d="M87.31,29.12c-3.86,1.78-7.44,4.01-10.72,6.7-6.18,5.07-10.91,11.25-14.15,18.56-.52,1.16-.99,2.34-1.39,3.55-.08.23-.17.32-.43.32-9.68,0-19.35,0-29.03,0-.3,0-.34-.07-.27-.34,2.91-12.08,8.33-22.89,16.3-32.41,6.52-7.79,14.26-14.08,23.2-18.89,5.1-2.75,10.44-4.9,16.02-6.45.11-.03.24-.02.32-.13.05.03.15-.07.15.07,0,.08,0,.17,0,.25v28.78Z" fill="#d6d6d6"/><path d="M73.05,0c-.49.34-1.05.53-1.57.79-10.27,5-19.13,11.83-26.67,20.39-2.14,2.43-4.13,4.98-5.98,7.64-.15.21-.3.29-.56.29-12.62,0-25.24,0-37.86,0-.34,0-.41-.09-.41-.42C.01,19.14,0,9.57,0,0h73.04Z" fill="#d6d6d6"/><path d="M87.31,83.48c-1.71,0-3.42,0-5.13-.02-.57,0-.49.08-.49-.51,0-4.52,0-9.05,0-13.57,0-1.37-.98-2.12-2.32-1.79-1.31.32-1.97,1.09-2.12,2.43-.03.24-.03.48-.03.73,0,4.1,0,8.2,0,12.3,0,.32-.07.43-.41.42-1.62-.02-3.25-.01-4.87,0-.26,0-.35-.05-.35-.33,0-6.65,0-13.29,0-19.94,0-.26.07-.32.32-.31,1.86.01,3.71.01,5.57,0,.25,0,.32.05.33.31.02.46-.06.85-.35,1.22-.18.23-.32.49-.46.74-.06.11-.24.24-.04.36.18.11.21-.11.26-.2.57-1.06,1.5-1.71,2.56-2.17,1.67-.73,3.35-.63,4.94.2,1.32.68,1.97,1.89,2.3,3.29.13.54.2,1.09.3,1.63v15.21Z" fill="#d6d6d6"/><path d="M43.64,116.25c-4.72,0-9.43,0-14.15,0-.32,0-.39-.08-.39-.4,0-9.45,0-18.9,0-28.34,0-.29.06-.39.37-.38,9.46,0,18.91,0,28.37,0,.31,0,.37.09.37.38,0,9.45,0,18.9,0,28.34,0,.31-.06.4-.39.4-4.73-.01-9.46,0-14.18,0Z" fill="#d6d6d6"/><path d="M48.3,83.27c-1.05,0-2.11,0-3.16,0-.23,0-.34-.04-.39-.29-1.49-6.64-3-13.27-4.5-19.9-.07-.3-.06-.41.31-.4,1.64.02,3.27.01,4.91,0,.25,0,.35.06.39.33.68,4.2,1.38,8.39,2.05,12.59.12.78.14,1.57.21,2.35,0,.1-.04.26.11.26.16,0,.09-.17.09-.26.12-2.23.56-4.42.91-6.62.44-2.74.9-5.47,1.34-8.21.05-.34.16-.45.52-.44,1.66.02,3.32.02,4.98,0,.32,0,.41.04.33.39-1.01,4.41-2.01,8.83-3.01,13.24-.5,2.21-1.01,4.41-1.5,6.62-.06.26-.15.35-.42.34-1.05-.02-2.11,0-3.16,0Z" fill="#d6d6d6"/><path d="M58.01,72.98c0-3.3,0-6.6,0-9.9,0-.32.07-.4.4-.4,3.62.01,7.25.01,10.87,0,.3,0,.39.07.39.38-.02,1.19-.02,2.38,0,3.56,0,.3-.1.35-.37.35-1.77-.01-3.54,0-5.31-.01-.27,0-.35.06-.34.34.02,1.07.02,2.13,0,3.2,0,.31.1.35.37.35,1.75-.01,3.49,0,5.24-.01.3,0,.42.05.41.39-.02,1.05-.02,2.11,0,3.16,0,.3-.1.36-.37.35-1.76-.01-3.52,0-5.27-.01-.31,0-.38.09-.37.38.02,1.25.02,2.5,0,3.75,0,.27.06.34.34.34,1.77-.01,3.54,0,5.31-.01.26,0,.37.04.37.35-.02,1.15-.01,2.3,0,3.46,0,.22-.05.29-.28.29-3.7,0-7.39,0-11.09,0-.32,0-.28-.17-.28-.36,0-3.31,0-6.62,0-9.93Z" fill="#d6d6d6"/><path d="M26.98,72.97c0-3.29,0-6.57,0-9.86,0-.36.1-.43.44-.43,3.6.01,7.2.01,10.8,0,.35,0,.42.11.41.43-.02,1.18-.02,2.35,0,3.53,0,.28-.08.34-.35.34-1.78-.01-3.56,0-5.35-.01-.26,0-.35.05-.34.33.02,1.08.02,2.16,0,3.24,0,.26.07.32.32.32,1.78-.01,3.56,0,5.35-.01.28,0,.37.07.37.36-.02,1.07-.02,2.13,0,3.2,0,.27-.07.35-.35.34-1.78-.01-3.56,0-5.35-.01-.27,0-.35.05-.34.33.02,1.27.02,2.55,0,3.82,0,.26.07.32.32.31,1.78-.01,3.56,0,5.35-.01.28,0,.37.05.37.35-.02,1.13-.02,2.26,0,3.38,0,.3-.09.35-.37.35-3.64,0-7.27,0-10.91,0-.3,0-.38-.07-.38-.37.01-3.31,0-6.62,0-9.93Z" fill="#d6d6d6"/><path d="M0,72.97c0-3.3,0-6.6,0-9.89,0-.33.09-.39.4-.39,3.55.01,7.1.01,10.65,0,.32,0,.41.08.4.4-.02,1.18-.02,2.35,0,3.53,0,.27-.05.37-.35.36-1.71-.02-3.42,0-5.13-.02-.29,0-.36.08-.36.36.02,1.07.01,2.13,0,3.2,0,.26.08.32.33.32,1.72-.01,3.44,0,5.16-.01.28,0,.35.07.34.35-.02,1.08-.01,2.16,0,3.24,0,.25-.07.33-.32.32-1.72-.01-3.44,0-5.16-.01-.27,0-.35.07-.34.34.02,1.26.01,2.52,0,3.78,0,.27.06.35.34.34,1.71-.01,3.42,0,5.13-.01.26,0,.38.04.37.34-.02,1.14-.02,2.28,0,3.42,0,.25-.06.32-.32.32-3.6,0-7.2,0-10.8,0-.28,0-.34-.07-.34-.34,0-3.32,0-6.64,0-9.97Z" fill="#d6d6d6"/><path d="M13.6,72.99c0-3.31,0-6.62,0-9.93,0-.3.08-.38.38-.38,1.62.02,3.25.02,4.87,0,.3,0,.38.07.38.38,0,5.12,0,10.23-.01,15.35,0,.34.09.42.42.41,1.7-.02,3.39,0,5.09-.01.24,0,.33.04.33.31-.01,1.28-.01,2.57,0,3.85,0,.23-.06.3-.3.3-3.61,0-7.22-.01-10.83,0-.31,0-.32-.12-.32-.36,0-3.31,0-6.62,0-9.93Z" fill="#d6d6d6"/><path d="M69.65,90.68c-.01,1.83-1.48,3.28-3.29,3.27-1.7-.01-3.13-1.55-3.1-3.34.03-1.8,1.44-3.28,3.13-3.27,1.75.01,3.28,1.57,3.26,3.33ZM66.39,88.13c-1.37,0-2.53,1.12-2.56,2.49-.03,1.42,1.05,2.52,2.47,2.54,1.38.02,2.56-1.14,2.58-2.52.01-1.43-1.06-2.51-2.49-2.52Z" fill="#d6d6d6"/><path d="M67.68,92.33c-.54.16-.87,0-1.06-.49-.09-.25-.26-.46-.39-.69-.04-.07-.09-.12-.17-.1-.1.02-.08.1-.08.17,0,.31-.01.63,0,.94.01.26-.16.21-.31.22-.15,0-.28.01-.28-.21.01-1.02,0-2.03,0-3.05,0-.14.01-.24.19-.23.45.02.9-.04,1.34.05.47.1.7.37.78.92.07.5-.11.95-.5,1.1-.27.1-.19.2-.09.36.19.33.38.67.58,1.02ZM66,89.75c-.27.49.29.44.41.68.01.02.19,0,.27-.05.29-.17.31-.45.23-.73-.08-.3-.39-.43-.78-.35-.32.07-.07.33-.13.45Z" fill="#d6d6d6"/></svg>