<?xml version="1.0" encoding="UTF-8"?><svg id="Corporate" xmlns="http://www.w3.org/2000/svg" width="368.68" height="40.13" viewBox="0 0 368.68 40.13"><path d="M0,22.53C0,20.23,0,17.93,0,15.64,0,13.35,0,11.06,0,8.77c0-2.3,0-4.6,0-6.9.03-.42.06-.84.09-1.27,2.29-.05,4.58-.11,6.87-.16,2.3,0,4.6.02,6.89.02,2.31,0,4.62-.02,6.93-.02,2.3,0,4.6.02,6.89.02,2.29.37,4.61.48,6.93.43,2.45.18,4.9.37,7.36.55,4.46.9,8.91,1.81,13.37,2.71,2.3.92,4.6,1.85,6.9,2.77h-.01c.31.14.63.29.94.44.78.58,1.56,1.15,2.34,1.73,1.09,1.1,2.19,2.19,3.28,3.29.57.93,1.14,1.86,1.71,2.8l.55,2.29c.04.3.07.61.11.91,0,.93,0,1.85,0,2.78-.58,4.21-2.33,7.7-6.14,9.94-.97.57-1.86,1.29-2.79,1.94-4.3,1.88-8.75,3.28-13.35,4.24l-.6.2h-.04c-2.26.31-4.52.62-6.78.92-2.29.24-4.57.47-6.86.71-1.7.01-3.42-.23-5.09.35-2.91.02-5.83.04-8.74.07-2.31,0-4.62,0-6.92,0s-4.6,0-6.9,0c-2.29-.05-4.57-.09-6.86-.14C.06,38.37.03,37.33,0,36.3,0,34,0,31.7,0,29.4,0,27.11,0,24.82,0,22.53ZM48.41,13.31c-2.03-1.05-4.19-1.63-6.48-1.75-2.41-.64-4.84-1.06-7.34-.94-2.29-.48-4.6-.54-6.92-.46-2.3,0-4.6,0-6.9,0q-4.65-.36-4.61,4.14c0,.45.05.9.07,1.34,0,2.29,0,4.57,0,6.86,0,2.3,0,4.61,0,6.91.19.8.86.49,1.31.49,4.13-.02,8.27-.07,12.4-.12.8.12,1.59.1,2.36-.21,3.08-.2,6.19-.19,9.18-1.12,2.25-.13,4.39-.72,6.48-1.53,2.11-.93,4.39-1.61,5.54-3.9,1.75-2.94,1.26-5.55-1.45-7.75-1.05-.96-2.25-1.64-3.64-1.97Z" fill="#d6d6d6"/><path d="M366.3.44c.84.38,2.47-.53,2.35,1.42v34.44c-.04.3-.16.61-.09.88.5,2-.59,2.45-2.26,2.35-2.31,0-4.62,0-6.92,0-2.3,0-4.6,0-6.9,0-.11-.08-.23-.1-.36-.05-.02-12.99-.04-25.98-.06-38.98.15,0,.29-.02.43-.06,2.3,0,4.6.02,6.89.02,2.31,0,4.62-.02,6.93-.02Z" fill="#d6d6d6"/><path d="M83.01,31.21c-.43-.79-1.13-1.32-1.85-1.81-2.97-3.44-4.17-7.42-3.7-11.92.6-.5.47-1.18.46-1.83,1.35-2.54,2.86-4.96,5.09-6.85,0,0-.02.01-.02.01,2.14-1.65,4.61-2.74,6.92-4.11,2.16-.7,4.32-1.41,6.47-2.11.58-.13,1.16-.26,1.74-.38,1.71-.36,3.43-.72,5.14-1.09,1.99-.24,3.97-.47,5.96-.71.43.09.84.13,1.18-.24l.13.08.13-.07c6.71-.27,13.41-.24,20.12-.02l.15.06.15-.06c.33.36.75.32,1.17.24,2,.17,3.99.34,5.99.51,1.81.7,3.9.31,5.61,1.41-.43,2.13-.86,4.26-1.28,6.4-.17,1.61-.99,2.17-2.57,1.65-.55-.18-1.17-.13-1.76-.19-2.03-.61-4.15-.46-6.23-.71-1.01-.32-1.98-.29-3.04-.04-1.5.35-3.07.5-4.5-.38-3.85-.38-7.69.12-11.53.23-.8-.02-1.63-.2-2.34.35-2.35.02-4.63.44-6.89,1.08-3.18.76-6.11,1.94-8.58,4.82,10.32,0,20.15.02,29.99,0,2.99,0,2.99-.06,2.99,2.82,0,1.22-.19,2.48.05,3.66.46,2.26-.64,2.45-2.48,2.42-6.65-.1-13.31-.06-19.96-.07-3.4,0-6.79,0-10.36,0,1.74,2.5,3.65,3.58,8.22,4.85,9.49,2.19,19.06,1.99,28.66,1.08,3.33.24,6.56-.74,9.87-.85.58,2.58,1.16,5.15,1.74,7.73-.07.61-.41.84-1.02.93-1.39.2-2.77.5-4.15.76-2.14.23-4.28.46-6.42.69-2.76.19-5.52.38-8.28.56-2,0-4.01,0-6.01,0-2.91-.2-5.83-.39-8.74-.59-1.83-.22-3.66-.44-5.49-.67-2.26-.46-4.52-.92-6.78-1.38h-.04c-.2-.07-.4-.14-.6-.2-4.77-1.29-9.22-3.3-13.31-6.08Z" fill="#d6d6d6"/><path d="M170.03,30.27c10.17.02,20.33.1,30.49.03,1.83-.01,2.43.47,2.24,2.25-.24,2.24.93,5.26-.53,6.53-1.27,1.11-4.22.31-6.43.36-.76.02-1.53.06-2.29.1-2.3,0-4.6,0-6.9,0s-4.62,0-6.92,0-4.6,0-6.9,0c-2.31,0-4.62,0-6.92,0-2.3,0-4.6,0-6.9,0-1.91-.44-3.95.44-5.82-.53.04-1.68.12-3.35.12-5.03-.03-10.99-.08-21.99-.12-32.98,1.86-1.06,3.91-.07,5.82-.55,2.3.19,4.59.19,6.89,0,1.22.02,2.43.04,3.65.06.02,9.17.01,18.34.08,27.5,0,.74-.53,1.67.43,2.26Z" fill="#d6d6d6"/><path d="M214.26,39.54c-.15-.03-.3-.1-.44-.07-2.61.49-3.62-.65-3.28-3.18,0-2.29,0-4.58,0-6.87V8.75c0-2.29,0-4.58,0-6.87.1-.74.09-1.5,1.26-1.35.81.1,1.64-.05,2.47-.08,2.3,0,4.6.02,6.89.02,2.31,0,4.62-.02,6.93-.02,2.3,0,4.6.02,6.89.02,2.31,0,4.61,0,6.92,0,2.29.22,4.58.59,6.9.46,1.85.29,3.7.58,5.55.87.52.07,1.05.14,1.58.21.47.39,1.04.47,1.63.48.12.09.26.13.41.12,1.54.55,3.09,1.1,4.63,1.65,4.58,2.45,8.12,5.63,7.93,11.38-.32,1.23-.65,2.46-.97,3.68-.14.08-.2.19-.18.35,0,0,.08.01.08.01-.75.95-1.5,1.89-2.26,2.84-1.71,1.05-3.41,2.11-5.12,3.16-2.12.66-4.23,1.32-6.35,1.98-4.57.96-9.24,1.02-13.86,1.58-2.28-.21-4.56-.15-6.83.16-2.32-.61-4.65-.36-6.99-.16-1.02-.33-1.39.07-1.36,1.1.06,1.98.06,3.97.08,5.95q-.17,3.15-3.33,3.16c-.76,0-1.52.06-2.28.09-2.3,0-4.6,0-6.9,0ZM226.77,15.66c0,1.37,0,2.74,0,4.1.14.14.29.41.43.41,4.59-.02,9.17-.06,13.76-.1.45-.04.9-.08,1.35-.12,2.21-.07,4.43-.12,6.54-.92,3.58-.81,4.73-2.01,4.54-4.75-.3-2.75-2.65-2.94-4.59-3.63-2.24-.72-4.55-.9-6.89-.9-.82-.03-1.64-.13-2.45-.07-1.5.12-2.98.96-4.49.04-2.3,0-4.59,0-6.89,0-.84-.18-1.45-.12-1.4,1.02.08,1.63.06,3.27.09,4.9Z" fill="#d6d6d6"/><path d="M341.49,35.85c-.02.22-.1.45-.06.67.37,2.2-.34,3.39-2.77,3.02-2.31,0-4.62,0-6.92,0-1.67-.03-3.34-.06-5.01-.09-.66-.01-1.43.18-1.5-.86.4-4.31.07-8.62.18-12.93.02-.87-.32-1.15-1.23-1.11-2.1.11-4.2.07-6.3.1-7.66.11-15.33-.3-22.99.14-.87-.62-1.02.04-1.02.65,0,1.32.08,2.65.13,3.97,0,2.3,0,4.6,0,6.89.17,2.36-.71,3.62-3.29,3.12-.13-.03-.28.07-.43.11-2.31,0-4.61,0-6.92,0-.3-.05-.6-.13-.9-.14q-4.62-.15-4.62-4.68c0-10.61.05-21.22-.05-31.83-.02-1.91.49-2.59,2.39-2.39,1.05.12,2.13-.03,3.2-.06,2.3.19,4.59.19,6.89,0,.82.04,1.66.19,2.47.08,1.17-.15,1.16.61,1.26,1.35,0,2.29,0,4.58,0,6.87-.03,1.13-.09,2.26-.09,3.39q-.01,3.24,3.29,3.01c2.3.28,4.61.16,6.91.06,2.3-.02,4.61-.04,6.91-.06,2.3.28,4.61.16,6.91.06,1.98.01,3.96-.05,5.93.06,1.24.07,1.55-.38,1.54-1.55-.05-4.39,0-8.78,0-13.17,2.11-.03,4.23-.06,6.34-.09,2.31,0,4.62-.02,6.93-.02,1.11.38,3.17-.67,2.83,1.88,0,2,0,4,0,6v21.52c0,2,0,4,0,6Z" fill="#d6d6d6"/></svg>