<?xml version="1.0" encoding="UTF-8"?><svg id="Corporate" xmlns="http://www.w3.org/2000/svg" width="250.28" height="109.27" viewBox="0 0 250.28 109.27"><path d="M223.5,39.27c-.08,2.07-.15,4.15-.23,6.22-.98,1.46-.59,3.21-.9,4.8-.85,4.26-2.55,8.27-3.46,12.5-1.36,1.23-1.77,2.98-2.54,4.53-1.23,1.87-2.47,3.74-3.7,5.61-.31.26-.67.49-.94.79-4.77,5.33-6.11,5.63-12.83,3.1-1.26-.47-1.86-.78-.71-2.03,12.71-13.91,16.36-30.98,17.37-49.05.48-8.64-.55-17.17-.95-25.75h1.88c1.61,2.47,2.22,5.33,3.19,8.04.41,1.8.77,3.61,1.78,5.21-.34,2.32.81,4.45.82,6.73,1.66,6.35.93,12.86,1.21,19.29Z" fill="#d6d6d6"/><path d="M208.35,0c2.21,9.19,3.83,18.46,3.48,27.96-.56,15.21-4.66,29-16.09,39.84-1.28,1.21-2.74,2.23-4.03,3.43-1.27,1.18-2.3,1.22-3.78.14-4.22-3.05-4.24-2.94-.68-6.65,8.4-8.74,12.71-19.54,15.43-31.07,2.62-11.07,3.35-22.32,3.16-33.65h2.5Z" fill="#d6d6d6"/><path d="M250.28,46.77c-1.88,3.85-2.26,8.34-5.03,11.86-4.53-4.96-5.32-14.12-1.87-21.04,1.02-2.06,2.43-3.84,3.9-5.61,1.42-1.71,2.26-1.37,3.01.45v14.34Z" fill="#d6d6d6"/><path d="M200.96,16.72c-.17,14.59-3.47,28.12-13.52,39.34-1.95,2.18-4.25,3.96-6.62,5.66-1.2.86-1.85.7-2.73-.53-2.55-3.55-2.62-3.55.4-6.78,10.18-10.88,14.93-24.21,17.33-38.55.65-3.88.94-7.82,1.35-11.73.11-1.06.02-2.24,1.5-2.23,1.46,0,1.02,1.39,1.19,2.14.91,4.17,1.22,8.41,1.11,12.69Z" fill="#d6d6d6"/><path d="M227.64,41.97c.14-7.86,5.56-15.95,14.76-21.8.84-.53,1.77-1.75,2.95-.36,1.06,1.24.1,2.04-.55,2.97-7.18,10.4-9.4,21.74-6.35,34.02.47,1.9,1.03,3.88,2.06,5.51,1.48,2.35-.08,3.51-1.46,4.63-1.7,1.38-2.32-.58-3.09-1.44-5.13-5.76-8.36-12.33-8.32-23.52Z" fill="#d6d6d6"/><path d="M58.06,61.9c0,1.66-.09,3.33.02,4.98.14,2.01-.04,3.18-2.7,3.19-2.8,0-2.64-1.43-2.61-3.29.05-3.22.05-6.43-.01-9.65-.04-2.48-.98-4.26-3.86-4.18-3.25.09-4.4,1.26-4.4,4.47,0,3.42-.14,6.86.05,10.27.11,2.12-.83,2.42-2.57,2.29-1.43-.1-2.81.32-2.77-2.09.14-8.92.13-17.85,0-26.77-.03-2.23,1.11-2.19,2.7-2.22,1.68-.03,2.96.12,2.59,2.28-.03.2,0,.41,0,.62.02,2.28-.78,5.09.27,6.7,1.12,1.73,3.81-.33,5.88-.26,4.4.15,7.05,2.42,7.36,6.81.16,2.27.03,4.56.03,6.85,0,0,.01,0,.02,0Z" fill="#d6d6d6"/><path d="M27.48,94.13c-.06-11.22,9.38-17.9,21.16-13.49,1.03.38,1.7.86.92,2-.67.98-.18,2.95-2.28,2.71-.4-.05-.76-.33-1.16-.45-5.25-1.56-8.62-.79-10.98,2.53-2.53,3.54-2.47,9.52.13,13.25,2.19,3.14,6.45,4.46,10.95,3.26,1.42-.38,2.61-1.25,3.31,1.07.53,1.77.39,2.48-1.46,3.17-10.57,3.89-20.61-2.9-20.59-14.03Z" fill="#d6d6d6"/><path d="M14.86,59.28c.02-6.55,4.2-10.93,10.5-11,6.32-.07,10.8,4.53,10.8,11.1,0,6.67-4.29,11.1-10.74,11.09-6.46-.01-10.59-4.38-10.56-11.19ZM20.6,59.74c-.08,1.8.28,3.96,2.24,5.36,2.04,1.46,4.14,1.22,5.9-.57,2.01-2.04,2.09-7.57.19-9.89-1.62-1.98-3.7-2.33-5.82-1.05-2.06,1.25-2.51,3.42-2.52,6.14Z" fill="#d6d6d6"/><path d="M72.04,98.1c0,6.78-4.13,11.05-10.69,11.03-6.32-.02-10.58-4.38-10.62-10.88-.04-6.64,4.28-11.23,10.63-11.29,6.39-.07,10.66,4.4,10.67,11.15ZM66.27,98.1c.11-2.05-.36-3.94-1.87-5.39-1.7-1.63-4.52-1.46-6.16.26-2.21,2.31-2.19,8.11.03,10.37,1.68,1.71,4.45,1.83,6.17.16,1.5-1.46,1.96-3.35,1.84-5.4Z" fill="#d6d6d6"/><path d="M136.83,109.13c-6.44-.03-10.65-4.49-10.58-11.21.07-6.49,4.39-10.97,10.6-10.97,6.33,0,10.82,4.63,10.8,11.15-.02,6.65-4.34,11.05-10.82,11.02ZM136.83,91.6c-3.02.05-4.89,2.67-4.82,6.75.07,3.87,2.05,6.39,4.96,6.31,2.9-.08,4.9-2.7,4.92-6.46.02-3.9-2.09-6.66-5.06-6.61Z" fill="#d6d6d6"/><path d="M122.62,59.39c.02,6.65-4.29,11.1-10.73,11.08-6.32-.02-10.59-4.39-10.65-10.88-.06-6.61,4.27-11.23,10.61-11.31,6.35-.07,10.75,4.47,10.77,11.1ZM116.86,59.43c-.02-4.04-2.03-6.61-5.09-6.51-2.88.09-4.77,2.68-4.78,6.53,0,3.93,2.12,6.63,5.11,6.52,2.9-.11,4.77-2.68,4.75-6.54Z" fill="#d6d6d6"/><path d="M191.49,5.34c.61,16-1.85,30.75-14.22,42.23-.15.14-.29.31-.47.41-1.26.72-2.13,2.54-3.84,1.95-1.01-.35-1.17-5.35-.28-6.43,8.57-10.43,13.44-22.55,16.36-35.56.25-1.11.49-2.28,2.46-2.6Z" fill="#d6d6d6"/><path d="M125.73,59.99c0-2.49.11-4.98-.04-7.46-.1-1.61.29-2.38,1.97-2.85,3.54-.99,7.04-1.76,10.73-1.08,3.85.71,5.95,2.88,6.08,6.73.14,4.25-.08,8.5.1,12.75.1,2.31-1.34,1.84-2.62,1.87-1.43.03-2.95.38-2.84-2.03.16-3.52.03-7.05.04-10.57,0-1.63-.22-3.15-1.9-3.93-1.83-.85-3.66-.48-5.44.22-1.06.42-.69,1.4-.7,2.16-.04,3.83-.15,7.68.03,11.5.11,2.3-.78,2.72-2.86,2.72-2,0-2.76-.48-2.61-2.57.19-2.47.04-4.97.04-7.46Z" fill="#d6d6d6"/><path d="M75.04,98.5c0-1.77.25-3.58-.05-5.29-.64-3.54.81-5.16,4.25-5.48,1.65-.15,3.28-.66,4.93-.75,6.66-.36,9.64,2.5,9.66,9.13.01,3.43-.15,6.86.06,10.28.13,2.21-.94,2.28-2.6,2.24-1.68-.04-3.03.1-2.88-2.37.22-3.52.05-7.06.05-10.59,0-1.55-.41-2.87-1.98-3.57-1.86-.83-3.68-.51-5.45.23-1.02.43-.59,1.45-.6,2.21-.04,3.95-.17,7.9.03,11.84.14,2.6-1.44,2.12-2.98,2.26-1.84.16-2.63-.33-2.49-2.35.19-2.58.05-5.19.05-7.79Z" fill="#d6d6d6"/><path d="M62.16,59.69c0-2.08.34-4.22-.08-6.21-.55-2.58.46-3.53,2.74-4.09,3.36-.82,6.7-1.44,10.17-.77,3.66.7,5.68,2.89,5.78,6.62.1,4.25-.07,8.51.08,12.76.08,2.17-1.19,1.99-2.58,1.94-1.29-.04-2.74.44-2.64-1.85.16-3.52.12-7.06.02-10.58-.11-4.04-3.73-5.92-7.32-4.01-1.19.63-.85,1.54-.86,2.39-.04,3.94-.15,7.89.03,11.83.1,2.21-.99,2.28-2.65,2.26-1.58-.02-2.86.05-2.71-2.2.17-2.69.04-5.39.04-8.09,0,0-.01,0-.02,0Z" fill="#d6d6d6"/><path d="M90.41,70.62c-1.43-.25-2.88-.4-4.27-.77-1.14-.3-2.95-.09-2.03-2.39.64-1.6,1.1-2.96,3.19-1.8.35.2.78.34,1.18.36,1.71.09,3.89.85,4.62-1.34.77-2.32-1.5-2.79-3.01-3.59-1.19-.62-2.49-1.11-3.56-1.9-3.48-2.57-3.2-7.41.55-9.58,3.2-1.85,6.58-1.5,9.96-.5,1.11.33,1.31.95.72,1.83-.59.88.04,2.79-2.02,2.45-1.23-.2-2.44-.54-3.68-.61-1.03-.05-2.17.14-2.39,1.47-.18,1.11.59,1.71,1.47,2.12.94.43,1.93.75,2.89,1.15,3.95,1.63,5.62,4.11,5.06,7.54-.49,3.03-3.16,5.07-7.09,5.38-.52.04-1.04,0-1.56,0l-.03.17Z" fill="#d6d6d6"/><path d="M165.35,109.12c-1.47.07-2.9-.1-4.31-.54-1.19-.38-2.9-.23-2.08-2.41.58-1.54,1.04-3.03,3.17-1.82.26.15.58.26.88.29,1.82.14,4.15.96,4.95-1.29.9-2.52-1.75-2.79-3.26-3.65-1.08-.62-2.27-1.05-3.27-1.77-3.49-2.52-3.26-7.4.43-9.58,3.08-1.82,6.35-1.51,9.66-.69,1.39.35,1.7,1.1,1.06,2.22-.51.89-.11,2.81-2.23,2.14-.98-.31-2.03-.49-3.06-.53-1.12-.04-2.43-.08-2.74,1.4-.27,1.28.77,1.84,1.69,2.3.83.42,1.74.66,2.61,1.01,4.08,1.67,5.74,4.23,5.07,7.8-.55,2.91-3.43,4.92-7.31,5.11-.41.02-.83,0-1.25,0Z" fill="#d6d6d6"/><path d="M105.69,109.13c-5.55,0-6.86-1.33-6.87-7,0-2.38.03-4.76-.01-7.15-.02-1.33.43-2.61-1.71-3.3-1.49-.48-1.21-3.49-.2-3.73,2.59-.62,1.99-2.3,1.87-3.76-.16-2.04.53-2.63,2.57-2.59,1.9.04,3.03.36,2.6,2.51-.57,2.89.8,3.66,3.42,3.28,1.59-.23,2.68-.04,2.73,2.17.05,2.29-.97,2.72-2.79,2.43-2.79-.45-3.71.67-3.4,3.4.23,2.05.15,4.14.02,6.21-.17,2.65,1.02,3.94,3.49,3.01,2.79-1.05,3,.84,3.32,2.47.48,2.47-1.72,1.66-2.88,2.01-.67.2-1.44.04-2.17.04Z" fill="#d6d6d6"/><path d="M6.3,53.61c0-3.42.13-6.84-.04-10.25-.12-2.31,1.23-2.15,2.76-2.14,1.49.01,2.83-.23,2.79,2.11-.13,7.04.08,14.08-.09,21.12-.14,5.85-3.69,9.33-9.47,10.04-1.47.18-1.74-.56-1.63-1.51.12-1.05-1.67-2.75.39-3.07,5.07-.8,5.51-4.19,5.32-8.23-.12-2.69-.02-5.38-.02-8.08Z" fill="#d6d6d6"/><path d="M155.79,93.22c0,4.47-.12,8.94.05,13.4.08,2.09-1,2.16-2.47,2-1.27-.14-3.01.73-2.99-1.85.09-9.04.1-18.08,0-27.11-.03-2.37,1.38-2.02,2.84-2.09,1.66-.08,2.72.06,2.63,2.25-.18,4.46-.05,8.93-.05,13.4Z" fill="#d6d6d6"/><path d="M113.29,98.64c0-1.86.36-3.81-.07-5.57-.91-3.68,1.04-4.68,4.04-5.27,2.34-.46,4.65-1.12,7.05-.63.76.16,2.37-.34,1.94,1.15-.36,1.25.04,3.31-2.26,3.44-5.41.31-5.41.32-5.41,5.8,0,2.69-.11,5.39.03,8.07.11,2.08-.17,3.15-2.76,3.1-2.41-.05-2.7-.98-2.58-2.95.14-2.37.03-4.76.03-7.14,0,0-.02,0-.03,0Z" fill="#d6d6d6"/><path d="M218.91,62.79c.91-4.23,2.61-8.23,3.46-12.5.32-1.59-.08-3.34.9-4.8.47,8.91,3.21,17,8.65,24.16.51.66,2.37,1.49.54,2.63-1.27.79-2.36,2.48-4.32.87-3.62-2.99-7.03-6.13-9.24-10.35Z" fill="#d6d6d6"/><path d="M223.5,39.27c-.29-6.44.45-12.94-1.21-19.29,1.64-.13,2.34-1.59,3.42-2.48,3.22-2.64,6.72-4.85,10.38-6.81.91-.49,1.67-.6,2.46.3.88.99.13,1.48-.48,2.01-8.04,7.01-12.85,15.8-14.57,26.28Z" fill="#d6d6d6"/><path d="M171.5,36.19c1-9.82,4.74-17.88,11.4-24.74,1.11,5.92-5.42,20.28-11.4,24.74Z" fill="#d6d6d6"/><path d="M212.67,72.93c1.23-1.87,2.47-3.74,3.7-5.61,2.29,3.02,4.58,6.05,6.87,9.07-4.51,2.19-5.22,1.95-10.57-3.46Z" fill="#d6d6d6"/><path d="M221.46,13.25c-1.01-1.59-1.37-3.41-1.78-5.21,2.36-1.29,4.75-2.54,7.08-3.88,1.13-.65,2.18-.43,2.75.47.56.89-.6,1.36-1.14,1.9-2.29,2.25-4.6,4.48-6.91,6.71Z" fill="#d6d6d6"/></svg>