<?xml version="1.0" encoding="UTF-8"?><svg id="Corporate" xmlns="http://www.w3.org/2000/svg" width="359.99" height="73.1" viewBox="0 0 359.99 73.1"><path d="M90.54,21.46h19.01l7.01,26.7h.47c.34-2.22.67-4.58,1.28-6.74l5.73-19.96h18.81l8.36,50.84h-17.87l-2.5-27.84h-.33c-.34,1.68-.67,3.44-1.21,5.06l-7.35,22.79h-10.79l-6.61-21.51c-.54-2.16-1.01-4.18-1.15-6.34h-.61c-.13,2.02-.27,4.11-.47,6.13l-2.16,21.71h-17.87l8.23-50.84Z" fill="#d6d6d6"/><path d="M178.56,53.89l-2.16-8.97c-.54-2.16-.88-4.38-1.22-6.54h-.67l-3.37,15.51h7.42ZM166.36,72.3h-19.55l17.66-50.84h20.43l18.14,50.84h-19.55l-1.68-6.34h-13.96l-1.48,6.34Z" fill="#d6d6d6"/><path d="M253.26,42.36c-.14,8.29-.14,15.24-6.14,21.71-5.4,5.87-13.68,9.04-21.57,9.04-15.51,0-28.04-9.57-28.04-25.89s12.2-26.56,28.18-26.56c8.83,0,20.97,4.38,24.94,13.08l-17.26,6.34c-1.42-2.56-4.04-3.91-7.01-3.91-6.6,0-10.25,5.66-10.25,11.8,0,5.59,3.51,10.85,9.51,10.85,2.9,0,6.61-1.35,7.48-4.45h-8.36v-12h28.52Z" fill="#d6d6d6"/><path d="M254.64,21.46h17.73l16.58,28.18h.54c-.74-4.25-1.55-8.63-1.55-12.95v-15.24h17.66v50.84h-17.66l-16.25-26.7h-.54c.6,3.5,1.14,6.81,1.14,10.18v16.52h-17.67V21.46h0Z" fill="#d6d6d6"/><path d="M335.52,53.89l-2.16-8.97c-.54-2.16-.88-4.38-1.21-6.54h-.67l-3.37,15.51h7.42ZM323.31,72.3h-19.55l17.66-50.84h20.43l18.14,50.84h-19.55l-1.69-6.34h-13.96l-1.48,6.34Z" fill="#d6d6d6"/><polygon points="54.14 72.35 73.29 72.35 54.85 21.6 40.82 21.59 38.24 28.66 54.14 72.35" fill="#d6d6d6"/><path d="M41.15,0c-5.14,0-9.31,4.16-9.31,9.31s4.17,9.3,9.31,9.3,9.3-4.17,9.3-9.3S46.29,0,41.15,0" fill="#d6d6d6"/><polygon points="0 72.35 28.56 72.34 14.27 33.14 0 72.35" fill="#d6d6d6"/><polygon points="31.79 72.35 50.95 72.35 32.5 21.6 18.48 21.59 15.9 28.66 31.79 72.35" fill="#d6d6d6"/></svg>