<?xml version="1.0" encoding="UTF-8"?><svg id="Corporate" xmlns="http://www.w3.org/2000/svg" width="387.16" height="49.66" viewBox="0 0 387.16 49.66"><path d="M77.13,0c.12,1.25.61,2.41.96,3.6,4.45,15.06,8.92,30.12,13.38,45.18q.25.86-.67.86c-3.68,0-7.36-.02-11.04.02-.58,0-.82-.16-.97-.72-1.04-3.85-2.13-7.68-3.17-11.52-.14-.5-.34-.64-.86-.64-5.04.02-10.08.02-15.12,0-.57,0-.75.18-.89.71-1.01,3.83-2.07,7.64-3.1,11.47-.13.5-.31.71-.89.71-3.65-.03-7.31-.04-10.96,0-.72,0-.74-.19-.56-.79,4.76-16.04,9.51-32.09,14.25-48.14.07-.24.21-.46.13-.72h19.51ZM61.7,26.65c3.54,0,6.99-.01,10.44.01.59,0,.42-.27.33-.6-1.05-3.84-2.09-7.68-3.14-11.52-.21-.77-.15-1.84-.75-2.2-.59-.36-1.56-.1-2.37-.11-.03,0-.05,0-.08,0-.34-.05-.47.09-.56.42-1.27,4.63-2.56,9.26-3.88,13.99Z" fill="#d6d6d6"/><path d="M142.16,0c.87.3,1.8.27,2.7.44,4.07.81,7.66,2.46,10.19,5.89,2.48,3.36,3.13,7.22,2.92,11.27-.18,3.4-1.08,6.57-3.22,9.3-2.42,3.07-5.7,4.69-9.44,5.5-2,.43-4.04.56-6.08.57-3.17.01-6.35.02-9.52-.01-.57,0-.76.11-.75.72.03,5.07,0,10.15.03,15.22,0,.6-.17.74-.75.74-3.75-.03-7.51-.03-11.26,0-.68,0-.82-.17-.82-.83.02-16,.02-32,.01-48,0-.28-.01-.55-.02-.83,8.67,0,17.34,0,26.01,0ZM134.86,11.28c-2,0-3.66.02-5.32-.01-.48,0-.58.13-.58.59.02,3.14.03,6.28,0,9.42,0,.56.19.64.69.63,2.7-.02,5.39-.01,8.09-.01,1.19,0,2.37-.03,3.52-.34,1.22-.32,2.3-.88,2.99-2,2.11-3.43.2-7.53-3.76-8.11-1.98-.29-3.97-.1-5.63-.17Z" fill="#d6d6d6"/><path d="M344.06,0c-.27,1.68-.83,3.29-1.28,4.93-4,14.59-8.03,29.18-12.02,43.77-.2.73-.47.96-1.25.96-6.3-.04-12.6-.03-18.9-.01-.55,0-.76-.15-.91-.69-4.44-16.11-8.9-32.21-13.36-48.31-.06-.21-.18-.42-.07-.65C300.71,0,305.14,0,309.58,0c0,.1,0,.2.03.3,2.88,11.62,5.75,23.24,8.65,34.86.19.74.1,1.78.68,2.14.57.35,1.51.07,2.29.12.45.02.65-.1.77-.57,1.39-5.74,2.81-11.48,4.22-17.22,1.61-6.54,3.23-13.08,4.84-19.62,4.34,0,8.67,0,13.01,0Z" fill="#d6d6d6"/><path d="M223.83,0c0,3.57-.02,7.13.01,10.7,0,.61-.17.74-.75.73-4.41-.02-8.82,0-13.23-.03-.59,0-.74.14-.74.73.02,12.21,0,24.42.03,36.62,0,.74-.19.9-.91.89-3.73-.04-7.46-.03-11.19,0-.6,0-.74-.16-.74-.75.02-12.21,0-24.42.03-36.62,0-.74-.19-.89-.9-.88-4.33.04-8.67,0-13,.03-.6,0-.75-.16-.75-.75.03-3.29.02-6.58,0-9.87,0-.27.07-.55-.07-.81h42.19Z" fill="#d6d6d6"/><path d="M266.48,0c0,.3-.02.6-.02.9,0,15.95,0,31.9.02,47.85,0,.73-.17.91-.9.9-3.7-.04-7.41-.04-11.11,0-.67,0-.82-.16-.82-.82.02-15.98.02-31.95.02-47.93,0-.3-.02-.6-.03-.9,4.29,0,8.57,0,12.86,0Z" fill="#d6d6d6"/><path d="M0,21.11c.26-.21.22-.54.29-.81,1.22-4.6,5.9-7.49,10.68-6.57,4.65.89,7.86,5.25,7.31,9.93-.51,4.34-4.08,7.6-8.71,7.94-4.11.31-8.19-2.67-9.27-6.73-.08-.3-.04-.65-.3-.9v-2.86Z" fill="#d6d6d6"/><path d="M368.84,22.56c0-4.98,4.07-9,9.12-9.01,5.08-.01,9.2,4.03,9.2,9.02,0,4.95-4.1,9-9.14,9.03-5.04.03-9.18-4.04-9.19-9.04Z" fill="#d6d6d6"/></svg>