<?xml version="1.0" encoding="UTF-8"?><svg id="Corporate" xmlns="http://www.w3.org/2000/svg" width="93.29mm" height="41.84mm" viewBox="0 0 264.44 118.61"><path d="M118.69,59.47c-.16,33.04-26.83,59.3-60.03,59.14C26.12,118.44-.19,91.64,0,58.84.19,26.15,27.02-.22,59.87,0c32.47.22,58.99,27.03,58.83,59.47ZM115.82,59.42c.04-31.12-25.24-56.53-56.31-56.61C28.25,2.72,2.82,28.02,2.79,59.23c-.03,31.16,25.2,56.52,56.31,56.59,31.3.07,56.67-25.16,56.71-56.4Z" fill="#5b5b5b"/><path d="M175.32,90.15c-6.21,4.44-11.91.19-12.31-6.01-.1-1.6-.08-3.18.24-4.78,1.16-5.96,7.72-8.27,11.99-4.61.56-1.48,1.67-1.92,3.11-1.54,1.59.41,1.19,1.75,1.2,2.83.03,4.8.04,9.6,0,14.4-.05,7.84-6.35,11.89-13.51,8.7-1.18-.53-2.6-1.11-1.85-2.82.73-1.65,2.01-1.15,3.29-.59,5.04,2.2,8.08.1,7.84-5.57ZM175.4,82.67s.08,0,.12,0c-.05-.91,0-1.84-.17-2.72-.36-1.89-1.47-3.2-3.47-3.41-2.07-.22-3.58.71-4.27,2.67-.84,2.37-.83,4.79.22,7.11.84,1.85,2.41,2.42,4.34,2.18,1.96-.25,2.93-1.5,3.21-3.32.13-.82.02-1.67.02-2.5Z" fill="#5b5b5b"/><path d="M260.18,90.1c-6.5,4.93-12.39-.33-12.35-6.62,0-1.14-.02-2.3.14-3.43.94-6.76,7.85-8.99,12.12-5.31.55-1.47,1.65-1.91,3.08-1.55,1.59.4,1.23,1.72,1.24,2.81.02,4.88.05,9.77,0,14.65-.08,7.66-6.48,11.65-13.54,8.46-1.19-.54-2.59-1.14-1.83-2.84.74-1.65,2.03-1.12,3.31-.56,5.06,2.21,8.19-.05,7.83-5.63ZM260.26,82.58s0,0,.01,0c0-.76.08-1.53-.01-2.28-.26-2.16-1.68-3.65-3.62-3.79-2.21-.16-3.66.91-4.29,2.98-.68,2.24-.69,4.52.25,6.69.84,1.94,2.47,2.59,4.5,2.29,1.95-.29,2.88-1.58,3.15-3.4.12-.82.02-1.67.02-2.5Z" fill="#5b5b5b"/><path d="M188.84,75.4c.86-.65,1.25-.98,1.68-1.26,4.08-2.68,9.09-.68,9.81,4.13.62,4.15.19,8.37.18,12.57,0,1.4-1.02,1.72-2.23,1.68-1.2-.04-1.84-.63-1.84-1.85,0-3.2.02-6.41-.01-9.61-.03-2.65-.99-3.96-2.96-4.16-2.3-.24-4.17,1.1-4.4,3.65-.29,3.1-.2,6.24-.22,9.37,0,1.44-.21,2.6-2.05,2.62-1.81.02-2.12-1.09-2.11-2.56.02-7.63.02-15.26,0-22.88,0-1.47.29-2.56,2.11-2.56,1.86,0,2.06,1.14,2.05,2.58-.03,2.58,0,5.17,0,8.3Z" fill="#5b5b5b"/><path d="M232.35,75.47c2.63-2.48,5.25-3.16,8.13-1.84,2.93,1.34,3.46,4.04,3.48,6.91.02,3.2,0,6.4,0,9.6,0,1.4-.37,2.38-2.04,2.39-1.62,0-2.12-.88-2.11-2.32.01-3.05.03-6.1,0-9.15-.03-2.81-1.01-4.06-3.15-4.18-2.39-.13-4.13,1.36-4.3,4.06-.19,3.11-.1,6.25-.09,9.37,0,1.23-.36,2.08-1.74,2.2-1.82.16-2.42-.74-2.4-2.46.05-4.8.02-9.6.01-14.41,0-1.19-.03-2.37,1.59-2.52,1.5-.14,2.62.23,2.6,2.34Z" fill="#5b5b5b"/><path d="M155.34,39.95c0,.38,0,.76,0,1.14,0,4.72-.92,5.78-5.65,6.52-7.27,1.14-12.27-2.4-13.51-9.62-.58-3.39-.3-6.71,1.23-9.84,2.86-5.88,10.6-8.08,16.09-4.6.78.49,1.75,1.01,1.08,2.13-.63,1.05-1.42.38-2.16-.02-6.53-3.53-12.77-.39-13.91,6.97-.27,1.76-.23,3.49.07,5.24,1.13,6.43,7.02,9.55,13.01,6.93.97-.43,1.49-1,1.38-2.08-.02-.23,0-.46,0-.69-.03-1.68.54-3.75-.25-4.92-.88-1.31-3.11-.33-4.74-.49-.81-.08-1.62-.09-1.66-1.13-.04-1.03.7-1.22,1.55-1.21.61.01,1.22,0,1.83,0q5.64,0,5.64,5.66Z" fill="#5b5b5b"/><path d="M161.43,35.01c0-3.2.01-6.41,0-9.61,0-2.07.94-3.11,3.06-3.08,2.98.03,5.96,0,8.94,0,.87,0,1.84,0,1.8,1.19-.03,1.17-1.01,1.14-1.87,1.14-2.52,0-5.04.07-7.56-.02-1.43-.05-2.14.31-2,1.89.18,2.11-.85,4.81.39,6.2,1.28,1.43,4.03.31,6.13.48.76.06,1.53,0,2.29.02.76.02,1.38.25,1.38,1.16,0,.9-.62,1.16-1.38,1.17-2.37.02-4.74.07-7.1,0-1.26-.04-1.79.31-1.72,1.65.1,2.05.11,4.12,0,6.17-.08,1.46.54,1.82,1.87,1.78,2.52-.08,5.04-.04,7.56-.01.89,0,2.04-.16,2,1.22-.04,1.14-1.02,1.14-1.89,1.14-2.98,0-5.96-.02-8.94,0-2.14.02-3.02-1.03-2.98-3.12.06-3.13.02-6.25.02-9.38Z" fill="#5b5b5b"/><path d="M206.56,83c0-1.14.01-2.29,0-3.43-.02-1.37.48-3.02-1.96-2.84-.9.06-1.13-.88-1.12-1.7,0-.74.25-1.6,1.03-1.54,2.55.19,2.06-1.54,2.05-2.99,0-1.26-.08-2.53,1.68-2.68,1.77-.15,2.66.64,2.4,2.41-.35,2.37.3,3.6,2.97,3.14,1.22-.21,2.09.32,2.07,1.75-.02,1.43-.93,1.91-2.13,1.72-2.45-.38-3.15.63-2.94,2.97.2,2.19.04,4.42.05,6.63.01,1.86.78,2.75,2.74,2.08,1.13-.39,2.15-.4,2.62.94.5,1.43-.4,2.1-1.54,2.6-4.27,1.85-7.79-.34-7.92-4.95-.04-1.37,0-2.74,0-4.12Z" fill="#5b5b5b"/><path d="M137.3,79.02c0-3.05,0-6.09,0-9.14,0-1.48-.15-3.01,2.05-3.07,2.22-.06,2.12,1.44,2.11,2.95-.01,5.48.06,10.97-.04,16.45-.03,1.71.48,2.3,2.2,2.18,2.05-.14,4.12-.03,6.18-.02,1.25,0,2.05.53,2.08,1.88.03,1.36-.74,1.94-2,1.94-3.2.01-6.41.05-9.61-.04-2.04-.06-2.97-1.32-2.97-3.31,0-3.28,0-6.55,0-9.83Z" fill="#5b5b5b"/><path d="M159.03,82.81c0,2.52-.02,5.03,0,7.55.02,1.41-.57,2.14-2.02,2.16-1.45.02-2.1-.69-2.09-2.09,0-5.11.01-10.22,0-15.33,0-1.48.76-2.03,2.15-2.02,1.48.01,2,.78,1.98,2.18-.04,2.52-.01,5.03-.01,7.55Z" fill="#5b5b5b"/><path d="M218.94,82.78c0-2.52.04-5.03-.02-7.55-.03-1.44.56-2.13,2.01-2.13,1.39,0,2.13.56,2.13,2.04-.03,5.11-.01,10.22,0,15.33,0,1.45-.76,2.05-2.15,2.05-1.49,0-1.99-.81-1.97-2.19.04-2.52,0-5.03,0-7.55Z" fill="#5b5b5b"/><path d="M223.27,67.91c-.13,1.39-.86,2.21-2.31,2.21-1.36,0-2.14-.82-2.2-2.09-.07-1.4.76-2.34,2.17-2.38,1.4-.04,2.19.83,2.35,2.26Z" fill="#5b5b5b"/><path d="M157.12,70.18c-1.54-.15-2.38-.9-2.35-2.34.03-1.32.86-2.15,2.14-2.19,1.4-.04,2.3.79,2.35,2.21.05,1.46-.89,2.13-2.13,2.32Z" fill="#5b5b5b"/><path d="M110.58,70.88c.49-3.99.93-7.96.14-11.96-.38-1.89-.98-3.69-2.18-5.23-1.84-2.36-4.68-2.99-6.64-1.49-1.84,1.41-2.13,4.35-.26,6.57,2.84,3.37,4.57,7.11,4.28,11.5-.85,13.1-5.62,24.34-16.42,32.39-10.41,7.76-22.33,10.27-35.1,9.33-3.85-.28-7.67-.78-11.24-2.45,3.49.61,6.96,1.37,10.52,1.46,3,.07,5.97.04,8.81-1.08,1.59-.63,3.06-1.47,3.96-2.98,1.08-1.81,1.13-3.68-.36-5.28-1.42-1.52-3.19-1.69-5.04-.81-.48.23-.97.5-1.34.87-4.63,4.61-10.34,4.91-16.26,3.88-20.27-3.52-34.1-18.23-36.55-38.65-.6-5-.75-9.97.22-14.93.64,2.41.16,4.91.68,7.33.47,2.2,1.07,4.31,2.6,6.01,1.86,2.08,4.5,2.47,6.35,1.01,1.8-1.41,2.22-4.05.37-6.13-5.17-5.84-4.96-12.46-3.45-19.42C18.65,18,36.87,8.8,52.96,6.83c5.44-.67,10.83-.49,16.21.51.4.07.96-.09,1.17.77-2.61-.33-5.16-.54-7.71-.51-2.55.03-5.03.38-7.34,1.53-1.54.77-2.85,1.79-3.51,3.45-.61,1.53-.52,3.02.59,4.29,1.1,1.27,2.57,1.66,4.16,1.26.79-.2,1.65-.56,2.23-1.1,5.31-4.98,11.6-4.93,18.09-3.53,19.29,4.17,31.96,17.93,34.73,37.55.82,5.79.88,11.56-.02,17.33-.14.87-.19,1.77-.98,2.48ZM49.96,55.84c.37,1.9-.48,2.81-1.95,3.57-5.23,2.7-10.45,5.43-14.89,9.38-3.17,2.82-5.43,6.19-6.18,10.43-1.08,6.06,2.98,10.98,9.1,11.1,3.8.08,7.02-1.29,9.79-3.8,2.9-2.62,4.8-5.91,6.13-9.54,1.68-4.57,2.1-9.37,2.31-14.17.06-1.36.47-2.2,1.71-2.9,4.21-2.34,8.26-4.95,12.14-7.8.86-.63,1.39-.89,2.19.18.98,1.3-.23,1.4-.8,1.76-7.35,4.7-10.52,11.44-9.78,20.05.9,10.44,9.77,17.38,19.96,15.65,10.55-1.79,16.25-14.18,10.57-23.01-3.8-5.91-12.32-6.52-16.7-1.19-2.96,3.6-2.48,9.55,1.02,11.88,1.39.93,3.04,1.59,4.41.24,1.46-1.44.34-2.78-.72-3.97-.15-.17-.3-.35-.43-.53-.89-1.3-1.1-2.71-.41-4.12.74-1.51,2.09-2.17,3.75-2.19,2.29-.04,4.14,1.39,5.1,3.91,1.83,4.77-.18,10.5-4.53,12.95-4.29,2.41-9.63,1.21-12.94-2.91-5.23-6.51-3.81-17.84,2.87-22.86,2.01-1.51,4.13-2.52,6.8-2.04,1.18.21,2.45.08,3.65-.08,1.38-.18,2.88-.53,2.98-2.29.11-1.91-1.47-2.34-2.89-2.66-1.73-.38-3.51-.35-5.22.2-1.74.55-2.3-.73-3.01-1.78-.83-1.24.42-1.58,1.04-2.09,2.64-2.21,5.25-4.45,7.27-7.27,1.49-2.09,2.56-4.35,2.62-6.96.07-3.03-1.62-5.21-4.52-5.72-3.25-.57-5.84.84-7.98,3.11-3.16,3.36-5.23,7.51-4.78,12.01.45,4.49-1.54,6.71-5,8.5-.27.14-.51.33-.77.49-2.29,1.42-4.58,2.84-7.13,4.42-.03-2.82.29-4.95,2.06-6.77,1.38-1.42,2.51-3.1,2.94-5.1.2-.92.19-1.87-.64-2.53-.9-.71-1.88-.49-2.81-.03-.98.49-1.72,1.26-2.34,2.15-1.01,1.46-1.68,3.06-2.17,4.77-.7,2.39-4.51,5.22-6.95,5.25-1.28.02-2.31-.54-2.65-1.76-.33-1.19.96-1.15,1.59-1.51,3.73-2.14,6.69-5.06,8.97-8.67,1.73-2.75,2.96-5.7,2.89-9.03-.06-3.22-1.95-5.05-5.19-5.16-3.27-.11-5.71,1.52-7.76,3.8-3.47,3.87-5.38,8.46-6,13.61-.08.7.24,1.75-.68,1.98-.99.24-1.68-.55-2.2-1.34-.79-1.21-.97-2.57-.84-3.96.11-1.21.4-2.4.59-3.61.11-.69.18-1.4-.5-1.87-.75-.52-1.49-.26-2.13.2-.48.35-.92.82-1.24,1.32-3.21,5.12-.42,12.27,5.42,13.8,1.03.27,1.67.65,2.16,1.69,1.85,3.96,5.03,5.38,9.23,4.2,1.16-.32,2.25-.89,3.47-1.38Z" fill="#5b5b5b"/><path d="M9.24,43.41c-.42,1.81-.84,3.61-1.25,5.42-.41-2.01.37-3.75,1.25-5.42Z" fill="#5b5b5b"/><path d="M75.37,9.46c-1.32-.38-2.64-.77-3.96-1.15,1.49-.22,2.8.15,3.96,1.15Z" fill="#5b5b5b"/><path d="M49.27,63.63c-.91,6.38-1.97,12.12-5.39,17.1-1.81,2.63-4.21,4.4-7.55,4.5-2.53.08-4.01-1.32-4.1-3.85-.09-2.4.86-4.47,2.24-6.34,3.71-5.04,8.87-8.21,14.81-11.41Z" fill="#5b5b5b"/><path d="M41.33,46.68c.74-5.49,2.42-9.81,5.61-13.47.83-.95,1.89-2.09,3.31-1.19,1.41.89.86,2.32.38,3.5-1.81,4.48-4.85,7.96-9.3,11.16Z" fill="#5b5b5b"/><path d="M72.5,43.82c.24-4.61,1.37-8.17,4.11-11.08.79-.84,1.79-1.7,3-.88,1.25.85.69,2.08.19,3.1-1.62,3.34-4.17,5.92-7.3,8.87Z" fill="#5b5b5b"/></svg>