<?xml version="1.0" encoding="UTF-8"?><svg id="Corporate" xmlns="http://www.w3.org/2000/svg" width="109.85" height="109.89" viewBox="0 0 109.85 109.89"><path d="M96.06,0c.98.25,1.96.5,2.94.74,5.71,1.4,9.82,5.95,10.55,11.76.18,1.47.29,2.96.29,4.45.02,25.94.02,51.89,0,77.83,0,7.4-4.2,12.96-11.08,14.62-1.29.31-2.64.46-3.96.47-26.58.03-53.17.04-79.75,0-8.9,0-15.03-6.19-15.04-15.1-.01-26.51-.01-53.02,0-79.53C.01,7.24,4.95,1.55,12.82.39,13.16.34,13.47.13,13.8,0,41.22,0,68.64,0,96.06,0ZM54.91,103.31c12.98,0,25.97,0,38.95,0,4.82,0,7.98-2.26,8.96-6.43.29-1.24.38-2.54.38-3.82.02-17.97.02-35.93.02-53.9,0-7.57.02-15.13,0-22.7-.01-4.73-1.93-7.94-5.55-9.01-1.6-.47-3.34-.67-5.01-.67-20.45-.04-40.91-.03-61.36-.03-4.95,0-9.89-.04-14.84.01-5.29.05-8.45,2.21-9.42,6.47-.28,1.24-.39,2.54-.39,3.82-.02,25.28-.02,50.55-.02,75.83,0,.46-.01.93.01,1.39.23,4.67,2.29,7.61,6.13,8.58,1.18.3,2.44.44,3.66.44,12.83.03,25.66.02,38.49.02Z" fill="#d6d6d6"/><path d="M50.34,47.58c0-5.66.04-11.32-.03-16.99-.02-1.44.45-1.84,1.85-1.83,9.53.05,19.06.01,28.59.03,5.47.01,8.67,3.28,8.67,8.79,0,9.06-.03,18.12.04,27.18.01,1.54-.49,1.97-1.94,1.86-1.43-.11-2.89-.1-4.32,0-1.25.08-1.58-.38-1.58-1.59.04-8.6.03-17.19.02-25.79,0-2.9-.97-3.84-3.91-3.85q-4.08,0-4.08,4.11c0,8.44-.03,16.88.03,25.32.01,1.46-.43,1.91-1.85,1.8-1.33-.11-2.68-.11-4.01,0-1.38.11-1.76-.41-1.75-1.75.05-8.9.03-17.81.03-26.71,0-.51-.02-1.03,0-1.54.03-.92-.4-1.26-1.32-1.23-1.75.05-3.51.09-5.25-.01-1.32-.08-1.65.44-1.65,1.69.04,8.39.02,16.78.02,25.17,0,.93-.06,1.86.01,2.78.09,1.16-.25,1.71-1.54,1.62-1.49-.1-2.99-.1-4.48,0-1.26.09-1.59-.42-1.58-1.6.04-5.82.02-11.63.02-17.45Z" fill="#d6d6d6"/><path d="M43.74,50.29c0,6.02-.1,12.05.03,18.07.13,6.62-4.11,11.98-11.94,12.78-1.84.19-3.69.19-5.54.31-.96.06-1.28-.35-1.25-1.27.05-1.39.06-2.78,0-4.17-.05-1.07.33-1.44,1.42-1.44,1.69,0,3.42.02,5.05-.34,3.09-.68,4.63-2.9,4.68-6.04.02-1.16-.28-1.64-1.56-1.62-2.31.03-4.64,0-6.93-.25-4.25-.47-7.22-3.74-7.26-8.03-.07-7.1-.08-14.21,0-21.31.05-4.76,3.47-8.1,8.27-8.17,4.43-.06,8.86.03,13.29-.05,1.35-.02,1.78.4,1.77,1.76-.06,6.59-.03,13.18-.03,19.77ZM36.19,47.75c0-3.65-.03-7.3.02-10.95.01-1.06-.31-1.49-1.4-1.42-1.18.08-2.37-.01-3.55.03-1.82.06-3.03,1.19-3.04,2.99-.03,6.12-.03,12.24,0,18.35,0,1.6.98,2.74,2.57,2.98,1.26.19,2.55.17,3.83.27,1.19.09,1.62-.4,1.6-1.61-.06-3.55-.02-7.09-.02-10.64Z" fill="#d6d6d6"/><path d="M69.94,81.44c-5.97,0-11.94-.03-17.91.02-1.25.01-1.8-.31-1.7-1.63.09-1.28.07-2.57,0-3.86-.05-1.1.41-1.4,1.46-1.4,12.1.03,24.19.03,36.29,0,.98,0,1.42.28,1.37,1.32-.06,1.33-.09,2.68,0,4.01.09,1.26-.41,1.57-1.6,1.56-5.97-.05-11.94-.02-17.91-.02Z" fill="#d6d6d6"/></svg>