<?xml version="1.0" encoding="UTF-8"?><svg id="Corporate" xmlns="http://www.w3.org/2000/svg" width="111.78mm" height="14.16mm" viewBox="0 0 316.86 40.13"><path d="M91.79,40.13c-1.51-.81-3.13-.21-4.7-.34-1.61-.13-3.77.52-4.7-.29-1.08-.94-.31-3.13-.34-4.78-.06-3.28-.04-6.56,0-9.84.01-.99-.26-1.78-.83-2.61-5-7.34-9.95-14.71-15.03-22.24,4.96,0,9.75.02,14.54-.02,1.12,0,1.26.89,1.65,1.53,2.08,3.37,4.12,6.76,6.27,10.31,1.35-1.07,1.89-2.64,2.74-3.95,1.43-2.21,2.71-4.51,3.99-6.8.47-.84,1.11-1.08,2.03-1.08,8.61.02,17.22.04,25.82-.02,1.16,0,1.64.48,2.15,1.39,1.75,3.15,3.6,6.25,5.49,9.5,1.85-3.24,3.62-6.24,5.29-9.3.58-1.07,1.19-1.62,2.54-1.59,4.39.1,8.78.04,13.42.04-2.57,3.95-5.07,7.75-7.52,11.57-1.42,2.21-2.72,4.51-4.2,6.68-.76,1.12-.39,1.86.27,2.83,4.15,6.12,8.25,12.29,12.5,18.64-4.11,0-8-.02-11.89.02-.6,0-1.32-.37-1.81.34h-1.08c-.78-.53-1.32-1.22-1.82-2.03-1.93-3.15-3.71-6.4-5.97-9.47-1.96,3.17-3.89,6.17-5.68,9.27-.74,1.28-1.47,1.98-3.12,1.93-4.39-.14-8.78-.05-13.19-.05-.03-.72.37-1.27.72-1.76,4.06-5.58,7.63-11.49,11.57-17.15.84-1.21.88-2.03.06-3.23-3.28-4.84-6.49-9.71-9.63-14.63-.84-1.32-1.13-1.15-1.91.04-3.91,5.9-7.85,11.79-11.95,17.56-1.24,1.74-1.85,3.4-1.77,5.52.14,3.57-.02,7.15.06,10.72.04,1.67.22,3.27-2.17,3.29h-1.81Z" fill="#5b5b5b"/><path d="M316.86,38.7c-53.04,0-106.07,0-159.11.03-1.39,0-2.25-.28-2.94-1.63-1.17-2.26-2.89-4.21-4.05-6.63h166.1v8.23Z" fill="#5b5b5b"/><path d="M30.38,40.13c-.95-.77-2.06-.27-3.08-.33-.84-.04-1.28-.11-1.28-1.14.04-12.52.03-25.03,0-37.55,0-.89.31-1.09,1.14-1.08,3.49.04,6.98.02,10.47,0,.58,0,.89.15,1.25.68,3.73,5.46,7.55,10.86,11.28,16.33.4.59.97,1.01,1.53,1.63,0-2.22,0-4.44,0-6.65,0-3.58.04-7.15-.02-10.73-.02-1.03.32-1.29,1.32-1.28,3.49.06,6.98.06,10.47,0,1.08-.02,1.26.38,1.26,1.33-.03,12.34-.04,24.68.01,37.02,0,1.25-.44,1.45-1.54,1.42-3.13-.06-6.26-.08-9.39,0-1.36.04-2.16-.43-2.91-1.54-3.78-5.59-7.64-11.12-11.48-16.67-.05-.07-.14-.12-.36-.3,0,5.24-.03,10.34.02,15.43.02,1.67.29,3.37-2.19,3.42h-6.5Z" fill="#5b5b5b"/><path d="M.03,40.13c0-12.81.02-25.63-.03-38.44C0,.37.28-.08,1.66.01c2.04.13,4.1.13,6.13,0,1.39-.09,1.67.36,1.66,1.67-.05,12.81-.03,25.63-.03,38.44H.03Z" fill="#5b5b5b"/><path d="M12.68,40.13c0-12.81.02-25.63-.03-38.44,0-1.31.28-1.76,1.66-1.67,2.04.13,4.1.13,6.13,0,1.39-.09,1.67.36,1.66,1.67-.05,12.81-.03,25.63-.03,38.44h-9.39Z" fill="#5b5b5b"/></svg>