<?xml version="1.0" encoding="UTF-8"?><svg id="Corporate" xmlns="http://www.w3.org/2000/svg" width="83.41mm" height="36.42mm" viewBox="0 0 236.45 103.23"><path d="M211.14,37.1c-.07,1.96-.14,3.92-.21,5.88-.93,1.38-.56,3.03-.85,4.54-.8,4.03-2.41,7.81-3.27,11.8-1.29,1.16-1.67,2.82-2.4,4.28-1.17,1.77-2.33,3.53-3.5,5.3-.3.25-.63.46-.88.74-4.5,5.03-5.78,5.32-12.12,2.93-1.19-.45-1.75-.73-.67-1.92,12-13.14,15.46-29.26,16.41-46.33.46-8.16-.52-16.22-.9-24.32h1.77c1.52,2.33,2.1,5.03,3.02,7.6.39,1.7.73,3.41,1.68,4.92-.32,2.19.77,4.21.78,6.35,1.57,6,.88,12.14,1.15,18.23Z" fill="#5b5b5b"/><path d="M196.83,0c2.08,8.68,3.62,17.44,3.29,26.42-.53,14.37-4.4,27.4-15.2,37.64-1.21,1.14-2.59,2.11-3.81,3.24-1.2,1.12-2.17,1.15-3.57.13-3.99-2.88-4.01-2.78-.64-6.28,7.94-8.26,12-18.46,14.58-29.35,2.47-10.45,3.17-21.09,2.99-31.79h2.36Z" fill="#5b5b5b"/><path d="M236.45,44.18c-1.77,3.63-2.14,7.88-4.75,11.2-4.28-4.69-5.02-13.34-1.77-19.88.97-1.95,2.3-3.63,3.68-5.3,1.34-1.62,2.13-1.3,2.84.43v13.55Z" fill="#5b5b5b"/><path d="M189.85,15.8c-.16,13.78-3.28,26.56-12.77,37.17-1.84,2.06-4.01,3.74-6.26,5.35-1.13.81-1.75.66-2.58-.5-2.41-3.36-2.48-3.35.38-6.41,9.62-10.28,14.11-22.87,16.37-36.42.61-3.66.89-7.38,1.27-11.08.1-1,.02-2.11,1.42-2.11,1.38,0,.97,1.31,1.12,2.02.86,3.94,1.15,7.94,1.05,11.99Z" fill="#5b5b5b"/><path d="M215.06,39.65c.13-7.42,5.25-15.06,13.94-20.6.79-.5,1.67-1.66,2.79-.34,1,1.17.09,1.93-.52,2.81-6.78,9.82-8.88,20.53-6,32.14.45,1.79.98,3.67,1.95,5.21,1.4,2.22-.08,3.32-1.38,4.38-1.61,1.31-2.2-.55-2.92-1.36-4.85-5.44-7.9-11.65-7.86-22.22Z" fill="#5b5b5b"/><path d="M54.85,58.48c0,1.57-.09,3.14.02,4.7.13,1.9-.04,3-2.55,3.01-2.65,0-2.49-1.36-2.46-3.11.05-3.04.04-6.08-.01-9.12-.04-2.35-.92-4.02-3.65-3.95-3.07.08-4.15,1.19-4.16,4.22,0,3.24-.13,6.48.05,9.7.11,2-.78,2.29-2.43,2.17-1.35-.1-2.66.3-2.62-1.97.13-8.43.12-16.86,0-25.29-.03-2.11,1.05-2.07,2.55-2.1,1.58-.03,2.79.12,2.45,2.16-.03.19,0,.39,0,.59.02,2.16-.73,4.81.26,6.33,1.06,1.63,3.6-.31,5.55-.24,4.15.14,6.66,2.28,6.96,6.43.15,2.15.03,4.31.03,6.47,0,0,.01,0,.02,0Z" fill="#5b5b5b"/><path d="M25.96,88.93c-.06-10.6,8.87-16.91,19.99-12.75.97.36,1.61.81.87,1.89-.64.92-.17,2.79-2.16,2.56-.38-.04-.72-.31-1.09-.42-4.96-1.48-8.14-.74-10.37,2.39-2.39,3.35-2.33,9,.12,12.52,2.07,2.97,6.09,4.21,10.35,3.08,1.34-.36,2.46-1.19,3.12,1.01.5,1.67.37,2.35-1.38,2.99-9.99,3.68-19.47-2.74-19.45-13.25Z" fill="#5b5b5b"/><path d="M14.03,56.01c.02-6.19,3.97-10.32,9.92-10.39,5.97-.07,10.2,4.28,10.2,10.48,0,6.3-4.05,10.49-10.14,10.47-6.1-.01-10-4.14-9.98-10.57ZM19.46,56.44c-.07,1.7.27,3.74,2.11,5.06,1.93,1.38,3.92,1.15,5.58-.54,1.9-1.93,1.97-7.15.18-9.34-1.53-1.87-3.5-2.2-5.5-.99-1.94,1.18-2.37,3.23-2.38,5.8Z" fill="#5b5b5b"/><path d="M68.05,92.68c0,6.41-3.9,10.44-10.1,10.42-5.97-.02-9.99-4.14-10.03-10.28-.04-6.27,4.05-10.61,10.05-10.67,6.03-.06,10.07,4.16,10.08,10.53ZM62.61,92.68c.11-1.94-.34-3.72-1.77-5.09-1.6-1.54-4.27-1.38-5.82.25-2.09,2.19-2.07,7.66.03,9.79,1.59,1.62,4.2,1.73,5.83.15,1.42-1.38,1.86-3.16,1.74-5.1Z" fill="#5b5b5b"/><path d="M129.27,103.1c-6.08-.02-10.06-4.24-9.99-10.59.07-6.13,4.15-10.36,10.01-10.36,5.98,0,10.22,4.38,10.2,10.54-.02,6.28-4.1,10.44-10.22,10.41ZM129.27,86.54c-2.86.05-4.62,2.52-4.55,6.38.07,3.66,1.93,6.04,4.68,5.96,2.74-.07,4.63-2.55,4.65-6.1.02-3.69-1.97-6.29-4.78-6.25Z" fill="#5b5b5b"/><path d="M115.84,56.11c.02,6.28-4.06,10.49-10.14,10.47-5.97-.02-10.01-4.14-10.07-10.27-.06-6.25,4.04-10.61,10.02-10.68,6-.07,10.16,4.22,10.18,10.49ZM110.4,56.15c-.02-3.82-1.92-6.24-4.81-6.15-2.72.09-4.51,2.53-4.51,6.17,0,3.71,2,6.27,4.83,6.16,2.74-.1,4.5-2.54,4.49-6.18Z" fill="#5b5b5b"/><path d="M180.9,5.04c.58,15.11-1.75,29.05-13.44,39.9-.14.13-.28.29-.45.38-1.2.68-2.01,2.4-3.63,1.84-.96-.33-1.11-5.05-.26-6.08,8.1-9.86,12.69-21.3,15.45-33.6.24-1.05.46-2.15,2.32-2.45Z" fill="#5b5b5b"/><path d="M118.78,56.68c0-2.35.11-4.71-.04-7.05-.1-1.52.27-2.25,1.86-2.69,3.34-.94,6.66-1.66,10.14-1.02,3.64.67,5.62,2.72,5.75,6.36.14,4.01-.07,8.03.1,12.04.09,2.18-1.26,1.74-2.47,1.76-1.35.02-2.79.36-2.69-1.91.15-3.32.03-6.66.04-9.99,0-1.54-.21-2.97-1.8-3.71-1.73-.81-3.46-.45-5.14.21-1,.39-.65,1.32-.66,2.04-.03,3.62-.15,7.25.03,10.87.11,2.17-.74,2.57-2.7,2.57-1.89,0-2.61-.45-2.46-2.43.18-2.34.04-4.7.04-7.05Z" fill="#5b5b5b"/><path d="M70.89,93.06c0-1.67.24-3.38-.05-5-.6-3.34.76-4.88,4.02-5.18,1.56-.14,3.1-.62,4.66-.71,6.29-.34,9.11,2.36,9.13,8.63.01,3.24-.14,6.49.05,9.71.13,2.09-.89,2.16-2.46,2.12-1.58-.04-2.87.09-2.72-2.24.21-3.32.05-6.67.05-10.01,0-1.46-.39-2.71-1.87-3.37-1.76-.78-3.48-.48-5.15.22-.97.4-.56,1.37-.57,2.08-.04,3.73-.16,7.47.03,11.18.13,2.45-1.36,2.01-2.82,2.13-1.74.15-2.49-.31-2.35-2.22.18-2.44.04-4.9.04-7.36Z" fill="#5b5b5b"/><path d="M58.72,56.39c0-1.96.32-3.99-.08-5.87-.52-2.44.43-3.34,2.59-3.86,3.18-.77,6.33-1.36,9.61-.73,3.46.67,5.37,2.73,5.46,6.26.1,4.02-.07,8.04.07,12.06.07,2.05-1.13,1.88-2.43,1.83-1.22-.04-2.59.41-2.49-1.75.15-3.33.11-6.67.02-10-.11-3.81-3.52-5.59-6.91-3.79-1.12.6-.8,1.46-.81,2.26-.04,3.73-.14,7.46.03,11.17.1,2.08-.94,2.16-2.5,2.13-1.5-.02-2.7.05-2.56-2.08.16-2.54.04-5.1.04-7.65,0,0-.01,0-.02,0Z" fill="#5b5b5b"/><path d="M85.41,66.72c-1.35-.23-2.72-.38-4.04-.72-1.08-.28-2.79-.09-1.92-2.26.61-1.52,1.04-2.79,3.01-1.7.34.18.74.32,1.12.34,1.61.08,3.67.8,4.36-1.27.73-2.19-1.41-2.64-2.85-3.39-1.13-.59-2.35-1.05-3.36-1.79-3.29-2.43-3.03-7,.52-9.05,3.03-1.74,6.21-1.42,9.41-.47,1.05.31,1.23.89.68,1.72-.56.83.04,2.64-1.91,2.31-1.16-.19-2.31-.51-3.47-.57-.97-.05-2.05.13-2.26,1.39-.17,1.05.56,1.62,1.39,2,.89.41,1.82.71,2.73,1.09,3.74,1.54,5.31,3.89,4.78,7.12-.46,2.87-2.99,4.79-6.7,5.08-.49.04-.98,0-1.47,0l-.03.16Z" fill="#5b5b5b"/><path d="M156.21,103.09c-1.39.07-2.74-.09-4.07-.51-1.13-.36-2.74-.21-1.97-2.27.55-1.46.98-2.87,2.99-1.72.25.14.55.25.83.27,1.72.13,3.92.9,4.67-1.22.85-2.38-1.65-2.63-3.08-3.45-1.02-.58-2.15-1-3.09-1.67-3.29-2.38-3.08-6.99.41-9.05,2.91-1.72,6-1.43,9.12-.65,1.31.33,1.61,1.04,1,2.1-.49.84-.1,2.65-2.11,2.03-.93-.29-1.92-.47-2.89-.5-1.06-.04-2.3-.08-2.59,1.33-.25,1.21.73,1.74,1.6,2.18.78.4,1.65.63,2.46.96,3.86,1.57,5.43,3.99,4.79,7.37-.52,2.75-3.24,4.65-6.91,4.83-.39.02-.79,0-1.18,0Z" fill="#5b5b5b"/><path d="M99.85,103.09c-5.25,0-6.48-1.26-6.49-6.62,0-2.25.03-4.5-.01-6.75-.02-1.26.41-2.47-1.62-3.12-1.41-.45-1.14-3.3-.19-3.53,2.45-.59,1.88-2.17,1.77-3.55-.15-1.93.5-2.49,2.43-2.44,1.79.04,2.86.34,2.46,2.37-.54,2.73.76,3.46,3.23,3.1,1.51-.22,2.53-.04,2.58,2.05.04,2.16-.92,2.57-2.63,2.3-2.64-.43-3.5.63-3.21,3.21.22,1.93.14,3.91.02,5.86-.16,2.5.96,3.72,3.3,2.84,2.63-1,2.84.79,3.14,2.33.46,2.33-1.63,1.56-2.72,1.9-.63.19-1.36.03-2.05.04Z" fill="#5b5b5b"/><path d="M5.95,50.65c0-3.23.12-6.46-.04-9.68-.11-2.18,1.16-2.03,2.6-2.02,1.41.01,2.67-.22,2.63,1.99-.13,6.65.07,13.31-.08,19.95-.13,5.53-3.48,8.82-8.95,9.48-1.39.17-1.64-.53-1.54-1.42.11-.99-1.58-2.59.37-2.9,4.79-.75,5.2-3.95,5.03-7.77-.11-2.54-.02-5.09-.02-7.63Z" fill="#5b5b5b"/><path d="M147.18,88.07c0,4.22-.11,8.44.05,12.66.07,1.98-.94,2.04-2.33,1.89-1.2-.13-2.85.69-2.82-1.75.09-8.54.09-17.08,0-25.61-.03-2.24,1.3-1.91,2.68-1.98,1.57-.08,2.57.06,2.48,2.13-.17,4.21-.05,8.44-.05,12.66Z" fill="#5b5b5b"/><path d="M107.03,93.19c0-1.76.34-3.6-.07-5.26-.86-3.48.98-4.42,3.82-4.98,2.22-.44,4.39-1.06,6.66-.6.72.15,2.24-.32,1.84,1.08-.34,1.18.04,3.13-2.14,3.25-5.11.29-5.11.3-5.11,5.48,0,2.54-.1,5.09.03,7.63.11,1.97-.16,2.98-2.61,2.93-2.27-.04-2.55-.93-2.44-2.79.13-2.24.03-4.5.03-6.75,0,0-.02,0-.02,0Z" fill="#5b5b5b"/><path d="M206.81,59.32c.86-3.99,2.47-7.78,3.27-11.8.3-1.51-.07-3.16.85-4.54.44,8.42,3.03,16.06,8.17,22.82.48.63,2.24,1.41.51,2.48-1.2.74-2.23,2.34-4.08.82-3.42-2.82-6.64-5.79-8.73-9.78Z" fill="#5b5b5b"/><path d="M211.14,37.1c-.27-6.08.42-12.23-1.15-18.23,1.55-.12,2.21-1.51,3.23-2.34,3.04-2.5,6.35-4.58,9.81-6.44.86-.46,1.57-.57,2.32.28.83.94.13,1.39-.45,1.9-7.6,6.62-12.14,14.92-13.76,24.83Z" fill="#5b5b5b"/><path d="M162.02,34.19c.95-9.28,4.48-16.9,10.77-23.38,1.05,5.6-5.12,19.16-10.77,23.38Z" fill="#5b5b5b"/><path d="M200.91,68.9c1.17-1.77,2.33-3.53,3.5-5.3,2.16,2.86,4.32,5.71,6.49,8.57-4.26,2.07-4.93,1.84-9.99-3.27Z" fill="#5b5b5b"/><path d="M209.22,12.52c-.95-1.51-1.29-3.22-1.68-4.92,2.23-1.22,4.49-2.4,6.69-3.67,1.06-.61,2.06-.41,2.6.45.53.84-.56,1.29-1.08,1.8-2.16,2.13-4.35,4.23-6.53,6.34Z" fill="#5b5b5b"/></svg>