<?xml version="1.0" encoding="UTF-8"?><svg id="Headhunting" xmlns="http://www.w3.org/2000/svg" width="88.49mm" height="23.71mm" viewBox="0 0 250.85 67.21"><path id="path2414" d="M93.65,43.79h13.64c.49,0,.8.41.7.85l-.63,3.36c-.09.52-.59.86-1.01.85h-22.32c-.37,0-.8-.31-.7-.85l5.29-28.36c.09-.54.59-.86,1.02-.85h7.72c.49,0,.91.44.77.97l-4.48,24.03" fill="#5b5b5b"/><path id="path2416" d="M124.83,35.8l-1.51,7.98h14.3c.49,0,.76.45.68.85l-.62,3.36c-.07.45-.54.9-1,.84h-22.98c-.35.01-.79-.27-.68-.85l5.24-28.26c.08-.43.51-.95,1.12-.94h22.68c.48,0,.77.46.69.86l-.62,3.24c-.04.35-.42.86-1.01.85h-14.07l-1.33,7.27h12.18c.32-.02.78.24.69.84l-.59,3.11c-.05.36-.4.87-1.03.86h-12.13" fill="#5b5b5b"/><path id="path2418" d="M164.79,41.36h-11l-4.05,6.77c-.23.42-.75.75-1.36.71h-4.84c-.67.06-.79-.55-.59-.85,0,0,17.25-28.29,17.25-28.29.47-.72.65-.91,1.67-.91h5.12c.54,0,1.01.39,1.1.84,0,0,7.41,28.37,7.41,28.38.08.35-.05.84-.7.83h-7.29c-.65,0-1.05-.49-1.11-.83l-1.6-6.65ZM163.8,37.44l-2.27-9.39-5.49,9.39h7.76" fill="#5b5b5b"/><path id="path2420" d="M185.97,20.17c.11-.93.53-1.16,1.08-1.22,1.62-.19,6.67-.27,9.93-.27,3.54,0,15.49-.02,13.98,9.29-1,6.16-5.32,7.1-8.49,7.81l6.74,12.3c.09.21.14.73-.57.76h-7.53c-.54.02-1.09-.25-1.36-.75l-5.25-10.85c-.14-.36-.41-.43-.63-.42,0,0-1.65,0-1.65,0l-2.07,11.15c-.08.44-.48.87-1.02.87h-7.61c-.51.02-.77-.44-.71-.86l5.16-27.81ZM192.84,33.5c2.06.08,8.38.21,9.39-5.27.97-5.23-3.57-5.48-5.99-5.48-.28,0-.73,0-1.41.04l-1.99,10.71" fill="#5b5b5b"/><path id="path2422" d="M86.08,57.65c-1.82,0-3.57,1.53-4.03,3.97-.48,2.62.72,4.58,2.98,4.58.82,0,1.56-.24,2.34-.65.3-.16.42-.23.58-.23.19,0,.32.14.29.34-.09.5-1.65,1.56-3.71,1.56-3.45,0-4.7-2.51-4.18-5.28.45-2.41,2.37-5.14,6.03-5.14,2.34,0,3.44,1.24,3.3,1.98-.07.4-.47.65-.85.65-.21,0-.46-.05-.63-.37-.21-.42-.67-1.4-2.13-1.4" fill="#5b5b5b"/><path id="path2424" d="M101.29,67.21c-2.9,0-4.69-2.12-4.12-5.21.47-2.52,2.55-5.23,6.06-5.23,3.23,0,4.42,2.47,4.09,4.93-.41,3.09-3.01,5.51-6.03,5.51ZM103.01,57.62c-.51,0-1.04.13-1.52.35-1.6.77-2.36,2.31-2.66,3.94-.1.55-.15,1.03-.12,1.49.08,1.88,1.31,2.86,2.73,2.86.9,0,2.01-.41,2.86-1.36.96-1.06,1.23-2.38,1.36-3.16.52-3.34-1.47-4.12-2.65-4.12" fill="#5b5b5b"/><path id="path2426" d="M117.19,57.29c.05-.24.12-.26.32-.29.38-.06,1.63-.09,2.46-.09.87,0,2.17.03,2.92.69.14.11.9.79.67,2.05-.29,1.57-1.47,2.35-3.3,2.75l2.33,4.34c.13.17.02.27-.18.25h-1.19c-.23.01-.31-.04-.37-.24l-1.94-3.77c-.11-.2-.31-.45-.73-.45h-.44l-.77,4.16c-.04.24-.12.3-.36.3h-.92c-.22,0-.3-.01-.26-.24l1.75-9.47ZM117.86,61.84c.92.01,1.03,0,1.27,0,1.56-.11,2.51-.81,2.74-2.08.38-2.05-1.55-2.02-2.23-2.02-.46,0-.69-.03-1.02.01l-.76,4.1" fill="#5b5b5b"/><path id="path2428" d="M165.9,57.29c.06-.24.11-.26.32-.29.38-.06,1.63-.09,2.46-.09.87,0,2.18.03,2.92.69.14.11.9.79.67,2.05-.29,1.57-1.47,2.35-3.3,2.75l2.33,4.34c.13.17.02.27-.18.25h-1.19c-.23.01-.31-.04-.37-.24l-1.94-3.77c-.1-.2-.31-.45-.73-.45h-.44l-.77,4.16c-.04.24-.12.3-.36.3h-.92c-.22,0-.3-.01-.26-.24l1.75-9.47ZM166.57,61.84c.92.01,1.03,0,1.27,0,1.56-.11,2.51-.81,2.74-2.08.38-2.05-1.55-2.02-2.23-2.02-.46,0-.69-.03-1.02.01l-.76,4.1" fill="#5b5b5b"/><path id="path2430" d="M133.66,57.19s.03-.09.07-.12c.14-.08,1.7-.15,2.79-.15.79,0,2.21.02,3.05.78.34.32.77.95.57,2.04-.07.4-.29,1.25-1.27,1.97-.96.72-2.25,1.03-3.8,1.03-.36,0-.58-.02-.88-.04l-.75,4.04c-.04.23-.13.25-.33.25h-.97c-.24,0-.29-.04-.25-.25l1.76-9.56ZM134.35,61.89c.23.03.42.06.75.06,1.07,0,3.04-.17,3.41-2.18.38-2.04-1.77-2.04-2.43-2.04-.44,0-.69.02-.97.06l-.76,4.11" fill="#5b5b5b"/><path id="path2432" d="M150.48,67.21c-2.9,0-4.69-2.12-4.12-5.21.47-2.52,2.55-5.23,6.06-5.23,3.23,0,4.42,2.47,4.09,4.93-.41,3.09-3.02,5.51-6.04,5.51ZM152.21,57.62c-.51,0-1.04.13-1.52.35-1.6.77-2.36,2.31-2.66,3.94-.1.55-.14,1.03-.12,1.49.08,1.88,1.31,2.86,2.73,2.86.9,0,2.01-.41,2.86-1.36.96-1.06,1.23-2.38,1.36-3.16.53-3.34-1.47-4.12-2.65-4.12" fill="#5b5b5b"/><path id="path2434" d="M185.72,63.56h-3.83l-1.97,3.27c-.1.16-.13.18-.34.18h-.82c-.11,0-.19-.05-.13-.17.04-.07,5.94-9.62,5.94-9.62.11-.19.17-.21.34-.21h.68c.11.01.14.03.19.19,0,0,2.38,9.56,2.4,9.65.03.11,0,.17-.12.17h-1.36c-.12.01-.19-.03-.21-.16l-.76-3.28ZM185.51,62.72l-.84-3.85-2.27,3.85h3.1" fill="#5b5b5b"/><path id="path2436" d="M200.41,57.9l-1.65,8.9c-.03.16-.09.21-.23.2h-1.13c-.15,0-.21-.05-.18-.19l1.64-8.9h-2.77c-.24,0-.27-.06-.23-.27.11-.57.12-.64.4-.64h7.11c.28,0,.27.06.16.65-.04.2-.09.25-.33.25h-2.78" fill="#5b5b5b"/><path id="path2438" d="M212.12,66.8c-.04.13-.06.2-.22.19h-1.18c-.13,0-.19-.05-.16-.21l1.77-9.6c.04-.17.11-.21.34-.19h.99c.22,0,.27.06.23.23l-1.78,9.57" fill="#5b5b5b"/><path id="path2440" d="M226.62,67.21c-2.9,0-4.68-2.12-4.12-5.21.47-2.52,2.55-5.23,6.06-5.23,3.23,0,4.42,2.47,4.09,4.93-.41,3.09-3.01,5.51-6.03,5.51ZM228.35,57.62c-.51,0-1.04.13-1.52.35-1.6.77-2.36,2.31-2.66,3.94-.1.55-.14,1.03-.12,1.49.08,1.88,1.3,2.86,2.73,2.86.9,0,2.01-.41,2.86-1.36.96-1.06,1.23-2.38,1.36-3.16.52-3.34-1.47-4.12-2.65-4.12" fill="#5b5b5b"/><path id="path2450" d="M248.24,64.59l1.38-7.42c.03-.12.05-.17.18-.17h.9c.17,0,.17.07.14.18l-1.8,9.66c-.03.16-.08.17-.21.16h-.73c-.11,0-.16-.03-.21-.12l-4.91-7.92-1.47,7.88c-.02.13-.04.16-.16.17,0,0-.9,0-.92,0-.16,0-.18-.04-.14-.21l1.79-9.62c.02-.13.05-.19.27-.17h1.05c.15,0,.17.03.23.15l4.62,7.44" fill="#5b5b5b"/><path id="path2452" d="M39.97,0C21.45,0,3.79,15.01.52,33.53c-3.27,18.52,9.1,33.53,27.62,33.53,9.37,0,18.53-3.85,25.7-10.05h-31.1c-.6.01-1.3-.5-1.13-1.37L30.17,9.74c.15-.88.95-1.39,1.65-1.37h12.49c.79-.01,1.48.72,1.25,1.57l-7.25,38.9h22.9c3.16-4.59,5.41-9.79,6.38-15.3C70.85,15.01,58.49,0,39.97,0" fill="#5b5b5b"/><path id="path2458" d="M212.5,46.21c0-1.67,1.35-2.9,2.96-2.9s2.94,1.23,2.94,2.9-1.36,2.92-2.94,2.92-2.96-1.23-2.96-2.92ZM215.45,48.64c1.32,0,2.36-1.03,2.36-2.43s-1.04-2.42-2.36-2.42-2.37,1.04-2.37,2.42,1.04,2.43,2.37,2.43ZM214.84,47.9h-.51v-3.36h1.28c.79,0,1.19.29,1.19.95,0,.6-.38.86-.87.92l.95,1.48h-.57l-.88-1.45h-.59v1.45ZM215.45,46.01c.43,0,.82-.03.82-.55,0-.42-.38-.49-.73-.49h-.69v1.04h.61" fill="#5b5b5b"/></svg>