<?xml version="1.0" encoding="UTF-8"?><svg id="Headhunting" xmlns="http://www.w3.org/2000/svg" width="263.09" height="69.08" viewBox="0 0 263.09 69.08"><path d="M33.78,0c.74.34,1.54.2,2.3.28,14.44,1.37,26.26,12.01,29.11,26.23,3.41,16.99-7.53,33.99-24.45,37.97-1.01.24-2.04.4-3.06.62-.48.1-.7,0-.67-.55.04-1.01.1-2.04-.01-3.04-.1-.88.33-1.04,1.03-1.15,2.31-.36,4.55-.97,6.68-1.95,2.64-1.21,4.88-2.91,6.63-5.27-.64-.18-35.17-.24-36.86-.08.18.42.48.73.76,1.04,2.87,3.27,6.6,4.98,10.76,5.91.75.17,1.5.33,2.26.44.47.06.57.27.56.7-.03,1.12-.05,2.25,0,3.37.03.65-.26.64-.74.57-5.73-.88-10.92-3.03-15.47-6.62C5.81,53.11,1.64,46.14.36,37.59-2.09,21.21,8.09,5.73,24.09,1.31c2.34-.65,4.72-1.01,7.13-1.15.2-.01.45.12.58-.16h1.98ZM24.68,51.36v-.03s-.02.02-.02.02c.14-.14.07-.31.03-.46-.63-2.39-.38-4.73.41-7.02,1.16-3.34,3.3-6.02,5.8-8.45,4.16-4.06,8.32-8.12,12.46-12.19.59-.57,1.14-1.19,1.65-1.83,1.2-1.52,1.96-3.22,2-5.19.03-1.47-.21-2.89-.89-4.32-.98,2.42-2.57,4.24-4.28,5.93-5.03,4.98-10.1,9.9-15.17,14.84-1.83,1.78-3.34,3.76-4.33,6.13-1.87,4.47-1.57,9.37,2.32,12.58ZM14.5,40.78s.04.08.06.12c.01-.03.02-.06.03-.1-.04,0-.07,0-.11,0,.13-.31-.03-.58-.1-.87-.44-1.8-.61-3.62-.29-5.46.51-2.86,2.04-5.18,4.06-7.18,5.01-4.96,10.05-9.89,15.08-14.83,1.05-1.03,1.92-2.18,2.41-3.58.91-2.62-.47-6.05-2.89-7.11.03.81-.05,1.59-.26,2.36-.61,2.33-2.02,4.17-3.7,5.82-4.56,4.48-9.15,8.93-13.71,13.41-1.42,1.39-2.63,2.94-3.48,4.75-2.09,4.4-.72,9.27,2.89,12.67ZM41.87,3.88c-.26,2.58-1.64,4.56-3.23,6.44-.62.73-1.26,1.45-1.95,2.12-4.99,4.87-9.99,9.71-14.99,14.57-1.92,1.87-3.61,3.92-4.53,6.48-1.12,3.1-.71,5.99,1.41,8.78.02-1.29.21-2.38.61-3.43,1.27-3.34,3.52-5.98,6.08-8.37,5.45-5.06,10.67-10.35,15.96-15.58.98-.97,1.79-2.07,2.34-3.35,1.18-2.73.5-5.81-1.71-7.66ZM32.16,51.36c-.11-1.13-.12-2.08.07-3.03.57-2.79,2.06-5.11,3.82-7.26,2.55-3.11,5.62-5.7,8.46-8.52,2.53-2.52,5.18-4.91,7.61-7.51,2.66-2.85,3.18-6.35,1.51-9.89-1,2.19-2.54,3.99-4.21,5.65-5.02,4.98-10.1,9.91-15.16,14.86-1.14,1.11-2.24,2.26-3.15,3.57-2.76,3.99-2.42,8.43,1.05,12.13ZM53.49,26.98c-.86,1.61-2.12,2.71-3.32,3.86-2.86,2.73-5.76,5.4-8.57,8.18-2.06,2.04-3.35,4.52-3.61,7.46-.16,1.8.26,3.44,1.55,4.93.53-2.6,1.85-4.66,3.41-6.6.91-1.13,1.94-2.16,2.97-3.18,1.93-1.91,3.99-3.69,5.75-5.76,2.18-2.58,2.63-5.53,1.82-8.88Z" fill="#fff"/><path d="M131.93,54.05c1.15-2.51,2.26-4.91,3.36-7.32,1.17-2.56,2.35-5.12,3.5-7.69.22-.49.47-.69,1.04-.67,1.73.04,3.46.02,5.19.01.34,0,.65-.04.65.48,0,.42-.08.61-.55.69-2.31.4-2.44.54-2.39,2.85.09,4.77.23,9.53.34,14.3,0,.16.02.33.04.49.2,1.61.59,2,2.22,2.18.39.04.76.02.73.61-.02.4-.09.57-.54.57-2.91-.02-5.82-.01-8.73,0-.32,0-.54-.04-.49-.43.03-.31-.11-.7.42-.71.11,0,.22-.02.33-.03,1.51-.19,1.94-.63,2.03-2.16.04-.68.02-1.37.02-2.05-.02-3.97-.04-7.95-.07-11.92,0-.3,0-.59,0-.92-.37.1-.37.38-.46.59-2.43,5.56-4.85,11.13-7.28,16.69-.11.26-.12.63-.47.72-.52.14-.76-.11-.96-.6-1.57-3.9-3.18-7.8-4.77-11.69-.62-1.52-1.24-3.04-1.87-4.55-.1-.24-.12-.54-.47-.74-.08,1.55-.2,3.04-.24,4.53-.09,3.18-.46,6.35-.27,9.53.12,2.01.49,2.36,2.53,2.57.4.04.67.07.66.59,0,.46-.13.61-.6.61-2.36-.02-4.72-.02-7.09,0-.36,0-.57-.05-.54-.48.03-.36-.03-.64.51-.72,1.77-.26,2.22-.76,2.46-2.53.63-4.65.83-9.33,1.17-14,.02-.3.02-.6.01-.9-.04-1.61-.45-2.05-2.05-2.32-.32-.05-.76.1-.94-.31-.24-.54.04-.9.67-.9,1.7,0,3.41.03,5.11-.02.59-.01.87.18,1.1.71,2.08,4.7,4.2,9.39,6.3,14.07.12.27.25.54.42.9Z" fill="#fff"/><path d="M196.86,17.1c.68,1.05.98,2.11.83,3.26-.35,2.74-2.58,4.61-5.71,4.79-.6.03-1.22.07-1.8-.09-.65-.17-.92.23-1.12.69-.21.49-.04.91.39,1.22.57.4,1.24.4,1.9.4,1.45.02,2.9-.12,4.36.06,3.34.41,4.88,3.08,3.44,6.14-1.22,2.58-3.46,3.89-6.12,4.54-1.98.48-3.97.42-5.88-.42-.85-.37-1.56-.91-2.09-1.68-.96-1.4-.8-2.7.51-3.77.76-.62,1.56-1.19,2.42-1.83-.4-.21-.75-.38-1.09-.57-.64-.36-1.11-.89-1.46-1.53-.59-1.08-.5-1.34.58-1.9.85-.44,1.65-.95,2.31-1.73-.16-.09-.27-.15-.38-.21-3.3-1.67-3.78-6.09-.88-8.41,2.03-1.62,4.39-2.04,6.82-1.17,1.26.45,2.45.44,3.7.31.68-.07,1.36-.15,2.04-.23.54-.06.64.12.39.6-.66,1.32-.97,1.48-3.18,1.52ZM192.5,36.53c.88,0,1.87-.18,2.74-.76,1.11-.74,1.59-1.8,1.38-3.11-.2-1.24-1.13-1.73-2.25-1.96-1.33-.27-2.67-.29-4.01-.12-1.22.15-2,.88-2.38,1.99-.38,1.1.04,2.05.88,2.8.99.89,2.2,1.18,3.65,1.16ZM194.09,20.08c-.06-1.18-.15-2.42-.94-3.45-.94-1.24-2.45-1.24-3.32-.01-1.12,1.6-.99,5.06.25,6.54,1.02,1.22,2.63,1.07,3.41-.32.47-.84.53-1.77.6-2.75Z" fill="#fff"/><path d="M87.46,58.92c-.74.45-1.34.78-1.9,1.17-1.53,1.08-3.1,1.04-4.75.33-4.45-1.93-5.78-7.8-2.59-11.73,2.18-2.7,5.09-3.81,8.53-3.42.63.07.74-.07.72-.64-.04-1.29,0-2.58-.02-3.86-.03-1.54-.24-1.75-1.77-2.02-.32-.06-.74.03-.68-.56.03-.36.09-.51.49-.56,1.79-.25,3.58-.53,5.33-1.02.37-.1.44.02.43.34,0,.19,0,.38,0,.58,0,6.11,0,12.22,0,18.33,0,.41,0,.82.02,1.23.06,1.11.3,1.35,1.43,1.48.22.03.43.07.65.09.41.03.36.33.37.6.01.29-.08.43-.4.48-1.81.29-3.62.61-5.39,1.13-.38.11-.49-.02-.47-.38.02-.46,0-.92,0-1.55ZM87.46,52.97c0-1.26-.06-2.53.02-3.78.07-1.15-.53-1.8-1.42-2.28-1.43-.77-3.04-.31-4.11,1.15-1.59,2.16-1.61,6.57-.03,8.73,1.25,1.71,3.22,2.2,5.01,1.27.39-.2.55-.45.54-.89-.03-1.4-.01-2.79-.01-4.19Z" fill="#fff"/><path d="M85.5,7.28c2.91,0,5.82.02,8.73-.01.59,0,.82.12.83.75.02,1.45.13,2.9.21,4.35.02.36.1.69-.46.74-.5.04-.66-.13-.76-.59-.14-.61-.38-1.2-.59-1.79-.44-1.23-1.37-1.8-2.64-1.84-.88-.03-1.76,0-2.63-.06-.6-.04-.71.18-.71.74.02,5.4,0,10.8.02,16.19,0,2.34.36,2.72,2.71,3,.3.03.68-.09.67.46,0,.48-.05.73-.65.72-3.13-.03-6.26-.02-9.39-.01-.38,0-.62-.03-.59-.51.02-.4.02-.72.55-.65.08,0,.16-.01.25-.02,2.06-.28,2.48-.72,2.49-2.81.02-5.48,0-10.96.02-16.44,0-.48-.1-.69-.63-.66-1.1.05-2.19-.02-3.29.13-.97.13-1.59.68-1.99,1.53-.32.7-.58,1.42-.71,2.18-.11.61-.54.47-.93.49-.56.02-.34-.4-.33-.64.09-1.59.23-3.17.29-4.76.02-.59.39-.48.73-.48,2.94,0,5.88,0,8.81,0Z" fill="#fff"/><path d="M127.89,14.44v2.55c.78-.53,1.46-1,2.15-1.47,1.07-.72,2.21-1.21,3.55-.97,2.23.4,3.62,2.08,3.68,4.66.06,2.33.02,4.66.03,6.98,0,.38.02.77.03,1.15.04.87.48,1.38,1.37,1.44.49.03.75.17.7.74-.06.63-.51.39-.79.39-2.11.02-4.23.01-6.34,0-.28,0-.62.1-.61-.41,0-.4.03-.69.53-.72.92-.06,1.29-.64,1.29-1.49,0-2.55.07-5.1-.02-7.64-.08-2.29-1.87-3.32-3.98-2.43-1.1.46-1.72,1.07-1.63,2.43.14,2.37.03,4.76.04,7.15,0,1.46.1,1.59,1.47,2,.45.13.31.43.35.71.04.34-.15.4-.44.4-2.36,0-4.72,0-7.08,0-.24,0-.46-.01-.42-.34.03-.27-.17-.64.29-.74.16-.04.33-.04.49-.07,1.18-.18,1.54-.54,1.55-1.71.02-2.85.02-5.7,0-8.55,0-1.2-.21-1.43-1.41-1.75-.35-.09-.51-.22-.51-.6,0-.38.22-.46.51-.5,1.74-.25,3.43-.7,5.2-1.22Z" fill="#fff"/><path d="M170.07,45.07v2.57c.76-.52,1.43-.97,2.08-1.43,1.27-.89,2.64-1.33,4.19-.9,1.89.53,3.08,2.24,3.13,4.62.05,2.33.02,4.66.02,6.99,0,.36,0,.71.03,1.07.06.81.42,1.34,1.29,1.42.44.04.88.11.77.76-.11.66-.59.35-.9.36-2.06.03-4.12.02-6.18,0-.25,0-.64.18-.64-.36,0-.38,0-.63.49-.74,1.08-.22,1.31-.52,1.33-1.63.02-2.44.05-4.88,0-7.31-.06-2.54-2-3.62-4.28-2.5-.95.47-1.41,1.03-1.35,2.2.12,2.46.03,4.93.05,7.4,0,1.34.14,1.53,1.44,1.88.46.12.34.39.37.67.05.42-.22.41-.51.41-2.31,0-4.61,0-6.92,0-.29,0-.54.02-.53-.41.01-.35-.01-.63.47-.67,1.7-.16,1.9-.65,1.89-2.42-.01-2.55,0-5.1,0-7.64,0-1.44-.13-1.62-1.51-2.02-.35-.1-.41-.27-.42-.57-.02-.39.2-.43.5-.49,1.73-.3,3.44-.67,5.21-1.26Z" fill="#fff"/><path d="M240.35,22.29c-.15,4.91-3.42,8.15-8.09,8-4.44-.13-7.67-3.38-7.57-7.62.11-4.77,3.68-8.31,8.25-8.17,4.3.13,7.55,3.54,7.42,7.79ZM235.98,23.11c0-.63.05-1.26-.01-1.89-.15-1.45-.42-2.87-1.3-4.1-1.37-1.92-3.66-1.8-4.79.26-.21.38-.37.79-.49,1.21-.51,1.71-.44,3.46-.21,5.21.18,1.43.56,2.79,1.45,3.96.68.9,1.56,1.43,2.77,1.25,1.19-.18,1.77-.98,2.15-2.01.46-1.26.5-2.57.45-3.88Z" fill="#fff"/><path d="M155.23,45.14c4.45.07,7.65,3.38,7.59,7.86-.06,4.64-3.38,8.01-7.83,7.97-4.58-.04-7.89-3.31-7.83-7.73.07-4.61,3.6-8.17,8.06-8.1ZM158.54,53.74c0-1.71-.15-3.39-.83-4.98-.67-1.57-1.86-2.48-3.14-2.35-1.54.16-2.2,1.3-2.64,2.6-.64,1.92-.55,3.88-.22,5.85.21,1.25.58,2.45,1.35,3.49.7.95,1.61,1.5,2.82,1.31,1.18-.18,1.79-1,2.14-2.03.43-1.26.53-2.57.52-3.89Z" fill="#fff"/><path d="M148.56,30.3c-4.56-.04-7.85-3.26-7.81-7.64.05-4.65,3.57-8.22,8.09-8.17,4.38.05,7.62,3.39,7.57,7.81-.05,4.71-3.33,8.05-7.85,8ZM152.12,23.12c0-1.84-.15-3.67-1-5.35-.51-1.03-1.26-1.8-2.46-1.97-1.38-.19-2.5.67-3.1,2.39-.68,1.97-.61,3.98-.28,6.01.21,1.28.59,2.5,1.39,3.55.69.91,1.56,1.43,2.76,1.26,1.2-.17,1.8-.98,2.16-2,.44-1.25.54-2.56.53-3.88Z" fill="#fff"/><path d="M174.92,30.3c-4.56-.04-7.85-3.24-7.81-7.63.04-4.65,3.56-8.22,8.07-8.18,4.37.04,7.62,3.38,7.58,7.8-.04,4.7-3.32,8.05-7.84,8.01ZM178.48,22.9c.04-.68-.05-1.56-.19-2.42-.21-1.33-.54-2.64-1.47-3.68-1.36-1.53-3.34-1.35-4.42.37-.58.93-.84,1.96-.92,3.03-.2,2.6-.03,5.16,1.46,7.42.64.97,1.54,1.54,2.78,1.39,1.28-.15,1.88-1.02,2.25-2.11.42-1.23.5-2.52.5-4Z" fill="#fff"/><path d="M255.81,56.18c1.06-2.69,1.99-5.24,2.79-7.82.31-1,.08-1.36-.97-1.67-.24-.07-.63,0-.69-.32-.07-.39-.21-.86.56-.84,1.67.06,3.35.02,5.02.02.26,0,.58-.1.56.36-.01.33.06.66-.43.72-1.17.14-1.82.93-2.26,1.93-2.73,6.35-5.62,12.64-7.79,19.22-.35,1.07-.8,1.42-1.67,1.26-1.01-.19-1.94-1.17-1.9-2,.03-.62.46-1,.94-1.26,1.55-.84,2.5-2.16,3.23-3.71.37-.79.42-1.55.12-2.38-1.34-3.64-2.69-7.28-4.15-10.88-.46-1.13-1.06-2.05-2.39-2.21-.45-.05-.37-.37-.39-.67-.03-.44.27-.39.54-.39,2.31,0,4.61,0,6.92,0,.25,0,.52-.04.49.35-.02.28.09.56-.33.72-1.38.54-1.37.56-.89,1.94.86,2.47,1.73,4.94,2.67,7.62Z" fill="#fff"/><path d="M103.92,58.11c1.02,0,2.06-.44,3.03-1.11.19-.13.35-.6.71-.16.27.33.38.58.07.99-2.05,2.7-5.29,3.77-8.23,2.69-2.84-1.05-4.61-4.04-4.36-7.38.28-3.78,2.81-6.96,6.23-7.82,3.23-.82,6.55,1.53,6.78,4.8.08,1.17-.15,1.51-1.31,1.6-2.38.19-4.76.34-7.15.44-.73.03-.93.25-.83.97.28,1.93.97,3.59,2.81,4.55.64.34,1.35.44,2.25.42ZM101.5,50.68s0-.02,0-.04c.33,0,.66,0,.99,0,2.1-.04,2.42-.54,1.61-2.51-.08-.2-.19-.4-.3-.58-.82-1.27-2.28-1.43-3.36-.37-.84.82-1.16,1.89-1.39,3-.09.43.1.51.48.5.66-.03,1.31,0,1.97,0Z" fill="#fff"/><path d="M233.03,53.58c.04-3.88,2.63-7.33,6.21-8.26,3.22-.83,6.64,1.56,6.82,4.77.07,1.23-.15,1.54-1.38,1.64-2.35.18-4.71.33-7.07.43-.76.03-1.03.27-.82,1.01.09.31.1.65.18.97.93,3.8,4.6,5.16,7.8,2.91.2-.14.38-.73.83-.2.35.41.26.69-.05,1.05-1.99,2.27-4.34,3.61-7.48,2.8-3.12-.8-5.07-3.57-5.04-7.13ZM239.37,50.68v-.04c.36,0,.71,0,1.07,0,2.01-.04,2.35-.57,1.57-2.48-.09-.23-.2-.45-.34-.65-.82-1.22-2.25-1.38-3.3-.35-.85.84-1.21,1.92-1.4,3.07-.07.4.11.46.44.45.66-.02,1.31,0,1.97,0Z" fill="#fff"/><path d="M192.65,53.62c.02-3.88,2.59-7.33,6.16-8.28,3.35-.89,6.86,1.68,6.87,5.03,0,.94-.21,1.25-1.17,1.33-2.43.19-4.87.36-7.31.47-.77.04-.94.26-.82,1.02.32,2.1,1.09,3.89,3.22,4.67,1.79.65,3.45.19,4.95-.94.16-.12.34-.47.57-.11.15.24.54.42.23.84-3.12,4.19-7.99,4.24-10.87,1.19-1.21-1.28-1.86-3.18-1.85-5.21ZM199.02,50.68s0-.05,0-.08c.74,0,1.48,0,2.22,0,.45,0,.7-.22.7-.71,0-.84-.17-1.63-.63-2.34-.82-1.26-2.29-1.42-3.35-.36-.8.8-1.15,1.83-1.36,2.92-.1.52.1.6.55.58.63-.03,1.26,0,1.89,0Z" fill="#fff"/><path d="M99.7,30.29c-3.67-.09-6.15-2.47-6.66-6.41-.55-4.29,2.58-8.61,6.76-9.32,3.08-.53,6.19,2.05,6.23,5.17.01.94-.28,1.24-1.26,1.34-2.46.23-4.93.4-7.4.47-.52.01-.7.13-.67.7.14,2.57,1.59,4.61,3.76,5.12,1.63.38,3.09-.09,4.41-1.05.18-.13.36-.54.64-.11.16.25.45.43.18.85-1.16,1.8-3.87,3.31-6,3.26ZM99.36,20.06s0-.04,0-.06c.38,0,.77.02,1.15,0,1.98-.1,2.19-.43,1.51-2.33-.08-.23-.19-.45-.31-.66-.82-1.37-2.32-1.56-3.44-.43-.82.83-1.15,1.89-1.36,3.01-.06.34,0,.5.4.48.68-.03,1.37,0,2.05,0Z" fill="#fff"/><path d="M163.49,5.86c0,.38,0,.67,0,.97,0,6.38,0,12.77,0,19.15,0,.41-.01.82.03,1.23.1,1.08.44,1.42,1.53,1.58.43.06.9,0,.83.7-.07.74-.6.42-.93.42-2.28.03-4.56.02-6.84,0-.29,0-.74.23-.75-.42-.01-.5.17-.64.64-.71,1.39-.21,1.69-.56,1.69-2.03.01-5.62.01-11.23,0-16.85,0-1.42-.2-1.63-1.61-1.87-.31-.05-.59-.08-.57-.52.01-.32.07-.51.43-.55,1.85-.22,3.66-.63,5.54-1.11Z" fill="#fff"/><path d="M183.95,52.66c0-1.83-.03-3.34.02-4.84.02-.64-.2-.84-.79-.75-.13.02-.28.03-.41,0-.38-.1-.94.3-1.13-.31-.11-.33.92-1.26,1.34-1.19.9.15,1.1-.28.97-1.04-.18-1.06.2-1.81,1.15-2.36.66-.38,1.23-.91,1.84-1.38.18-.14.36-.25.6-.15.28.11.2.36.2.57,0,1.18.05,2.36-.01,3.53-.04.72.21.88.87.83.74-.06,1.48.01,2.22-.02.5-.02.71.18.7.66-.02.44-.11.85-.66.86-.85.02-1.7.02-2.55,0-.43-.01-.57.13-.57.56.02,2.77.01,5.53.02,8.3,0,.22.05.44.08.65.29,1.83,1.21,2.42,3.02,1.95.28-.07.64-.56.89.14.22.59-.05.77-.5.96-.7.31-1.38.68-2.08.98-2.47,1.05-4.73-.2-5.1-2.85-.25-1.8-.03-3.61-.1-5.09Z" fill="#fff"/><path d="M212.77,48.8c.67-.96,1.16-1.78,1.83-2.45.57-.56,1.17-1.08,2.01-1.17,1.09-.12,2.09.51,2.36,1.49.27,1-.38,2.23-1.38,2.61-.42.16-.79.13-1.15-.16-.63-.5-1.32-.86-2.11-.41-.87.5-1.5,1.29-1.54,2.29-.08,2.24-.04,4.49,0,6.73.02,1.13.4,1.49,1.52,1.65.27.04.54.12.81.11.44-.01.45.24.46.57.02.43-.18.48-.54.48-2.06-.01-4.12,0-6.17,0-.55,0-1.1,0-1.65,0-.31,0-.54-.03-.52-.43.02-.3-.04-.6.42-.63,1.48-.1,1.87-.54,1.86-2.38-.02-2.57,0-5.15,0-7.72,0-1.44-.13-1.6-1.52-2-.34-.1-.43-.23-.44-.55-.02-.37.16-.45.48-.49,1.6-.24,3.18-.56,4.71-1.1.41-.14.58-.08.57.41-.03.97,0,1.94,0,3.15Z" fill="#fff"/><path d="M226.27,45.08v3.66c.54-.73.96-1.35,1.42-1.93.5-.63,1.07-1.18,1.83-1.48,1.13-.45,2.4.04,2.84,1.09.43,1.02-.12,2.33-1.18,2.82-.43.2-.83.21-1.23-.1-.63-.5-1.32-.88-2.11-.43-.88.49-1.52,1.28-1.55,2.28-.08,2.27-.04,4.55,0,6.82.02,1.04.4,1.42,1.41,1.58.33.05.65.13.98.13.5,0,.37.34.4.62.03.32-.1.43-.42.42-2.66,0-5.33,0-7.99,0-.28,0-.5-.03-.47-.39.03-.28-.11-.63.38-.65,1.76-.07,1.91-.91,1.9-2.52-.02-2.55,0-5.1,0-7.64,0-1.37-.18-1.61-1.49-1.94-.38-.1-.47-.25-.48-.6-.01-.41.24-.41.52-.45,1.76-.26,3.49-.68,5.24-1.26Z" fill="#fff"/><path d="M111.56,21.39c-.03.95.13,1.94.53,2.89,1.33,3.18,4.82,4.15,7.62,2.14.21-.15.39-.71.85-.2.37.4.25.66-.05,1.03-4.15,5.13-9.72,3.03-11.63-.27-1.35-2.32-1.43-4.72-.31-7.15,1.59-3.44,6.05-5.86,9.54-5.18.57.11,1.11.29,1.6.61.52.34.86.78.76,1.43-.1.66-.46,1.16-1.05,1.48-.39.21-.69-.01-.96-.24-.61-.51-1.23-1-1.97-1.32-1.83-.8-3.46-.2-4.31,1.6-.46.98-.62,2.03-.6,3.19Z" fill="#fff"/><path d="M214.33,21.29c.02,1.02.12,2.02.53,2.97,1.37,3.23,4.85,4.19,7.67,2.12.2-.15.36-.63.78-.18.36.38.31.64,0,1.03-3.77,4.61-8.46,3.41-10.79.88-1.93-2.09-2.37-4.58-1.57-7.26,1.18-3.95,6-6.94,9.9-6.2.52.1,1.01.25,1.47.51,1.14.65,1.26,1.82.29,2.73-.44.42-.88.5-1.37.07-.55-.49-1.14-.94-1.82-1.26-1.97-.95-3.71-.28-4.57,1.73-.39.93-.49,1.9-.52,2.89Z" fill="#fff"/><path d="M207,14.47c0,3.82,0,7.54,0,11.27,0,.41,0,.82.01,1.23.06,1.27.37,1.63,1.65,1.81.44.06.7.16.66.69-.03.37-.15.45-.49.45-2.47-.01-4.94-.01-7.41,0-.34,0-.5-.09-.49-.46,0-.33.03-.55.44-.64,1.75-.41,1.84-.52,1.84-2.28,0-2.63,0-5.26,0-7.89,0-1.35-.19-1.58-1.54-1.87-.41-.09-.44-.29-.45-.62-.01-.36.16-.48.48-.51,1.77-.2,3.5-.63,5.3-1.17Z" fill="#fff"/><path d="M178.37,6.79c.33.03.62-.07.76.2.14.28-.11.45-.24.64-1.27,1.71-2.56,3.4-3.8,5.14-.33.47-.6.26-.95.13-.44-.15-.31-.42-.21-.71.51-1.47,1.04-2.92,1.52-4.4.16-.48.39-.73.9-.76.71-.05,1.41-.17,2.02-.24Z" fill="#fff"/><path d="M204.87,7.73c1.19-.02,2.14.9,2.18,2.09.04,1.22-.92,2.2-2.15,2.21-1.18,0-2.17-.93-2.2-2.09-.03-1.2.94-2.19,2.16-2.21Z" fill="#fff"/></svg>