<?xml version="1.0" encoding="UTF-8"?><svg id="Headhunting" xmlns="http://www.w3.org/2000/svg" width="313.94" height="40.13" viewBox="0 0 313.94 40.13"><path d="M7.22,19.21c0-4.15-.11-8.31.04-12.45.1-2.64-.87-3.74-3.53-3.54-.84.06-2.3.67-2.39-.97-.08-1.46,1.19-1.77,2.32-1.8C12.33.18,21.06-.7,29.62,1.11c13.65,2.88,19.58,19.27,11.2,30.53-3.34,4.48-8.16,6.53-13.48,7.14-8.55.98-17.16.27-25.74.44-.76.02-1.49.06-1.58-1.02-.12-1.37.82-.96,1.6-1.15,4.66-1.13,5.59-.58,5.62-6.23.02-3.87,0-7.75,0-11.62ZM14.42,18.85c0,4.43.02,8.86,0,13.29-.02,2.36,1.07,3.62,3.45,3.74,2.87.15,5.71.16,8.56-.39,5.5-1.06,8.73-4.39,9.73-9.8.67-3.64.67-7.27-.39-10.93-1.94-6.66-5.79-10.15-12.63-10.9-2.01-.22-4.06-.1-6.08-.3-2.02-.21-2.76.41-2.67,2.56.17,4.24.05,8.49.05,12.73Z" fill="#fff"/><path d="M163.09,6.31c.1-.25.19-.49.29-.74,3.32-5.45,8.58-2.64,13.52-3.46-1.04,1.03-2.17.94-2.55,1.9,0,0,.04-.03.04-.03-1.17,0-2.28.64-2.04,1.71.54,2.39-.02,4.8.41,7.15,1.2,6.5,1.36,13.11,2.01,19.66.27,2.72,1.47,3.98,3.84,4.61.53.14,1.32-.18,1.46.77-2.49.54-16.3.52-18.37-.13,1.18-.12,2.38.03,3.54-.14,2.92-.44,4.31-2.35,3.97-4.94-.59-4.53-1.05-9.09-1.59-13.63-.33-2.82-.72-5.62-1.08-8.44-.09-.72.03-1.55-1.03-1.65-.95-.09-1.24.64-1.59,1.29-.26.49-.5.99-.74,1.49-3.93,8.22-7.85,16.44-11.8,24.65-.31.64-.48,1.57-1.33,1.62-.93.06-.99-.95-1.33-1.55-.58-1.05-1.09-2.14-1.62-3.21-3.74-7.47-7.47-14.95-11.23-22.42-.43-.86-.72-2.13-2.08-1.78-1.31.34-1.01,1.56-1.08,2.55-.17,2.38-.13,4.8-.6,7.12-.85,4.18-.09,8.44-.92,12.62-.26,1.3-1.01,3.12.85,4.16,2.02,1.61,4.42.82,6.67,1.07.89.1,2.26-.55,2.3,1.13.03,1.39-1.05,1.55-2.13,1.55-5.53,0-11.06,0-16.59,0-.77,0-1.51,0-1.6-1.05-.1-1.19.72-1.26,1.58-1.42,5.1-1,5.15-1.01,5.63-6.19.72-7.61,1.37-15.22,2.02-22.84.11-1.25.47-2.64-1.09-3.37-.11-1.61-2.03-.44-2.68-2.12,3.27,0,6.33.08,9.37-.03,1.62-.06,2.5.57,3.2,1.98,2.21,4.43,4.53,8.81,6.84,13.19.4.77.56,1.83,1.77,1.87l-.13.13s.11-.15.11-.15c.43,3.18,2.48,5.66,3.75,8.47.33.72,1.01.69,1.62.17l.05-.13c.76-.06,1.06-.64,1.35-1.23,2.08-4.2,4.31-8.33,6.19-12.61,1.08-2.46,2.98-4.66,2.79-7.6Z" fill="#fff"/><path d="M272.97,7.22c-.03-.62-.06-1.24-.09-1.86.1-1.18-.16-1.87-1.64-1.83-.95.02-2.2.18-2.87-.9,1.34-1.35,3.29-.4,4.62-1.5,4.06-.27,8.13-.34,12.19-.01.67.78,1.4.75,2.17.17.61-.09,1.19,0,1.71.34.22.53.65.65,1.17.57h-.03c.26.45.42.29.54-.09.18.03.37.07.55.1.27.16.53.33.8.49,4.57,1.46,7.37,4.48,8.03,9.27.72,5.24-.88,8.03-7.1,12.67,3.59,3.59,7.51,6.77,11.65,9.66,2.22,1.55,4.8,2.08,7.49,2.2.68.03,1.63-.28,1.78.79.11.79-.43,1.38-1.09,1.79-.97.59-2.07.76-3.17.88-9.68,1.07-17.12-3.25-21.77-12.63.03-.98-.5-1.28-1.39-1.16-.63-.06-1.26-.11-1.89-.17-1.51-.71-3.01-.88-4.47.12-.02,3.13-.04,6.26-.06,9.39-.73,1,.08,1.34.76,1.55,1.22.37,2.48.61,3.73.9-.01.07-.03.14-.04.21h-16.13c1.57-1.3,4.74-.46,4.38-3.69.05-.4.11-.81.16-1.21.72-.51.6-1.28.6-2.01,0-7.34,0-14.69,0-22.03,0-.72.13-1.49-.57-2.02ZM280,13.61c0,1.47,0,2.94,0,4.41q-.01,5.21,5.33,4.63c3.09-.34,5.75-1.31,6.84-4.63,2.6-7.9-2.29-14.22-10.57-13.73-1.18.07-1.63.41-1.6,1.6.06,2.57.02,5.14,0,7.72Z" fill="#fff"/><path d="M239.56,18.9c1.19.06,2.39.06,3.57.21,2.77.33,4.76-.24,4.66-3.61-.02-.65.13-1.35,1.05-1.28.82.06,1.5.45,1.51,1.32.04,3.78,0,7.55,0,11.33,0,.55-.3.83-.83.9-.49.06-1.14-.03-1.17-.48-.45-6.17-5.08-4.35-8.65-4.55-.57.11-1.06.35-1.06,1.02,0,3.08-.01,6.16.02,9.24,0,.51.47.72.93.85.65,1.04,1.66,1.42,2.81,1.5.74.05,1.48.05,2.22.03,8.31-.16,8.13,1.43,12.04-7.38.33-.74.55-1.72,1.71-1.34,1.11.36,1.25,1.19.94,2.22-.93,3.09-1.86,6.18-2.71,9.29-.3,1.12-1.04,1.08-1.9,1.08-9.33,0-18.66,0-27.99,0-.84,0-1.77.11-1.81-1.11-.05-1.39,1.04-.96,1.78-1.04,2.13-.23,4.14-.67,5.36-2.7,1.32-.28,1.01-1.34,1.01-2.21.01-8.33.01-16.65,0-24.98,0-.86.31-1.92-.99-2.22-1.13-1.36-2.69-.93-4.13-1.01-.68-.04-1.61.28-1.62-.91,0-.84.47-1.42,1.27-1.59.71-.16,1.46-.2,2.19-.2,7.93-.01,15.87.08,23.8-.07,2.07-.04,2.81.79,2.39,2.51-.53,2.18,1.03,4.06.52,6.2-.15.62.14,1.34-.89,1.26-.67-.05-1.37.26-1.63-.88-.35-1.51-1.04-2.93-1.59-4.4-.04-.26.12-.76-.46-.39-.4-.21-.8-.43-1.21-.64-3.62-1.7-7.28-1.3-10.95-.23,0,.2-.08.33-.27.39-.63.15-.89.57-.89,1.19,0,3.84,0,7.67,0,11.51,0,.64.34,1,.93,1.18ZM242.51,36.01l-.26-.11c.07.05.15.09.22.14,2.52,1.14,5.09.27,7.64-.03-2.53,0-5.07,0-7.6,0Z" fill="#fff"/><path d="M56.73,36.04c1.75.87,3.63.37,5.45.5.85.06,2.02-.35,1.93,1.19-.06,1.19-.9,1.5-1.92,1.5-4.8,0-9.59,0-14.39,0-.76,0-1.51.04-1.58-1.05-.06-.93.39-1.43,1.25-1.45,3.44-.09,4.55-2.58,5.64-5.23,3.68-8.89,7.41-17.75,11.16-26.61.43-1,1.03-1.95,1.63-2.86,1.1-1.66,2.83-1.44,4.49-1.43,1.69.01,1.34,1.55,1.73,2.43,3.63,8.16,7.13,16.39,10.79,24.54,1.33,2.97,2.02,6.29,4.43,8.72.02.37.04.73.46.2.18.03.37.06.55.09-.2,1.14,1.23.85,1.57,1.52h-17.01c.8-.42,1.6-.36,2.39-.43,3.09-.26,3.99-1.8,2.73-4.53-.84-1.83-1.68-3.67-2.38-5.56-.38-1.02-.88-1.57-1.99-1.43-4.59.01-9.18.03-13.77.04-.71-.12-1.33.03-1.59.75-.89,2.49-1.76,4.99-2.57,7.51-.25.79-.01,1.47.98,1.59ZM72.83,23.12c-2.08-4.96-3.98-9.47-6.1-14.52-1.89,4.75-3.51,8.91-5.2,13.05-.45,1.1-.25,1.49.96,1.48,3.31-.03,6.61-.01,10.34-.01Z" fill="#fff"/><path d="M203.02,6.09c-.07,9.28-.14,18.57-.21,27.86-.38,1.29.28,1.86,1.43,2.16,3.99,1.05,9.9,1.03,12.2-4.47.23-.54.27-1.52,1.55-1.3-.63,2.15-1.25,4.23-1.85,6.32-.27.94-.65,1.62-1.86,1.61-7.57-.04-15.14-.02-23.22-.02,1.6-1.08,3.1-1.1,4.09-2.12.83-.84,1.99-1.57.69-2.91,0-9.21,0-18.42,0-27.62.22-1.96-.3-2.34-4.77-3.23h17.71c-1.75.47-2.86.6-3.81,1.05-1.05.5-2.47.93-1.94,2.66Z" fill="#fff"/><path d="M100.97,34.5s-.05-.12-.05-.12c1.33-.06,1.31-1.01,1.31-1.96,0-8.27,0-16.54,0-24.81,0-.91.15-1.93-1.21-2.05-.77-1.95-2.49-1.49-4.01-1.6-.73-.06-1.87.46-1.99-.81-.11-1.28.87-1.79,1.97-1.82,2.49-.07,4.98-.05,7.47-.05,2.58,0,5.16,0,7.75,0,.73,0,1.52-.11,1.64.97.13,1.12-.48,1.46-1.45,1.55-1.78.17-3.52.44-4.33,2.38-1.09.35-.86,1.28-.86,2.06-.01,8.43,0,16.85,0,25.28,0,.81-.16,1.71.96,1.99,1.08,1.43,2.86,1.02,4.26,1.63-.77-.02.26,1.19-.97,1.16-4.89-.14-9.79-.06-14.96-.06,1.57-1.57,4.67-.64,4.46-3.74ZM109.58,36.89c-.15-.09-.28-.23-.42-.23-.14,0-.28.12-.43.19.13.08.26.23.4.23.14,0,.29-.11.45-.19Z" fill="#fff"/><path d="M132.05,35.48c-1.86-1.05-1.11-2.87-.85-4.16.84-4.18.07-8.44.92-12.62.47-2.32.43-4.74.6-7.12.07-.99-.23-2.21,1.08-2.55,1.36-.35,1.65.92,2.08,1.78,3.76,7.46,7.49,14.94,11.23,22.42.54,1.07,1.04,2.16,1.62,3.21.33.61.4,1.61,1.33,1.55.85-.05,1.02-.98,1.33-1.62,3.95-8.21,7.87-16.43,11.8-24.65.24-.5.48-1,.74-1.49.35-.64.64-1.38,1.59-1.29,1.06.1.94.94,1.03,1.65.36,2.81.74,5.62,1.08,8.44.54,4.54.99,9.09,1.59,13.63.34,2.59-1.05,4.5-3.97,4.94-1.16.17-2.36.03-3.54.14,2.07.65,15.88.67,18.37.13-.14-.95-.93-.62-1.46-.77-2.37-.63-3.57-1.89-3.84-4.61-.65-6.55-.82-13.16-2.01-19.66-.43-2.35.12-4.76-.41-7.15-.24-1.07.87-1.7,2.04-1.71-1.03,1-1.05,2.21-.91,3.56.86,8.35,1.75,16.7,2.42,25.06.2,2.43,1.25,3.44,3.5,3.71.86.1,2.3-.32,2.14,1.39-.14,1.51-1.3,1.56-2.46,1.56-5.91,0-11.82-.01-17.73,0-.92,0-1.69-.07-1.67-1.26.01-1.01.68-1.19,1.49-1.2.09,0,.19,0,.28-.02q6.9-.9,6.26-7.66c-.57-5.87-1.17-11.75-1.78-17.62-.05-.53.05-1.13-.52-1.53-.96.54-1.11,1.62-1.53,2.48-3.71,7.73-7.38,15.48-11.07,23.22-.36.75-.68,1.52-1.13,2.21-1.29,2.01-2.11,1.96-3.21-.19-4.3-8.47-8.57-16.95-12.87-25.41-.4-.78-.55-1.74-1.86-2.51-.57,8.76-1.12,17.24-1.68,25.72Z" fill="#fff"/><path d="M195.83,33.23c1.31,1.33.14,2.06-.69,2.91-1,1.02-2.49,1.03-4.09,2.12,8.08,0,15.65-.02,23.22.02,1.21,0,1.59-.67,1.86-1.61.61-2.09,1.22-4.17,1.85-6.32-1.27-.22-1.32.76-1.55,1.3-2.3,5.49-8.21,5.52-12.2,4.47-1.16-.3-1.81-.87-1.43-2.16,2.97,2.85,10.07,1.98,12.03-1.54.85-1.52,1.51-3.15,2.25-4.74.33-.71.69-1.34,1.65-1.03.98.32,1.3,1.07,1,1.96-1.07,3.2-2.25,6.37-2.86,9.71-.17.94-.95.96-1.73.95-8.2-.01-16.41-.01-24.61,0-.92,0-1.67-.08-1.68-1.25-.01-1.24.9-1.21,1.72-1.27,2.41-.19,4.62-.65,5.25-3.5Z" fill="#fff"/><path d="M73.68,26.15c1.11-.14,1.61.42,1.99,1.43.7,1.89,1.54,3.73,2.38,5.56,1.26,2.73.36,4.27-2.73,4.53-.79.07-1.6,0-2.39.43h17.01c-.35-.67-1.77-.38-1.57-1.52.55-.02,1.1-.06,1.65-.07.77-.02,1.58.02,1.55,1.07-.03.94-.56,1.58-1.54,1.61-1.65.06-3.31.04-4.97.05-3.96,0-7.91,0-11.87,0-.83,0-1.73.14-1.8-1.1-.06-1.17.7-1.23,1.6-1.35,5.19-.68,5.21-.71,3.19-5.49-.74-1.76-1.17-3.68-2.51-5.15Z" fill="#fff"/><path d="M203.02,6.09c-.53-1.73.9-2.16,1.94-2.66.95-.45,2.05-.59,3.81-1.05h-17.71c4.48.89,4.99,1.27,4.77,3.23-.73-1.71-2.23-1.58-3.72-1.66-.83-.04-2.33.74-2.28-1.01.04-1.4,1.28-1.65,2.44-1.65,3.4-.02,6.8-.01,10.2-.02,1.93,0,3.86,0,5.79,0,.81,0,1.74-.19,1.84,1.06.12,1.39-.89,1.37-1.82,1.46-2,.2-4.13.11-5.26,2.3Z" fill="#fff"/><path d="M147.35,19.25c-1.21-.03-1.37-1.1-1.77-1.87-2.31-4.38-4.63-8.76-6.84-13.19-.71-1.42-1.58-2.04-3.2-1.98-3.05.11-6.1.03-9.37.03.66,1.68,2.57.51,2.68,2.12-.91-.11-1.82-.19-2.73-.33-.74-.11-1.89.34-1.91-.94-.01-1.24.98-1.74,2.07-1.77,2.57-.07,5.17.2,7.71-.1,3.24-.38,4.92.86,6.21,3.8,2.14,4.85,4.75,9.5,7.16,14.24Z" fill="#fff"/><path d="M272.78,34.49c.36,3.23-2.81,2.39-4.38,3.69h16.13c.01-.07.03-.14.04-.21-1.24-.29-2.51-.52-3.73-.9-.68-.21-1.49-.56-.76-1.55,1.15,1.28,2.71.87,4.14,1.02.79.08,2.07-.58,2.13.94.06,1.47-1.03,1.77-2.26,1.77-3.13,0-6.26,0-9.39,0-2.03,0-4.05.01-6.08,0-.88,0-1.94.28-1.98-1.18-.04-1.43,1.05-1.29,1.92-1.36,1.73-.14,3.25-.61,4.2-2.2Z" fill="#fff"/><path d="M232.08,4.99c1.3.31.99,1.36.99,2.22.02,8.33.02,16.65,0,24.98,0,.86.3,1.92-1.01,2.21,0-9.8.01-19.6.02-29.41Z" fill="#fff"/><path d="M101.02,5.56c1.36.12,1.21,1.14,1.21,2.05,0,8.27,0,16.54,0,24.81,0,.96.02,1.9-1.31,1.96.03-9.61.07-19.21.1-28.82Z" fill="#fff"/><path d="M100.97,34.5c.21,3.1-2.89,2.17-4.46,3.74,5.16,0,10.06-.08,14.96.06,1.23.03.2-1.18.97-1.16.58-.51,1.26-1.1,1.6.12.23.82.06,1.78-1.05,1.88-1.37.12-2.76.08-4.15.09-3.97,0-7.93,0-11.9-.02-.78,0-1.72.24-1.96-.96-.27-1.38.87-1.04,1.53-1.33,1.55-.68,3.42-.8,4.46-2.41Z" fill="#fff"/><path d="M272.97,7.22c.7.53.57,1.3.57,2.02,0,7.34,0,14.69,0,22.03,0,.72.12,1.49-.6,2.01-.21-8.69-.26-17.37.03-26.06Z" fill="#fff"/><path d="M163.09,6.31c.19,2.94-1.71,5.14-2.79,7.6-1.89,4.28-4.11,8.42-6.19,12.61-.29.58-.58,1.16-1.35,1.23,3.25-7.24,6.58-14.44,10.33-21.44Z" fill="#fff"/><path d="M174.35,4.01c.38-.95,1.51-.86,2.55-1.9-4.94.82-10.2-1.98-13.52,3.46q1.73-4.3,6.14-4.3c2.56,0,5.12.01,7.68,0,.86,0,1.69-.07,1.74,1.15.05,1.15-.68,1.34-1.59,1.38-1,.05-2,.14-2.99.21Z" fill="#fff"/><path d="M108.17,35.51c-1.12-.28-.96-1.18-.96-1.99,0-8.43,0-16.85,0-25.28,0-.78-.22-1.71.86-2.06.03,9.78.06,19.55.09,29.33Z" fill="#fff"/><path d="M239.56,18.9c-.59-.17-.93-.54-.93-1.18,0-3.84,0-7.67,0-11.51,0-.62.26-1.04.89-1.19.02,4.63.04,9.25.05,13.88Z" fill="#fff"/><path d="M272.99,1.13c-1.33,1.1-3.28.16-4.62,1.5.67,1.08,1.92.92,2.87.9,1.48-.04,1.73.65,1.64,1.83-1.01-1.61-2.62-1.37-4.16-1.39-.74-.01-1.81.37-1.84-.96-.02-.96.64-1.55,1.5-1.72,1.52-.3,3.07-.46,4.62-.17Z" fill="#fff"/><path d="M239.6,33.84c-.46-.13-.93-.34-.93-.85-.03-3.08-.03-6.16-.02-9.24,0-.67.48-.91,1.06-1.02-.03,3.7-.07,7.41-.1,11.11Z" fill="#fff"/><path d="M56.73,36.04c-.99-.12-1.23-.8-.98-1.59.81-2.52,1.68-5.02,2.57-7.51.26-.72.88-.87,1.59-.75-1.28,3.21-3.13,6.24-3.17,9.85Z" fill="#fff"/><path d="M152.7,27.88c-.6.52-1.29.55-1.62-.17-1.27-2.81-3.32-5.29-3.75-8.47,1.23,2.24,2.43,4.5,3.71,6.7.42.73.45,1.87,1.66,1.94Z" fill="#fff"/><path d="M239.77,4.63c3.68-1.07,7.34-1.46,10.95.23-3.65-.08-7.3-.16-10.95-.23Z" fill="#fff"/><path d="M280.14,26.12c1.47-.99,2.96-.82,4.47-.12-1.49.04-2.98.08-4.47.12Z" fill="#fff"/><path d="M287.36,1.29c-.77.58-1.51.61-2.17-.17.74-.2,1.47-.15,2.17.17Z" fill="#fff"/><path d="M290.23,2.21c-.52.08-.94-.04-1.17-.57.39.19.78.38,1.17.57Z" fill="#fff"/><path d="M286.5,26.18c.89-.12,1.43.18,1.39,1.16-.46-.39-.93-.77-1.39-1.16Z" fill="#fff"/><path d="M251.93,5.5c.58-.37.42.13.46.39-.15-.13-.31-.26-.46-.39Z" fill="#fff"/><path d="M292.08,2.71c-.27-.16-.53-.33-.8-.49.27.16.53.33.8.49Z" fill="#fff"/><path d="M290.74,2.12c-.12.38-.28.54-.54.09.18-.03.36-.06.54-.09Z" fill="#fff"/><path d="M87.82,36.49c-.42.53-.44.17-.46-.2.19-.03.35.04.46.2Z" fill="#fff"/><path d="M242.51,36.01h7.6c-2.55.31-5.12,1.18-7.64.03l.03-.03Z" fill="#fff"/><path d="M242.48,36.05c-.07-.05-.15-.09-.22-.14.09.04.17.07.26.11,0,0-.03.03-.03.03Z" fill="#fff"/><path d="M109.58,36.89c-.16.07-.31.2-.45.19-.14,0-.26-.15-.4-.23.14-.07.29-.19.43-.19.14,0,.27.14.42.23Z" fill="#fff"/></svg>