<?xml version="1.0" encoding="UTF-8"?><svg id="Headhunting" xmlns="http://www.w3.org/2000/svg" width="296.26" height="40.13" viewBox="0 0 296.26 40.13"><path d="M285.46,22.82c3.62,5.77,7.18,11.46,10.81,17.25h-21.83c-1.49-3.65-3.01-7.36-4.52-11.06-.05.01-.1.02-.15.04v11.02h-39.73c-1.48-3.62-2.98-7.28-4.47-10.94-.05.01-.1.02-.15.03v10.83c-.65.17-17.76.21-18.69.05V.1c.22-.02.42-.05.62-.05,9.8,0,19.6-.01,29.4,0,2.33,0,4.59.42,6.68,1.51,3.1,1.62,4.96,4.2,5.7,7.58.54,2.46.41,4.91-.53,7.26-1.22,3.06-3.53,4.99-6.59,6.1-.27.1-.54.18-.81.27.14.58,9.19,15.07,9.85,15.73V.09c.34-.02.6-.04.85-.04,9.67,0,19.34,0,29.01,0,2.3,0,4.54.34,6.63,1.38,3.48,1.73,5.44,4.57,6.09,8.35.41,2.4.2,4.76-.8,7-1.29,2.89-3.57,4.72-6.52,5.76-.24.09-.49.16-.86.28ZM225.05,17.17c1.21-.05,2.38.1,3.54-.11,1.36-.25,2.25-1.05,2.79-2.28.6-1.38.63-2.79.25-4.23-.43-1.6-1.5-2.53-3.09-2.74-1.13-.15-2.29-.03-3.49-.03v9.39ZM269.48,7.74v9.39c1.07,0,2.09.07,3.09-.02,1.65-.14,2.74-1.07,3.32-2.61.47-1.26.5-2.55.16-3.85-.46-1.73-1.58-2.75-3.38-2.9-1.04-.09-2.09-.02-3.2-.02Z" fill="#fff"/><path d="M173.81,40.1h-19.78c0-1.14-.01-2.25-.01-3.37,0-1.1,0-2.2,0-3.3v-6.68c0-1.12,0-2.24,0-3.41h-6.42v16.74h-20.1c-.16-.61-.19-39.14-.03-39.99h20.1v15.1h6.41V.2c.66-.19,17.53-.27,19.69-.11.01.01.03.03.05.05.02.02.05.04.05.06.01,13.1.03,26.19.04,39.29,0,.18,0,.36,0,.61Z" fill="#fff"/><path d="M82.96,40.08V.11c.22-.02.42-.06.62-.06,10.48,0,20.96,0,31.45,0,1.29,0,2.56.17,3.8.55,2.98.91,5.05,2.82,6.14,5.72,1.11,2.95,1.15,5.94-.05,8.89-.7,1.73-1.89,3.06-3.54,3.96-.11.06-.21.13-.27.17.77.62,1.58,1.17,2.26,1.83,1.43,1.4,2.23,3.16,2.58,5.11.38,2.08.33,4.17-.18,6.23-.91,3.66-3.24,5.94-6.83,6.98-1.44.42-2.92.6-4.42.6-10.27,0-20.55,0-30.82,0-.23,0-.46-.02-.75-.04ZM101.99,23.95v8.12c1.22-.01,2.39.16,3.54-.13,1.35-.34,2.36-1.12,2.78-2.5.38-1.25.26-2.49-.29-3.67-.48-1.02-1.3-1.69-2.41-1.8-1.18-.11-2.39-.03-3.63-.03ZM101.97,15.14c.08.04.15.11.21.11.94,0,1.89.09,2.83-.01,1.39-.16,2.34-.97,2.8-2.31.36-1.06.33-2.11-.08-3.15-.52-1.29-1.46-2.02-2.87-2.07-.84-.03-1.68-.01-2.52,0-.12,0-.24.06-.37.1v7.34Z" fill="#fff"/><path d="M52.77.07h28.25c.18.56.23,6.54.06,7.84h-8.54v7.73c2.8.01,5.59,0,8.36,0,.18.62.24,6.42.09,7.94h-8.33c-.19.64-.26,5.48-.11,7.27.67.11,1.37.04,2.06.05.73.01,1.47,0,2.2,0h4.21c.17.66.2,8.31.04,9.17h-28.25c-.16-.56-.21-38.94-.04-40.01Z" fill="#fff"/><path d="M204.76.1v7.79h-8.46c-.2.61-.25,6.49-.08,7.73h8.41v7.98h-8.44v7.29c.93,0,1.86.02,2.79.02.97,0,1.94,0,2.91,0h2.86v9.15h-28.31s0,0-.03-.03c-.02-.02-.05-.04-.05-.06-.01-13.12-.03-26.24-.04-39.37,0-.15.02-.31.04-.51h28.39Z" fill="#fff"/><path d="M.11.08h19.96c.03,1.61,0,3.2.01,4.78,0,1.62,0,3.25,0,4.87v19.32h8.6v11.02H.15C-.01,39.53-.06,1.11.11.08Z" fill="#fff"/><path d="M50.08.09v39.99h-19.26c-.16-.6-.18-39.13-.03-39.99h19.29Z" fill="#fff"/></svg>