<?xml version="1.0" encoding="UTF-8"?><svg id="Corporate" xmlns="http://www.w3.org/2000/svg" width="108.59mm" height="22.05mm" viewBox="0 0 307.81 62.51"><path d="M77.42,18.35h16.26l6,22.83h.41c.29-1.9.58-3.92,1.1-5.76l4.9-17.07h16.09l7.15,43.47h-15.28l-2.14-23.81h-.29c-.29,1.44-.58,2.94-1.04,4.32l-6.28,19.49h-9.22l-5.65-18.39c-.46-1.84-.87-3.57-.98-5.42h-.52c-.11,1.73-.23,3.52-.4,5.24l-1.85,18.57h-15.28l7.03-43.47Z" fill="#5b5b5b"/><path d="M152.68,46.08l-1.84-7.67c-.46-1.85-.75-3.75-1.04-5.59h-.57l-2.88,13.26h6.34ZM142.25,61.82h-16.72l15.1-43.47h17.47l15.51,43.47h-16.72l-1.44-5.42h-11.94l-1.27,5.42Z" fill="#5b5b5b"/><path d="M216.55,36.22c-.12,7.09-.12,13.03-5.25,18.56-4.61,5.02-11.7,7.73-18.45,7.73-13.26,0-23.98-8.19-23.98-22.14s10.43-22.71,24.1-22.71c7.55,0,17.93,3.75,21.33,11.18l-14.76,5.42c-1.21-2.19-3.46-3.34-6-3.34-5.65,0-8.76,4.84-8.76,10.09,0,4.78,3,9.28,8.13,9.28,2.48,0,5.65-1.15,6.4-3.8h-7.15v-10.26h24.39Z" fill="#5b5b5b"/><path d="M217.73,18.35h15.16l14.18,24.1h.46c-.63-3.63-1.32-7.38-1.32-11.07v-13.03h15.1v43.47h-15.1l-13.89-22.83h-.46c.52,3,.98,5.82.98,8.71v14.12h-15.11V18.35h0Z" fill="#5b5b5b"/><path d="M286.89,46.08l-1.85-7.67c-.46-1.85-.75-3.75-1.04-5.59h-.58l-2.88,13.26h6.34ZM276.45,61.82h-16.72l15.1-43.47h17.47l15.51,43.47h-16.72l-1.44-5.42h-11.93l-1.27,5.42Z" fill="#5b5b5b"/><polygon points="46.29 61.86 62.67 61.86 46.9 18.47 34.91 18.46 32.7 24.5 46.29 61.86" fill="#5b5b5b"/><path d="M35.18,0c-4.39,0-7.96,3.56-7.96,7.96s3.56,7.96,7.96,7.96,7.96-3.56,7.96-7.96-3.56-7.96-7.96-7.96" fill="#5b5b5b"/><polygon points="0 61.86 24.42 61.86 12.21 28.34 0 61.86" fill="#5b5b5b"/><polygon points="27.19 61.86 43.57 61.86 27.79 18.47 15.8 18.46 13.6 24.5 27.19 61.86" fill="#5b5b5b"/></svg>