<?xml version="1.0" encoding="UTF-8"?><svg id="Corporate" xmlns="http://www.w3.org/2000/svg" width="95.92mm" height="22.18mm" viewBox="0 0 271.91 62.88"><path d="M28.05,36.52c2.16-4.32,4.22-8.46,6.29-12.59,2.15-4.29,4.3-8.59,6.45-12.88.06-.11.11-.23.17-.35,1.03-2.27.59-2.94-1.91-2.95-3.18,0-6.35.03-9.53,0-.79,0-1.22.22-1.59.94-4.52,8.99-9.07,17.96-13.61,26.94-.2.4-.26.89-.92.89-4.41-.02-8.81,0-13.4,0,1.61-3.19,3.15-6.24,4.69-9.28,3.02-5.96,6.03-11.92,9.06-17.87.32-.62.38-1.14.11-1.81-.86-2.14-1.63-4.33-2.47-6.48C11.11.35,11.02,0,12.02,0c10.56.03,21.12,0,31.69.03,2.31,0,4.3.8,5.61,2.81.4.62.62.44,1.03.04C52.52.84,55.11-.02,58.09,0c5.71.06,11.42.01,17.13.02,1.11,0,2.22.06,3.31.36,4.47,1.21,6.69,5.91,4.62,10.08-4.22,8.48-8.53,16.9-12.79,25.36-.27.53-.59.7-1.18.7-4.16-.03-8.33-.02-12.52-.02-.07-.53.26-.89.45-1.29,3.91-7.86,7.83-15.71,11.75-23.56.38-.77.78-1.53.84-2.41.06-.89-.32-1.44-1.22-1.45-3.82-.04-7.64-.03-11.46-.06-.63,0-.78.47-.99.86-3.8,7.49-7.58,14.98-11.37,22.47-.79,1.57-1.59,3.13-2.35,4.72-.25.53-.55.74-1.16.73-4.29-.03-8.59-.01-13.12-.01Z" fill="#5b5b5b"/><path d="M195.87,36.51c-4.9,0-9.79-.09-14.69.02-6.66.15-9.22-6.5-7.07-10.96,4.02-8.33,8.24-16.56,12.35-24.84.27-.55.62-.72,1.2-.72,3.99.02,7.99.03,11.98,0,.95,0,.98.27.61,1.02-3.77,7.6-7.52,15.21-11.27,22.81-.23.46-.46.92-.67,1.39-.65,1.49-.1,2.42,1.55,2.5,1.37.06,2.75.02,4.12.02,2.58,0,5.15-.05,7.73.03.89.03,1.27-.32,1.63-1.05,4.25-8.55,8.54-17.08,12.78-25.64.4-.8.84-1.09,1.75-1.08,3.86.06,7.73.05,11.59,0,.89,0,1.04.18.64.98-5.78,11.57-11.54,23.15-17.27,34.74-.37.75-.85.79-1.52.79-5.15-.01-10.31,0-15.46,0h0Z" fill="#5b5b5b"/><path d="M217.73,36.51c1.52-2.87,2.98-5.58,4.37-8.31.35-.68.87-.44,1.32-.44,7.17-.02,14.34-.01,21.51-.02.34,0,.69.02,1.03,0,1.52-.14,2.05-1.16,1.32-2.52-.23-.43-.58-.72-.94-1.03-3.72-3.17-7.46-6.32-11.14-9.54-2.64-2.32-3.81-5.25-3.05-8.77.69-3.17,3.26-5.27,6.82-5.67.89-.1,1.8-.16,2.7-.16,9.66-.01,19.32,0,28.98,0,1.46,0,1.46,0,.79,1.33-.93,1.84-1.89,3.65-2.77,5.51-.32.68-.69.9-1.45.9-5.71-.04-11.42-.03-17.13,0-.96,0-2.17-.21-2.61.89-.46,1.16.66,1.73,1.37,2.37,2.9,2.62,6.08,4.89,9.12,7.35,2.64,2.14,4.51,4.68,4.63,8.23.12,3.46-1.38,6.04-4.31,7.79-2.41,1.44-5.09,2.09-7.86,2.1-10.82.05-21.64.02-32.69.02Z" fill="#5b5b5b"/><path d="M105.89,7.79c-1.67.62-2.3,1.96-2.97,3.31-2.27,4.56-4.59,9.1-6.89,13.64-.95,1.87-.28,2.98,1.85,2.99,3.22.02,6.44-.02,9.66,0,2.13.01,3.65-.8,4.62-2.8,1.56-3.24,3.3-6.4,4.9-9.62.43-.87.76-.82,1.36-.19,1.93,2.05,2.82,4.56,3.29,7.27.54,3.15.4,6.33.23,9.5-.03.59-.26,1.05-.65,1.49-1.87,2.06-4.25,3.08-6.97,3.1-8.76.06-17.52.07-26.27,0-5.23-.04-8.36-4.81-6.61-9.99.88-2.61,2.43-4.9,3.65-7.35,2.48-4.99,5.01-9.95,7.46-14.95.41-.83.76-.99,1.63-.71,3.17,1.04,6.37,1.97,9.56,2.97.73.23,1.39.63,2.15,1.34Z" fill="#5b5b5b"/><path d="M137.1,36.51c2.3-4.54,4.52-8.92,6.74-13.3,2.38-4.7,4.77-9.4,7.15-14.09.69-1.36.69-1.37-.9-1.37-4.12,0-8.24,0-12.36,0-.37,0-.76.1-1.22-.19,1.19-2.36,2.39-4.71,3.57-7.07.25-.49.65-.47,1.09-.47,13.48,0,26.96,0,40.44,0,.76,0,1.03.09.59.9-1.04,1.92-2.04,3.86-2.97,5.83-.36.77-.79,1.04-1.65,1.02-3.65-.06-7.3,0-10.95-.05-1.02-.02-1.59.28-2.07,1.23-4.43,8.85-8.94,17.66-13.37,26.51-.41.82-.86,1.07-1.74,1.06-4.03-.04-8.07-.02-12.33-.02Z" fill="#5b5b5b"/><path d="M92.47.02c11.19,0,22.22,0,33.25,0,2.19,0,4.28.29,6.06,1.73,2.42,1.95,3.35,5.54,1.93,8.52-2.6,5.46-5.34,10.84-8.03,16.26-.11.22-.28.4-.52.75-.05-2.34.07-4.5-.41-6.65-.96-4.29-3.28-7.67-6.6-10.45-5-4.17-10.98-6.26-17.13-7.94-2.23-.61-4.51-1.03-6.77-1.56-.57-.13-1.18-.19-1.77-.64Z" fill="#5b5b5b"/><path d="M189.72,58.05c0,2.73-2,4.75-4.67,4.75-2.7,0-4.61-2-4.61-4.79,0-2.73,2-4.75,4.67-4.75,2.69,0,4.61,2,4.61,4.79ZM185.16,61.79c2.01-.02,3.54-1.66,3.53-3.77-.02-2.17-1.6-3.79-3.68-3.76-2.02.03-3.55,1.66-3.53,3.77.02,2.17,1.59,3.78,3.69,3.76Z" fill="#5b5b5b"/><path d="M210.85,57.97c.02,2.75-1.94,4.81-4.59,4.83-2.72.02-4.67-1.94-4.69-4.71-.02-2.75,1.93-4.81,4.59-4.83,2.72-.02,4.67,1.94,4.69,4.71ZM206.26,61.79c2.02,0,3.56-1.62,3.56-3.74,0-2.17-1.58-3.81-3.65-3.79-2.02.01-3.56,1.63-3.56,3.74,0,2.17,1.57,3.8,3.65,3.79Z" fill="#5b5b5b"/><path d="M67.59,59.75c0,2.29-1.95,3.53-4.69,2.98-1.79-.36-3.2-1.83-3.51-3.67-.35-2.08.52-4.18,2.13-5.17,1.51-.92,3.87-.85,5.25.16.29.21.56.37.26.79-.32.46-.59.27-.96.06-1.88-1.03-3.49-.86-4.67.44-1.25,1.38-1.37,3.55-.27,5.12,1.04,1.49,3.68,1.9,5.08.77.74-.59.36-1.45.34-2.17-.02-.74-.74-.25-1.12-.4-.52-.21-1.54.47-1.54-.46,0-.94,1.03-.28,1.56-.48.04-.01.09,0,.13,0q2.01,0,2.01,2.02Z" fill="#5b5b5b"/><path d="M221.93,59.75c0,2.32-2.09,3.6-4.81,2.96-1.75-.41-3.08-1.85-3.39-3.64-.35-2.07.51-4.18,2.13-5.17,1.51-.93,3.86-.85,5.25.16.29.21.57.36.27.79-.32.46-.58.27-.96.07-1.88-1.03-3.49-.86-4.67.44-1.25,1.38-1.37,3.54-.27,5.12,1.03,1.48,3.68,1.9,5.08.77.74-.59.36-1.45.34-2.17-.02-.74-.74-.25-1.12-.4-.52-.21-1.54.47-1.54-.46,0-.95,1.03-.28,1.56-.48.04-.01.09,0,.13,0q2.01,0,2.01,2.02Z" fill="#5b5b5b"/><path d="M76.11,59.04c.84,1.11,1.68,2.22,2.55,3.37-.75.28-1.26.14-1.69-.49-.53-.78-1.14-1.5-1.69-2.26-.27-.37-.58-.54-1.07-.57-1.98-.11-1.98-.13-1.98,1.91,0,.17.04.35,0,.51-.1.37.35,1.03-.51,1.03-.86,0-.49-.67-.5-1.03-.03-2.36,0-4.72-.03-7.07-.01-.72.18-.97.92-.93,1.03.06,2.06,0,3.09.02,1.75.02,2.88.76,3.17,2.05.34,1.46-.26,2.45-1.99,3.26-.07.03-.13.1-.27.21ZM74.31,54.5s0,.02,0,.03c-.26,0-.51,0-.77,0-.3,0-.6-.01-.9,0-.65.04-.43.57-.39.87.12.91-.54,2.31.35,2.64,1.06.39,2.44.34,3.64-.15.75-.3,1.17-.87,1.13-1.68-.04-.88-.6-1.41-1.41-1.61-.53-.13-1.1-.08-1.66-.11Z" fill="#5b5b5b"/><path d="M29.69,55.55c0,2.06.01,4.06-.01,6.05,0,.36.26.92-.48.94-.78.03-.49-.56-.5-.9-.02-2.4-.02-4.8,0-7.2,0-.29-.23-.73.23-.88.45-.15.79.04,1.09.43,1.51,1.92,3.04,3.82,4.57,5.72.2.25.4.49.79.97,0-2.3-.01-4.3.01-6.29,0-.31-.26-.82.42-.86.72-.04.57.47.57.87,0,2.4.01,4.8,0,7.2,0,.3.22.73-.21.9-.48.2-.78-.12-1.06-.48-1.49-1.88-2.99-3.75-4.5-5.62-.23-.28-.37-.66-.92-.85Z" fill="#5b5b5b"/><path d="M170.63,55.24c0,2.41,0,4.41,0,6.41,0,.38.19.91-.55.89-.68-.02-.44-.52-.44-.84-.02-2.44-.02-4.89,0-7.33,0-.28-.24-.73.29-.84.4-.08.72.04,1,.4,1.21,1.55,2.45,3.08,3.68,4.62.5.63,1.01,1.25,1.72,2.13,0-2.27-.01-4.25.01-6.23,0-.34-.3-.93.48-.92.75,0,.5.56.5.93.02,2.4.02,4.8,0,7.2,0,.29.23.72-.26.87-.43.13-.71-.12-.97-.45-1.73-2.18-3.47-4.34-5.46-6.83Z" fill="#5b5b5b"/><path d="M111.65,57.95c0-1.24.03-2.48-.01-3.73-.02-.57.18-.74.73-.72,1.03.04,2.06-.03,3.08.03,2.46.17,4.19,2.06,4.19,4.49,0,2.42-1.77,4.32-4.21,4.48-1.02.07-2.06-.01-3.08.03-.59.03-.71-.21-.7-.75.03-1.28.01-2.57.01-3.85ZM112.68,58.03c0,.34,0,.68,0,1.03,0,2.72.19,2.88,2.93,2.45,2.1-.33,3.4-2.3,2.85-4.36-.5-1.89-1.73-2.58-4.39-2.65-1.06-.03-1.6.14-1.41,1.35.11.71.02,1.45.02,2.18Z" fill="#5b5b5b"/><path d="M137.93,57.9c0-1.2.03-2.41-.01-3.61-.02-.63.18-.8.8-.79,1.67.04,3.35,0,5.02.02.31,0,.73-.14.72.44-.01.5-.34.5-.71.5-1.29,0-2.58.04-3.86-.02-.73-.03-.94.18-.94.92,0,2.1-.04,2.1,2.06,2.1.64,0,1.29-.02,1.93,0,.38.02.94-.21.92.52-.02.68-.55.39-.86.4-1.03.04-2.06.05-3.09,0-.69-.03-.96.12-.96.89,0,2.3-.05,2.3,2.25,2.3.9,0,1.8.01,2.7,0,.41,0,.67.12.64.58-.03.48-.4.36-.67.36-1.76.01-3.52-.02-5.28.02-.64.01-.67-.31-.66-.79.02-1.29,0-2.58,0-3.86Z" fill="#5b5b5b"/><path d="M101.6,58.03c0-1.25.03-2.49-.01-3.73-.02-.63.18-.8.8-.79,1.67.04,3.35,0,5.02.02.31,0,.73-.13.72.44-.01.5-.34.5-.71.5-1.29,0-2.58.04-3.86-.02-.73-.03-.94.18-.94.92,0,2.1-.04,2.1,2.06,2.1.64,0,1.29-.02,1.93,0,.38.02.94-.21.92.52-.02.68-.55.39-.86.4-1.03.04-2.06.05-3.09,0-.69-.03-.96.12-.96.89,0,2.3-.05,2.3,2.25,2.3.9,0,1.8.01,2.7,0,.41,0,.67.12.64.58-.03.48-.4.36-.67.36-1.76.01-3.52-.02-5.28.02-.64.01-.67-.31-.66-.79.02-1.24,0-2.49,0-3.74Z" fill="#5b5b5b"/><path d="M49.81,57.99c0-1.25.02-2.49-.01-3.74-.01-.54.11-.76.71-.75,1.72.04,3.43.01,5.15.01.34,0,.72-.07.67.49-.04.51-.4.46-.75.46-1.2,0-2.41.05-3.61-.02-.86-.05-1.19.15-1.16,1.09.06,1.93,0,1.93,1.98,1.93.77,0,1.55.01,2.32,0,.41,0,.65.11.63.57-.02.51-.39.36-.65.37-1.16.01-2.32.04-3.48,0-.64-.03-.77.2-.79.8-.08,2.39-.1,2.39,2.28,2.39.9,0,1.8,0,2.71,0,.34,0,.58.08.6.49.03.45-.27.46-.58.46-1.8,0-3.61-.02-5.41.01-.55,0-.63-.24-.62-.7.02-1.29,0-2.58,0-3.86Z" fill="#5b5b5b"/><path d="M90.1,62.41c-1.1.43-1.35-.29-1.52-.94-.29-1.11-.93-1.52-2.05-1.35-.46.07-.95.08-1.41,0-1.5-.28-2.44.25-2.79,1.77-.17.75-.67.76-1.31.53,1.26-2.77,2.52-5.52,3.76-8.29.17-.38.34-.63.83-.63.45,0,.58.27.72.59,1.25,2.76,2.49,5.51,3.77,8.32ZM87.54,59.14c-.69-1.51-1.31-2.85-2-4.36-.71,1.57-1.33,2.92-1.98,4.36h3.99Z" fill="#5b5b5b"/><path d="M230.69,57.64c.11-1.16-.62-3.09.27-3.9.78-.71,2.69-.19,4.1-.22.39,0,.78-.05,1.16.01.35.06.97-.34.98.41,0,.8-.66.49-1.06.51-1.16.04-2.32.05-3.48,0-.7-.03-.96.13-.96.9,0,2.13-.05,2.13,2.04,2.12.77,0,1.55,0,2.32,0,.36,0,.55.1.56.51,0,.47-.29.44-.59.44-1.16,0-2.32.04-3.48-.01-.7-.04-.84.22-.85.87-.04,2.33-.06,2.32,2.22,2.32.9,0,1.8,0,2.7,0,.39,0,.67.08.67.56,0,.49-.38.38-.65.38-1.76.01-3.52-.02-5.28.02-.61.01-.7-.25-.69-.76.03-1.29,0-2.58,0-4.15Z" fill="#5b5b5b"/><path d="M243.63,53.26c.8-.05,1.62.17,2.36.63.26.16.81.23.44.82-.31.49-.57.34-.93.09-.74-.5-1.56-.67-2.45-.58-.81.09-1.4.5-1.52,1.31-.12.79.37,1.3,1.08,1.55.73.25,1.49.39,2.22.63,1.61.53,2.28,1.51,2.06,2.94-.19,1.24-1.28,2.06-2.82,2.13-1.29.06-2.46-.26-3.49-1.05-.24-.18-.52-.34-.23-.71.25-.33.47-.45.84-.14.86.72,1.85,1.05,2.98.94.91-.08,1.58-.5,1.7-1.44.12-.89-.5-1.32-1.25-1.56-.61-.2-1.24-.32-1.86-.5-1.73-.51-2.47-1.48-2.27-2.93.18-1.33,1.34-2.15,3.13-2.16Z" fill="#5b5b5b"/><path d="M165.76,58.15c0,1.24,0,2.49,0,3.73,0,.36.02.66-.51.66-.52,0-.54-.29-.52-.65,0-.04,0-.09,0-.13-.08-1.1.49-2.64-.24-3.17-.76-.56-2.23-.06-3.37-.2-1.33-.17-1.74.32-1.56,1.59.09.63,0,1.29.02,1.93,0,.38-.02.65-.54.64-.54,0-.5-.33-.5-.68,0-2.58,0-5.15,0-7.73,0-.38.03-.65.54-.64.54,0,.5.33.5.68,0,.09,0,.17,0,.26.08.97-.44,2.3.23,2.81.62.48,1.89.15,2.87.15,2.05,0,2.05,0,2.05-2.08,0-.39,0-.77,0-1.16,0-.36-.02-.66.51-.67.52,0,.53.28.52.65,0,1.33,0,2.66,0,3.99Z" fill="#5b5b5b"/><path d="M151.88,62.8c-2.24,0-3.82-1.18-4.46-3.21-.64-2.07.07-4.37,1.72-5.52,1.63-1.14,3.98-1.09,5.53.12.27.21.74.35.31.88-.35.43-.56.27-.93.03-1.58-1.06-3.1-1.12-4.29-.23-1.33.99-1.85,2.8-1.29,4.51.76,2.33,3.34,3.16,5.43,1.75.32-.22.62-.9,1.11-.22.47.64-.24.8-.54,1.03-.8.62-1.72.94-2.6.87Z" fill="#5b5b5b"/><path d="M130.46,58.5c0-.47,0-.94,0-1.41-.02-.81.23-1.8-.15-2.37-.37-.55-1.42-.15-2.17-.19-.41-.02-.77-.02-.74-.6.03-.58.46-.4.75-.41,1.88-.02,3.76-.02,5.65,0,.29,0,.72-.18.76.39.04.57-.3.58-.73.61-.75.04-1.81-.36-2.18.19-.38.56-.15,1.56-.16,2.36-.01,1.58,0,3.17,0,4.75,0,.41.02.75-.58.72-.56-.03-.45-.4-.45-.71,0-1.11,0-2.22,0-3.34Z" fill="#5b5b5b"/><path d="M42.6,58.42c0-.98-.06-1.97.02-2.95.07-.84-.26-1.04-1.01-.96-.51.05-1.03,0-1.54,0-.37,0-.53-.15-.53-.54,0-.45.27-.46.58-.46,2.01,0,4.02,0,6.03,0,.33,0,.57.05.56.49-.01.4-.2.52-.56.51-.09,0-.17,0-.26,0q-2.25.13-2.25,2.38c0,1.63,0,3.25,0,4.88,0,.36.12.78-.53.77-.65-.01-.5-.45-.5-.79-.01-1.11,0-2.22,0-3.34Z" fill="#5b5b5b"/><path d="M94.39,58.45c0-1.03-.04-2.06.01-3.08.04-.67-.16-.93-.85-.86-.55.06-1.11,0-1.67.01-.35,0-.55-.11-.57-.51-.02-.43.21-.49.55-.49,2.01,0,4.02,0,6.03,0,.31,0,.58,0,.59.45,0,.49-.27.54-.66.55-.76.01-1.84-.25-2.21.15-.57.61-.17,1.7-.19,2.59-.04,1.5,0,2.99-.02,4.49,0,.34.17.79-.49.8-.64.02-.53-.4-.53-.76,0-1.11,0-2.22,0-3.34Z" fill="#5b5b5b"/><path d="M193.33,57.93c0-1.16-.02-2.32.01-3.48.01-.35-.29-.91.48-.94.77-.03.53.52.53.89.02,2.02.06,4.04-.01,6.05-.04.93.27,1.17,1.15,1.1,1.02-.08,2.06-.03,3.09-.01.38,0,.93-.2.91.54-.01.67-.52.44-.84.45-1.5.02-3.01-.03-4.51.03-.73.03-.84-.27-.82-.9.04-1.24.01-2.49.01-3.73Z" fill="#5b5b5b"/><path d="M24.82,58.13c0,1.24,0,2.49,0,3.73,0,.34.05.67-.49.68-.51,0-.54-.25-.54-.64,0-2.57,0-5.15,0-7.72,0-.34-.05-.67.49-.68.65-.02.54.39.54.76,0,1.29,0,2.57,0,3.86Z" fill="#5b5b5b"/><path d="M225.79,58.02c0-1.29,0-2.57,0-3.86,0-.37,0-.66.52-.66.53,0,.51.31.51.66,0,2.57,0,5.15,0,7.72,0,.37,0,.66-.52.65-.53,0-.51-.31-.51-.66,0-1.29,0-2.57,0-3.86Z" fill="#5b5b5b"/><path d="M269.92,34.16c.72-.31.78-1.44,1.53-1.17.82.3.31,1.21.32,1.82,0,.55.44,1.58-.33,1.62-.99.05-.23-1-.47-1.51-.06-.14-.04-.32-.06-.51-.53.12-.53.67-.93.89-.15-.23-.31-.49-.64-1,0,.55.05.87-.01,1.17-.07.36.31,1-.38,1-.73,0-.32-.65-.36-.99-.07-.55-.04-1.11,0-1.67.02-.3-.22-.73.25-.88.45-.14.55.31.74.56.15.2.25.45.35.65Z" fill="#5b5b5b"/><path d="M264.86,33.31c1.18-.45,1.52-.45,2.88-.15-.97.2-1.03.74-.98,1.37.04.51,0,1.02,0,1.53,0,.21-.02.42-.32.44-.33.02-.46-.13-.45-.44,0-.51-.02-1.02,0-1.53.03-.7.16-1.47-1.14-1.22Z" fill="#5b5b5b"/></svg>