<?xml version="1.0" encoding="UTF-8"?><svg id="Corporate" xmlns="http://www.w3.org/2000/svg" width="72.45mm" height="27mm" viewBox="0 0 205.38 76.54"><path d="M102.74,0c29.11,0,58.21,0,87.32,0,7.11,0,13.03,4.55,14.83,11.3.33,1.25.47,2.51.47,3.81,0,15.31.03,30.62,0,45.93-.02,9.05-6.55,15.48-15.63,15.48-58.12,0-116.23,0-174.35,0-8.78,0-15.35-6.52-15.36-15.3C0,45.87,0,30.51.02,15.15.04,6.63,6.74,0,15.28,0c29.15,0,58.31,0,87.46,0ZM102.49,9.42c-28.91,0-57.82.04-86.73-.04-4.08-.01-6.42,2.94-6.4,6.37.09,14.88.04,29.76.04,44.64,0,4.26,2.35,6.6,6.62,6.61,57.77,0,115.55,0,173.32.03,3.43,0,6.55-2.02,6.52-6.48-.12-14.74-.14-29.48.02-44.21.05-4.07-2.76-6.99-6.94-6.97-28.81.11-57.63.06-86.44.06Z" fill="#5b5b5b"/><path d="M68.39,49.75c2.45-4.85,4.77-9.46,7.1-14.07,1.28-2.54,2.61-5.06,3.83-7.63.37-.77.81-1,1.62-.99,2.42.05,4.85.06,7.27,0,.9-.02,1.2.24,1.32,1.15.48,3.71,1.07,7.4,1.64,11.3,1.91-3.89,3.75-7.57,5.52-11.28.4-.84.81-1.21,1.79-1.17,2.32.09,4.65.03,6.94.03.25.5-.09.8-.25,1.11-3.46,6.86-6.95,13.71-10.39,20.59-.38.75-.8,1-1.62.99-2.52-.05-5.04-.06-7.55,0-.86.02-1.13-.26-1.24-1.07-.45-3.39-.97-6.76-1.47-10.14-.02-.16.04-.38-.19-.45-1.76,3.5-3.56,6.98-5.25,10.51-.44.92-.97,1.19-1.95,1.15-2.28-.07-4.56-.02-7.11-.02Z" fill="#5b5b5b"/><path d="M121.86,34.27c.15-.39.24-.55.28-.73.29-1.06,1.41-2.2-.07-3.14-1.33-.84-3.85-.3-4.69.87-.08.12-.15.24-.22.36-1.39,2.34-1.23,2.75,1.41,3.46,2.34.63,4.69,1.21,7.01,1.88,2.77.8,3.52,2.2,2.55,4.93-.74,2.11-1.81,4.08-3,5.97-1.13,1.79-3.07,2.2-4.96,2.38-5.31.49-10.63.59-15.92-.22-.05,0-.09-.02-.14-.03-4.39-.83-5.38-3.06-3.07-6.88.26-.43.51-.6,1-.6,3.18.02,6.35,0,9.65,0-.36.89-.71,1.66-.99,2.45-.23.63-.17,1.2.5,1.59,1.48.86,4.17.18,5.04-1.28.05-.08.09-.17.14-.25,1.54-2.83,1.41-3.15-1.69-4.02-2.19-.62-4.4-1.18-6.59-1.82-2.86-.84-3.59-2.57-2.26-5.28.54-1.11,1.21-2.16,1.67-3.3.97-2.4,2.85-3.51,5.27-3.78,5.4-.61,10.81-.64,16.21.01.19.02.37.07.56.11,4.07.89,4.99,3.17,2.77,6.74-.27.43-.54.57-1.02.57-3.09-.02-6.17,0-9.44,0Z" fill="#5b5b5b"/><path d="M146.04,34.98c3.53-2.4,7.07-4.79,10.57-7.23.7-.49,1.39-.69,2.24-.68,2.94.04,5.89.01,8.85.01,0,.57-.45.63-.73.82-4.16,2.84-8.32,5.68-12.5,8.48-.65.43-.84.82-.63,1.62.9,3.5,1.69,7.02,2.56,10.52.21.85.26,1.28-.87,1.25-2.52-.08-5.04-.06-7.56,0-.87.02-1.11-.31-1.25-1.11-.41-2.29-.96-4.55-1.37-6.84-.15-.86-.46-.79-1.13-.58-1.54.49-2.58,1.38-3.2,2.92-.66,1.62-1.56,3.15-2.34,4.72-.24.49-.44.88-1.12.87-3.08-.03-6.17-.02-9.25-.02-.11-.56.22-.88.4-1.25,3.42-6.78,6.86-13.56,10.26-20.35.39-.79.82-1.11,1.72-1.08,2.52.07,5.04.06,7.56,0,1.11-.03,1.49.1.84,1.26-1.16,2.11-2.19,4.29-3.27,6.44.07.07.15.15.22.22Z" fill="#5b5b5b"/><path d="M14.82,49.75c2.97-5.87,5.83-11.54,8.7-17.21.77-1.53,1.56-3.04,2.3-4.59.3-.63.68-.89,1.41-.89,6.28.03,12.56.02,18.83.02.24,0,.48,0,.71.04,2.59.41,3.52,1.44,2.53,4-1.27,3.3-3.05,6.43-4.78,9.54-1,1.78-2.87,2.24-4.81,2.25-3.38.02-6.75.04-10.13-.01-.83-.01-1.28.24-1.63.99-.81,1.72-1.73,3.38-2.57,5.09-.26.53-.56.78-1.18.78-3.04-.03-6.08-.01-9.38-.01ZM30.34,39.11c1.57,0,2.93.03,4.28-.01.78-.02,1.33-.49,1.68-1.15.97-1.84,1.92-3.7,2.86-5.56.48-.95.12-1.47-.9-1.52-1.04-.05-2.09,0-3.13-.02-.42,0-.69.1-.9.51-1.26,2.53-2.54,5.05-3.9,7.74Z" fill="#5b5b5b"/><path d="M180.74,45.66c-.69,1.38-1.25,2.46-1.78,3.57-.19.39-.46.53-.89.53-6.4-.01-12.8,0-19.39,0,1.54-3.04,2.99-5.9,4.44-8.77,2.16-4.28,4.33-8.55,6.45-12.85.39-.79.85-1.07,1.74-1.06,5.84.04,11.69.05,17.53,0,1.19,0,1.1.25.75,1.24-.85,2.41-2.3,3.37-4.88,3.01-1.77-.25-3.61,0-5.41-.07-.91-.04-1.37.28-1.71,1.09-.46,1.08-1.04,2.11-1.67,3.38h9.84c-.68,1.36-1.26,2.48-1.8,3.63-.28.59-.78.44-1.23.44-2.61.01-5.23.04-7.84-.02-.79-.02-1.19.23-1.51.94-.75,1.62-1.59,3.2-2.49,4.96h9.85Z" fill="#5b5b5b"/><path d="M75.34,27.08c.02.25.04.3.03.34q-1.83,3.84-6.14,3.84c-1.52,0-3.05.07-4.56-.03-.92-.06-1.37.29-1.71,1.08-.47,1.08-1.03,2.11-1.67,3.42,2.88,0,5.56,0,8.24,0,1.59,0,1.42-.06.9,1.49-.72,2.16-2.01,2.83-4.22,2.59-1.97-.22-3.99-.02-5.99-.06-.71-.02-1.11.19-1.42.86-.76,1.63-1.6,3.21-2.5,4.98h9.84c-.66,1.33-1.25,2.45-1.77,3.6-.26.57-.69.55-1.17.55-5.99,0-11.98-.02-17.98.02-1.11,0-1.03-.33-.62-1.12,3.51-6.9,7-13.81,10.48-20.73.25-.49.44-.86,1.12-.86,6.37.03,12.74.02,19.13.02Z" fill="#5b5b5b"/></svg>