<?xml version="1.0" encoding="UTF-8"?><svg id="Corporate" xmlns="http://www.w3.org/2000/svg" width="222.35" height="82.19" viewBox="0 0 222.35 82.19"><path d="M81.53,20.37c8.66.2,16.77,2.15,23.57,7.86,15.92,13.35,13.51,38.75-4.69,49.05-8.29,4.69-17.24,5.79-26.56,4.28-8.74-1.42-16.18-5.25-21.51-12.45-10.81-14.62-6.16-35.11,9.85-43.96,6.01-3.32,12.5-4.76,19.33-4.77ZM81.22,30.96c-1.75-.07-3.48.09-5.19.41-8.13,1.51-14.45,5.49-17.25,13.6-2.98,8.61-.01,18.25,8.49,23.05,7.61,4.3,15.72,4.72,23.83,1.88,16.1-5.63,16.31-23.73,8.38-31.95-5-5.18-11.3-6.94-18.26-6.99Z" fill="#d6d6d6"/><path d="M52.91,81.08c-4.31,0-8.34,0-12.37,0-.55,0-.83-.35-1.1-.73-5.01-7.13-10.03-14.25-15-21.41-.63-.92-1.27-1.27-2.4-1.23-3.07.1-6.15.12-9.21.02-1.5-.05-2.06.25-2.03,1.94.12,6.37,0,12.75.08,19.13.02,1.71-.32,2.47-2.24,2.31-2.24-.19-4.52-.12-6.78-.01-1.41.07-1.91-.32-1.86-1.82.11-3.82.04-7.65.04-11.48,0-14.9.02-29.79-.03-44.69,0-1.24.33-1.55,1.53-1.54,7.59.06,15.19-.07,22.78.1,5.1.11,10.2.55,14.81,3.11,4.56,2.54,6.9,6.62,7.47,11.66,1,8.88-2.4,14.76-10.47,18.59-1,.47-1.15,1.72-.04,2.85,3.43,3.49,5.8,7.75,8.71,11.62,2.43,3.24,4.72,6.59,7.06,9.89.32.46.59.95,1.04,1.67ZM19.41,32.09c-2.37,0-4.75.04-7.12-.02-1.06-.03-1.51.18-1.48,1.4.08,4.22.07,8.45,0,12.67-.02,1.05.37,1.24,1.3,1.23,3.82-.06,7.64-.18,11.46-.04,2.36.09,4.55-.51,6.74-1.11,3.89-1.05,5.59-3.51,5.35-7.39-.21-3.38-2.34-5.45-6.22-6.09-3.32-.55-6.67-.71-10.03-.66Z" fill="#d6d6d6"/><path d="M165.65,51.27c0-9.22.03-18.43-.03-27.65,0-1.49.28-2.06,1.97-2.05,12.75.08,25.5.07,38.25,0,1.42,0,1.75.44,1.7,1.75-.09,2.37-.14,4.76.01,7.12.11,1.67-.51,1.98-2.04,1.97-8.98-.07-17.97,0-26.95-.07-1.53-.01-2.13.32-2.06,1.97.13,2.95.09,5.91.02,8.86-.03,1.3.4,1.66,1.68,1.65,8.58-.05,17.16,0,25.73-.06,1.35,0,1.82.33,1.76,1.72-.11,2.43-.11,4.87,0,7.3.06,1.41-.31,1.88-1.8,1.87-8.52-.07-17.04,0-25.56-.07-1.47-.01-1.86.4-1.81,1.85.11,3.71.08,7.42,0,11.13-.03,1.36.4,1.76,1.77,1.76,9.45-.05,18.89-.04,28.34-.02,2.52,0,2.36-.42,2.35,2.27,0,2.26-.09,4.52.03,6.78.07,1.37-.34,1.76-1.73,1.75-9.74-.06-19.47-.04-29.21-.04-3.59,0-7.19-.06-10.78.03-1.3.03-1.67-.36-1.66-1.66.05-9.39.03-18.78.03-28.17h0Z" fill="#d6d6d6"/><path d="M114.49,69.55c0-1.1-.05-2.21.02-3.3.04-.7-.43-1.81.38-2.03,1.05-.29,2.42-.61,3.32.26,2.77,2.67,6.24,4.17,9.67,5.6,2.07.86,4.5.93,6.79,1.21,1.95.24,3.93.34,5.89.39,2.92.07,5.68-.73,8.38-1.75,1.77-.67,2.64-2.14,3.21-3.78.73-2.06-.09-4.07-2.84-5.61-2.99-1.68-6.33-2.48-9.59-3.42-4.11-1.19-8.33-2.01-12.33-3.54-5.61-2.13-10.02-5.56-11.48-11.74-1.76-7.46,1.82-14.6,9.17-18.17,7.37-3.59,15.15-3.94,23.08-2.55,4.06.71,8.02,1.76,11.49,4.15.81.56,1.13,1.17,1.1,2.15-.07,2.26.03,4.52-.05,6.78-.03.79.54,2.03-.44,2.31-1.09.31-2.4.49-3.51-.32-.7-.51-1.39-1.05-2.13-1.48-6.06-3.52-12.65-4.2-19.47-3.5-2.2.23-4.28.82-6.2,2.03-2.65,1.68-3.57,6.72.34,8.81,3.62,1.94,7.58,2.79,11.47,3.91,4.77,1.37,9.6,2.5,14.13,4.68,11.86,5.7,10.52,20.63,1.89,26.65-4.29,2.99-9.14,4.33-14.26,4.7-8.5.62-16.71-.44-24.39-4.52-2.65-1.41-4.37-3.11-3.67-6.36.11-.5.01-1.04.01-1.56h0Z" fill="#d6d6d6"/><path d="M222.32,51.36c0,9.33-.03,18.66.03,28,0,1.36-.35,1.8-1.74,1.74-2.43-.12-4.87-.12-7.3,0-1.46.07-1.82-.4-1.82-1.83.05-15.82.03-31.65.03-47.47,0-2.96.06-5.91-.03-8.87-.03-1.11.33-1.37,1.37-1.35,2.61.06,5.22.1,7.82,0,1.28-.05,1.66.27,1.65,1.61-.06,9.39-.03,18.78-.03,28.17h.01Z" fill="#d6d6d6"/><path d="M160.17,12.24c-2.82,3.19-6.26,2.78-9.79,1.59-.7-.23-1.47-.58-1.45-1.51,0-.61-.28-1.4.25-1.8.55-.42,1.03.27,1.52.54,1.8,1.01,3.7,1.24,5.7.86.76-.14,1.35-.51,1.42-1.29.07-.76-.55-1.11-1.18-1.31-1.38-.44-2.77-.81-4.15-1.26-2.31-.75-3.31-1.97-3.27-3.91.04-1.92,1.28-3.24,3.61-3.84,1.97-.5,3.88-.28,5.8.37,1.46.49,1.38,1.61,1.13,2.68-.23,1-.89.34-1.33.1-1.6-.86-3.26-1.1-5.04-.74-.84.17-1.46.56-1.5,1.41-.04.83.67,1.17,1.34,1.38,1.16.37,2.34.65,3.5,1,2.98.92,3.53,1.59,3.8,4.59.96.05,1.03-.8,1.3-1.36,1.31-2.71,2.58-5.43,3.83-8.17.35-.76.66-1.34,1.73-1.31,1.06.03,1.36.66,1.71,1.4,1.73,3.72,3.48,7.43,5.17,11.17.19.42,1,1.16.19,1.41-.75.24-1.81.5-2.57-.3-.11-.12-.14-.31-.23-.47-.55-.99-.68-2.62-1.68-2.87-1.64-.4-3.46-.25-5.18-.09-1.07.1-1.06,1.37-1.44,2.15-.51,1.06-.95,1.82-2.38,1.73-1.27-.08-1.36-.46-.81-1.39.15-.25.35-.46.01-.78ZM169.18,8.08c-.65-1.42-1.18-2.58-1.8-3.94-.26.41-.44.62-.53.85-.38.94-1.46,2.07-1.02,2.75.54.83,1.98.22,3.36.33Z" fill="#d6d6d6"/><path d="M107.17,5.91c-1,1.61-1.99,3.24-3.02,4.84-.86,1.33-1.94,1.33-2.8,0-1.11-1.72-2.16-3.47-3.28-5.28-.54.73-.24,1.55-.26,2.31-.04,1.74-.06,3.47.01,5.21.04,1.03-.24,1.4-1.34,1.42-1.17.01-1.3-.5-1.28-1.46.04-3.64,0-7.29.04-10.94,0-.57-.52-1.54.61-1.65.92-.09,1.89-.36,2.54.85,1.01,1.88,2.23,3.64,3.36,5.45.3.48.62.95,1.06,1.62,1.39-2.27,2.74-4.28,3.87-6.41.67-1.25,1.49-1.89,2.86-1.52,1.4.37.64,1.56.67,2.33.1,3.41.02,6.83.08,10.24.02,1.11-.34,1.47-1.46,1.51-1.29.04-1.22-.69-1.21-1.54.01-2.28,0-4.57,0-6.85-.15-.04-.3-.08-.46-.12Z" fill="#d6d6d6"/><path d="M191.18,14.19c1.46-3.07,2.87-6.01,4.27-8.96.6-1.25,1.21-2.5,1.74-3.78.33-.78.75-1.12,1.66-1.16,1.02-.05,1.29.51,1.61,1.22,1.69,3.68,3.4,7.35,5.1,11.03.25.55.82,1.2.01,1.66-.67.38-1.48.37-2.07-.27-.31-.33-.48-.78-.75-1.15-.52-.73-.42-2.1-1.41-2.21-1.77-.21-3.62-.25-5.36.07-.83.16-1.05,1.57-1.4,2.46-.4,1.04-.98,1.48-2.07,1.28-.5-.1-1.01-.2-1.52-.2-2.79.03-2.78.04-2.79-2.78,0-3.01-.05-6.03,0-9.04.01-.83-.56-2.03,1.21-2.06,1.69-.03,1.31,1.04,1.31,1.96.01,3.3,0,6.61.01,9.91,0,.61-.18,1.27.43,2.04ZM198.89,4.27c-.61.47-.75,1.18-1.03,1.78-.29.6-.72,1.17-.7,1.96,1.08.06,2.47.52,3.09-.2.51-.59-.58-1.69-.88-2.6-.11-.32-.31-.61-.48-.94Z" fill="#d6d6d6"/><path d="M69.87.05c5.95.07,9.51,4.92,7.43,10.13-1.48,3.71-6.59,5.5-10.99,3.86-3.82-1.43-5.63-5.26-4.31-9.15C62.99,1.97,66.18,0,69.87.05ZM75.2,7.47c.02-2.9-2.09-4.85-5.34-4.93-3.14-.08-5.72,2.12-5.68,4.85.03,2.71,2.35,4.66,5.61,4.72,3.08.05,5.39-1.93,5.42-4.64Z" fill="#d6d6d6"/><path d="M19.27,9.98c0,3.71-.1,3.84-3.83,4.5-2.09.37-4.16.24-6.12-.64-2.61-1.17-4.03-3.22-4.17-6.09-.15-2.86,1-5.07,3.52-6.47,2.86-1.58,5.84-1.66,8.87-.5.73.28,1.26.67,1.25,1.63-.03,1.58-.21,1.74-1.64.98-1.96-1.04-4-1.06-6.06-.45-2.09.62-3.4,2.53-3.28,4.58.12,2.12,1.55,3.83,3.64,4.32,1.19.28,2.39.23,3.62.13,1.29-.11,1.64-.69,1.6-1.9-.04-1.39-1.02-.88-1.72-1.02-.72-.14-1.7.5-2.12-.55-.48-1.19.09-1.94,1.4-1.97.52-.01,1.04,0,1.56,0q3.49,0,3.49,3.44Z" fill="#d6d6d6"/><path d="M137.75,14.2c-1.88.39-3.3.28-4.2-1.53-.48-.97-1.33-1.76-1.86-2.71-.74-1.31-1.91-1.07-3.05-1.04-.67.01-.66.52-.66.99,0,1.04-.05,2.09.01,3.13.06,1.04-.29,1.4-1.38,1.39-1.13-.01-1.33-.48-1.32-1.47.05-3.76.07-7.53,0-11.29-.02-1.11.38-1.4,1.4-1.35,1.79.08,3.59.02,5.38.12,1.82.1,3.41.66,4.09,2.62.67,1.94.07,3.55-1.47,4.68-.95.7-.78,1.13-.21,1.89,1.1,1.46,2.13,2.98,3.26,4.59ZM130.71,6.35c.21-.02.85,0,1.47-.13.95-.18,1.57-.7,1.53-1.77-.04-1.03-.73-1.43-1.58-1.51-1.15-.11-2.31-.07-3.46-.1-.39,0-.59.13-.69.57-.54,2.25.02,2.98,2.74,2.94Z" fill="#d6d6d6"/><path d="M187.68,14.12c-2.15.72-3.43.01-4.35-1.69-.49-.91-1.2-1.7-1.76-2.58-.79-1.25-2.02-1.1-3.11-.85-.99.23-.52,1.26-.58,1.95-.07.69-.08,1.4-.01,2.08.11,1.1-.36,1.36-1.39,1.38-1.11.02-1.16-.52-1.16-1.38.04-3.77.08-7.54,0-11.3-.03-1.2.39-1.49,1.48-1.43,1.74.09,3.48.04,5.21.12,2.28.1,3.62,1.01,4.19,2.74.61,1.85.09,3.43-1.8,4.78-.73.52-.5.85-.15,1.35,1.14,1.59,2.27,3.19,3.44,4.84ZM180.29,2.77s0,.05,0,.07c-.57,0-1.15.01-1.72,0-1.44-.03-.67,1.21-.97,1.81-.25.51-.14,1.49.61,1.6,1.47.21,2.98.28,4.43-.2.72-.24,1.1-.78,1.08-1.57-.02-.82-.44-1.29-1.21-1.44-.73-.14-1.47-.19-2.21-.28Z" fill="#d6d6d6"/><path d="M33.7,14.19c-2.11.54-3.47,0-4.36-1.76-.41-.82-1.1-1.5-1.54-2.31-.62-1.15-1.56-1.37-2.75-1.28-.8.06-1.16.32-1.13,1.14.04.93-.02,1.85.01,2.78.03.93.05,1.64-1.3,1.65-1.3,0-1.37-.6-1.36-1.58.03-3.71.05-7.42,0-11.12-.01-1.05.3-1.46,1.38-1.39,2.19.15,4.4-.17,6.58.3,1.64.35,2.73,1.28,3.05,2.93.32,1.65-.04,3.2-1.53,4.12-1.1.68-.87,1.2-.24,2.03,1.08,1.41,2.07,2.9,3.19,4.49ZM26.14,6.35c.76-.04,1.69.06,2.57-.34,1.03-.47,1.32-1.81.56-2.56-.5-.5-4.46-.93-5.05-.53-.12.08-.2.25-.25.39-.7,1.88.08,3.05,2.17,3.03Z" fill="#d6d6d6"/><path d="M83.59,7.35c0-1.91.04-3.82-.02-5.73-.03-1,.36-1.31,1.32-1.29,2.49.04,4.98.01,7.47-.01.84,0,1.27.24,1.22,1.2-.05.84-.07,1.44-1.19,1.38-1.62-.08-3.25.05-4.86-.05-1.2-.08-1.31.51-1.28,1.46.03.87-.05,1.6,1.22,1.51,1.44-.1,2.9.02,4.34-.05,1.14-.06,1.3.49,1.33,1.47.03,1.12-.53,1.21-1.39,1.19-1.39-.04-2.79.09-4.16-.04-1.36-.13-1.4.6-1.31,1.56.08.87-.48,2.06,1.28,1.94,1.73-.12,3.47.04,5.21-.03,1.1-.05,1.17.49,1.19,1.36.01.87-.18,1.24-1.14,1.21-2.66-.06-5.33-.06-7.99-.01-.99.02-1.29-.31-1.24-1.32.1-1.91.03-3.82.03-5.73h-.01Z" fill="#d6d6d6"/><path d="M138.23,7.4c0-1.85.05-3.71-.02-5.56-.04-1.07.2-1.58,1.42-1.54,2.49.08,4.98,0,7.47.04.41,0,1.37-.15.93.67-.33.6.7,1.9-.92,1.86-1.68-.05-3.36.06-5.03-.03-1.23-.06-1.24.6-1.25,1.5-.01.95.11,1.54,1.29,1.47,1.5-.08,3.01.02,4.51-.02,1.03-.03,1.06.57,1.07,1.34.01.81-.12,1.32-1.12,1.28-1.56-.07-3.13.02-4.69-.04-1.41-.05-1.04.94-1,1.67.04.75-.51,1.86,1.04,1.81,1.79-.05,3.59,0,5.38-.01.81,0,1.32.13,1.24,1.15-.06.84-.1,1.42-1.21,1.4-2.66-.06-5.33-.05-7.99,0-.99.02-1.14-.44-1.13-1.26.04-1.91.01-3.82.01-5.73h-.02Z" fill="#d6d6d6"/><path d="M46.89,5.17c-.04,1.62.04,3.23-.16,4.85-.23,1.85-1.21,3.12-2.84,3.86-2.39,1.1-4.84,1.04-7.23,0-2-.86-2.73-2.59-2.8-4.61-.08-2.6,0-5.21-.07-7.81-.03-1.15.63-1.12,1.44-1.15.89-.04,1.25.26,1.23,1.18-.04,2.31-.07,4.63,0,6.94.09,2.74,1.12,3.65,3.91,3.66,2.6,0,3.78-.99,3.91-3.53.11-2.31.12-4.63.04-6.94-.04-1.15.45-1.36,1.42-1.37,1.07,0,1.21.54,1.16,1.43-.06,1.15-.02,2.31-.02,3.47Z" fill="#d6d6d6"/><path d="M112.46,7.38c0-1.97,0-3.93,0-5.9,0-.62,0-1.19.86-1.16,2.48.08,4.98-.21,7.43.4,1.98.5,3.08,1.88,3.13,3.83.06,2.25-1.07,3.92-3.08,4.46-1.4.38-2.85.53-4.3.42-1.02-.08-1.53.22-1.41,1.34.07.69.02,1.39.01,2.08,0,.79.19,1.59-1.16,1.57-1.29-.01-1.53-.53-1.48-1.65.07-1.79.02-3.59.02-5.38ZM118.19,2.87q-3.21-.05-3.1,2.69c0,.23.02.46.02.69.01.5.27.71.76.71,1.32,0,2.64.06,3.94-.31,1-.28,1.34-.93,1.34-1.92,0-1.01-.57-1.47-1.42-1.66-.67-.15-1.36-.18-1.54-.2Z" fill="#d6d6d6"/><path d="M49.37,7.31c0-1.97,0-3.94,0-5.91,0-.52-.07-1.11.73-1.08,2.42.08,4.87-.25,7.26.36,2.35.6,3.27,1.74,3.28,4.02,0,2.37-1.12,3.81-3.37,4.39-1.31.34-2.64.44-3.97.33-1.19-.1-1.54.38-1.42,1.48.07.63-.02,1.28.02,1.91.07.98-.04,1.6-1.34,1.6-1.28,0-1.22-.69-1.21-1.54.01-1.85,0-3.71,0-5.56h0ZM54.44,2.8c-1,.05-2-.18-2.55.22-.37.27-.08,1.42-.12,2.17-.01.27-.25.6-.17.8.18.43.29.98,1,.96,1.39-.03,2.78.08,4.14-.33.88-.27,1.32-.92,1.31-1.82,0-.91-.48-1.55-1.39-1.73-.79-.15-1.6-.2-2.22-.28Z" fill="#d6d6d6"/><path d="M206.76,7.41c0-1.96.05-3.93-.02-5.89-.04-1.07.46-1.24,1.36-1.22.87.01,1.37.14,1.34,1.23-.08,2.89.02,5.78-.05,8.67-.03,1.23.25,1.8,1.62,1.68,1.43-.12,2.89.02,4.33-.04.93-.04,1.34.19,1.36,1.23.02,1.13-.42,1.36-1.43,1.33-2.43-.06-4.85-.06-7.28,0-.98.03-1.31-.27-1.27-1.27.08-1.9.02-3.81.02-5.72,0,0,.02,0,.03,0Z" fill="#d6d6d6"/></svg>