<?xml version="1.0" encoding="UTF-8"?><svg id="Corporate" xmlns="http://www.w3.org/2000/svg" width="66.44mm" height="24.56mm" viewBox="0 0 188.34 69.62"><path d="M69.06,17.25c7.34.17,14.2,1.82,19.97,6.66,13.48,11.31,11.44,32.82-3.97,41.55-7.02,3.97-14.6,4.91-22.5,3.62-7.4-1.2-13.71-4.45-18.22-10.55-9.16-12.38-5.22-29.74,8.34-37.24,5.09-2.82,10.58-4.03,16.37-4.04ZM68.79,26.23c-1.48-.06-2.94.08-4.39.35-6.89,1.28-12.24,4.65-14.61,11.52-2.53,7.3-.01,15.46,7.19,19.52,6.44,3.64,13.32,4,20.18,1.59,13.64-4.77,13.81-20.1,7.1-27.06-4.23-4.39-9.57-5.88-15.46-5.92Z" fill="#5b5b5b"/><path d="M44.81,68.67c-3.65,0-7.06,0-10.48,0-.47,0-.71-.3-.93-.62-4.24-6.04-8.5-12.07-12.7-18.13-.54-.78-1.08-1.08-2.03-1.04-2.6.09-5.21.1-7.8.02-1.27-.04-1.74.21-1.72,1.64.1,5.4,0,10.8.07,16.2.02,1.45-.27,2.1-1.9,1.96-1.9-.16-3.83-.1-5.74,0-1.19.06-1.62-.27-1.58-1.54.09-3.24.04-6.48.04-9.72,0-12.62.01-25.24-.03-37.85,0-1.05.28-1.31,1.3-1.3,6.43.05,12.87-.06,19.29.09,4.32.1,8.64.46,12.54,2.64,3.86,2.15,5.85,5.61,6.33,9.87.85,7.52-2.03,12.5-8.86,15.75-.85.4-.98,1.46-.03,2.41,2.91,2.95,4.92,6.56,7.37,9.84,2.06,2.74,4,5.58,5.98,8.38.27.39.5.8.88,1.42ZM16.44,27.18c-2.01,0-4.02.04-6.03-.02-.9-.02-1.28.16-1.26,1.19.07,3.58.06,7.16,0,10.73-.01.89.31,1.05,1.1,1.04,3.23-.05,6.47-.16,9.7-.03,2,.08,3.85-.44,5.71-.94,3.3-.89,4.74-2.97,4.53-6.26-.18-2.86-1.98-4.62-5.27-5.16-2.82-.47-5.65-.6-8.5-.56Z" fill="#5b5b5b"/><path d="M140.31,43.42c0-7.81.02-15.61-.02-23.42,0-1.26.24-1.75,1.67-1.74,10.8.07,21.6.06,32.4,0,1.2,0,1.49.37,1.44,1.48-.08,2.01-.12,4.03.01,6.03.09,1.42-.43,1.68-1.73,1.67-7.61-.06-15.22,0-22.83-.06-1.29,0-1.81.27-1.74,1.67.11,2.5.08,5.01.01,7.51-.03,1.1.33,1.41,1.43,1.4,7.27-.05,14.53,0,21.8-.05,1.14,0,1.55.28,1.49,1.46-.09,2.06-.09,4.13,0,6.18.05,1.19-.26,1.59-1.53,1.58-7.22-.06-14.43,0-21.65-.06-1.25-.01-1.57.34-1.54,1.57.09,3.14.07,6.28,0,9.42-.03,1.15.34,1.49,1.5,1.49,8-.05,16-.03,24.01-.02,2.14,0,2-.36,1.99,1.92,0,1.91-.07,3.83.02,5.74.06,1.16-.29,1.49-1.46,1.48-8.25-.05-16.49-.03-24.74-.03-3.04,0-6.09-.05-9.13.02-1.11.03-1.42-.31-1.41-1.41.04-7.95.02-15.91.02-23.86h0Z" fill="#5b5b5b"/><path d="M96.98,58.91c0-.93-.04-1.87.01-2.8.04-.6-.36-1.53.32-1.72.89-.24,2.05-.51,2.81.22,2.35,2.26,5.29,3.53,8.19,4.74,1.76.73,3.81.79,5.75,1.02,1.65.2,3.32.29,4.99.33,2.47.06,4.81-.62,7.1-1.48,1.5-.56,2.23-1.81,2.72-3.2.61-1.74-.08-3.45-2.4-4.75-2.54-1.42-5.36-2.1-8.13-2.9-3.48-1.01-7.05-1.71-10.45-2.99-4.75-1.81-8.48-4.71-9.72-9.95-1.49-6.32,1.54-12.36,7.76-15.39,6.24-3.04,12.83-3.34,19.55-2.16,3.44.6,6.79,1.49,9.74,3.51.68.47.95.99.93,1.82-.06,1.91.02,3.83-.04,5.74-.02.67.46,1.72-.38,1.96-.92.26-2.03.41-2.97-.27-.59-.43-1.18-.89-1.81-1.25-5.14-2.98-10.71-3.56-16.49-2.96-1.87.19-3.62.69-5.25,1.72-2.24,1.42-3.03,5.69.29,7.47,3.06,1.64,6.42,2.37,9.71,3.31,4.04,1.16,8.13,2.12,11.97,3.96,10.04,4.83,8.91,17.47,1.6,22.58-3.63,2.54-7.74,3.67-12.08,3.98-7.2.52-14.16-.38-20.66-3.83-2.24-1.19-3.7-2.63-3.11-5.38.09-.42.01-.88.01-1.32h0Z" fill="#5b5b5b"/><path d="M188.31,43.51c0,7.9-.02,15.81.03,23.71,0,1.16-.29,1.53-1.47,1.47-2.06-.1-4.13-.11-6.18,0-1.24.06-1.54-.34-1.54-1.55.04-13.4.03-26.81.03-40.21,0-2.5.05-5.01-.02-7.51-.03-.94.28-1.16,1.16-1.14,2.21.05,4.42.08,6.63,0,1.08-.04,1.41.23,1.4,1.37-.05,7.95-.03,15.91-.03,23.86h.01Z" fill="#5b5b5b"/><path d="M135.66,10.37c-2.39,2.7-5.3,2.36-8.29,1.35-.59-.2-1.24-.49-1.23-1.28,0-.52-.23-1.19.21-1.52.47-.35.88.23,1.28.46,1.52.86,3.13,1.05,4.83.73.65-.12,1.14-.43,1.2-1.09.06-.64-.46-.94-1-1.11-1.17-.37-2.35-.69-3.51-1.06-1.96-.63-2.81-1.67-2.77-3.32.03-1.63,1.09-2.75,3.06-3.25,1.67-.43,3.29-.23,4.91.31,1.24.42,1.17,1.37.95,2.27-.2.85-.75.29-1.13.08-1.35-.73-2.76-.93-4.27-.63-.71.14-1.23.47-1.27,1.2-.04.7.57.99,1.14,1.17.98.31,1.98.55,2.96.85,2.52.78,2.99,1.34,3.22,3.89.81.04.87-.68,1.1-1.15,1.11-2.29,2.18-4.6,3.25-6.92.3-.65.56-1.14,1.46-1.11.9.03,1.15.55,1.45,1.18,1.46,3.15,2.95,6.3,4.38,9.46.16.36.84.98.16,1.19-.64.2-1.53.43-2.18-.25-.1-.1-.12-.27-.19-.39-.47-.84-.58-2.22-1.42-2.43-1.39-.34-2.93-.22-4.39-.08-.91.09-.9,1.16-1.22,1.82-.43.89-.81,1.54-2.02,1.46-1.08-.07-1.15-.39-.69-1.18.13-.22.29-.39.01-.66ZM143.3,6.85c-.55-1.2-1-2.19-1.52-3.33-.22.35-.37.52-.45.72-.32.8-1.24,1.75-.87,2.33.46.71,1.67.18,2.84.28Z" fill="#5b5b5b"/><path d="M90.77,5c-.85,1.37-1.68,2.74-2.56,4.1-.73,1.12-1.65,1.13-2.37,0-.94-1.46-1.83-2.94-2.78-4.47-.46.62-.2,1.32-.22,1.96-.03,1.47-.05,2.94.01,4.41.04.87-.21,1.19-1.14,1.2-.99.01-1.1-.42-1.09-1.24.04-3.09,0-6.18.04-9.26,0-.48-.44-1.3.52-1.39.78-.07,1.6-.3,2.16.72.86,1.59,1.89,3.08,2.85,4.62.25.41.52.8.9,1.37,1.18-1.92,2.32-3.63,3.28-5.43.57-1.06,1.26-1.6,2.42-1.29,1.18.31.55,1.32.56,1.97.08,2.89.02,5.78.07,8.67.02.94-.29,1.25-1.24,1.28-1.09.03-1.03-.58-1.03-1.3.01-1.94,0-3.87,0-5.81-.13-.03-.26-.07-.39-.1Z" fill="#5b5b5b"/><path d="M161.93,12.02c1.24-2.6,2.43-5.09,3.62-7.59.5-1.06,1.02-2.12,1.48-3.2.28-.66.64-.95,1.41-.99.86-.05,1.09.44,1.36,1.03,1.43,3.12,2.88,6.23,4.32,9.34.22.47.69,1.02,0,1.4-.56.32-1.25.32-1.75-.22-.26-.28-.41-.66-.63-.98-.44-.62-.36-1.78-1.2-1.88-1.5-.18-3.07-.21-4.54.06-.7.13-.89,1.33-1.18,2.09-.34.88-.83,1.26-1.75,1.08-.42-.08-.86-.17-1.29-.17-2.36.02-2.36.03-2.36-2.36,0-2.55-.04-5.1,0-7.66.01-.7-.47-1.72,1.02-1.75,1.43-.02,1.11.88,1.11,1.66,0,2.8,0,5.6,0,8.39,0,.52-.15,1.08.36,1.73ZM168.46,3.62c-.52.4-.63,1-.88,1.51-.24.51-.61.99-.6,1.66.92.05,2.09.44,2.62-.17.44-.5-.49-1.43-.75-2.2-.09-.27-.26-.52-.4-.79Z" fill="#5b5b5b"/><path d="M59.18.04c5.04.06,8.06,4.17,6.29,8.58-1.26,3.14-5.58,4.66-9.31,3.27-3.24-1.21-4.77-4.46-3.65-7.75C53.35,1.67,56.05,0,59.18.04ZM63.7,6.32c.02-2.45-1.77-4.11-4.52-4.17-2.66-.06-4.84,1.79-4.82,4.11.03,2.3,1.99,3.95,4.75,4,2.61.05,4.57-1.63,4.59-3.93Z" fill="#5b5b5b"/><path d="M16.32,8.45c0,3.14-.08,3.25-3.24,3.81-1.77.32-3.53.21-5.18-.54-2.21-.99-3.41-2.73-3.53-5.15-.12-2.42.84-4.3,2.98-5.48,2.42-1.34,4.95-1.41,7.51-.42.62.24,1.07.57,1.06,1.38-.02,1.34-.17,1.48-1.39.83-1.66-.88-3.39-.9-5.13-.38-1.77.53-2.88,2.14-2.78,3.88.1,1.79,1.31,3.24,3.08,3.66,1.01.24,2.03.2,3.06.11,1.1-.09,1.39-.59,1.35-1.61-.04-1.18-.86-.75-1.46-.87-.61-.12-1.44.43-1.8-.47-.4-1.01.07-1.64,1.19-1.67.44-.01.88,0,1.32,0q2.96,0,2.96,2.92Z" fill="#5b5b5b"/><path d="M116.68,12.03c-1.59.33-2.79.23-3.56-1.3-.41-.82-1.13-1.49-1.58-2.29-.63-1.11-1.62-.91-2.58-.88-.57.01-.56.44-.56.84,0,.88-.04,1.77.01,2.65.05.88-.25,1.19-1.17,1.18-.96-.01-1.13-.4-1.11-1.25.04-3.19.06-6.38,0-9.57-.02-.94.32-1.19,1.19-1.15,1.52.07,3.04.02,4.56.1,1.54.09,2.89.56,3.46,2.22.57,1.64.06,3-1.25,3.96-.81.59-.66.95-.18,1.6.94,1.24,1.8,2.53,2.76,3.89ZM110.71,5.38c.18-.01.72,0,1.25-.11.8-.15,1.33-.59,1.29-1.5-.03-.87-.62-1.21-1.34-1.27-.97-.09-1.95-.06-2.93-.09-.33,0-.5.11-.59.48-.46,1.9.01,2.53,2.32,2.49Z" fill="#5b5b5b"/><path d="M158.97,11.96c-1.82.61-2.91,0-3.68-1.43-.42-.77-1.02-1.44-1.49-2.19-.67-1.06-1.71-.93-2.63-.72-.83.19-.44,1.07-.5,1.65-.06.58-.07,1.18-.01,1.76.1.93-.3,1.16-1.18,1.17-.94.01-.99-.44-.98-1.17.03-3.19.06-6.38,0-9.57-.02-1.01.33-1.26,1.25-1.21,1.47.08,2.95.03,4.42.1,1.93.09,3.06.86,3.55,2.32.51,1.57.07,2.9-1.53,4.04-.62.44-.43.72-.12,1.14.96,1.35,1.92,2.7,2.92,4.1ZM152.7,2.35s0,.04,0,.06c-.49,0-.97,0-1.46,0-1.22-.03-.57,1.03-.82,1.54-.21.43-.12,1.26.51,1.36,1.24.18,2.53.24,3.75-.17.61-.2.93-.66.92-1.33-.01-.69-.38-1.1-1.02-1.22-.62-.12-1.25-.16-1.87-.24Z" fill="#5b5b5b"/><path d="M28.54,12.02c-1.79.46-2.94,0-3.69-1.49-.35-.69-.93-1.27-1.3-1.95-.53-.97-1.32-1.16-2.33-1.09-.68.05-.98.27-.95.97.03.78-.01,1.57.01,2.36.03.79.04,1.39-1.1,1.4-1.1,0-1.16-.51-1.15-1.34.03-3.14.04-6.28,0-9.42-.01-.89.25-1.24,1.17-1.17,1.85.13,3.72-.15,5.57.25,1.39.3,2.31,1.09,2.58,2.48.27,1.4-.03,2.71-1.3,3.49-.93.58-.74,1.02-.2,1.72.92,1.19,1.75,2.45,2.7,3.8ZM22.14,5.38c.64-.03,1.43.05,2.17-.29.87-.4,1.12-1.53.47-2.17-.42-.42-3.78-.78-4.28-.44-.1.07-.17.21-.21.33-.59,1.6.07,2.59,1.84,2.57Z" fill="#5b5b5b"/><path d="M70.8,6.22c0-1.62.04-3.24-.01-4.85-.03-.85.3-1.11,1.12-1.1,2.11.03,4.22.01,6.33-.01.72,0,1.08.2,1.03,1.01-.04.71-.06,1.22-1.01,1.17-1.37-.07-2.75.04-4.12-.04-1.02-.06-1.11.43-1.08,1.24.02.74-.04,1.35,1.03,1.28,1.22-.09,2.45.02,3.68-.05.97-.05,1.1.41,1.12,1.24.03.95-.45,1.03-1.18,1.01-1.18-.03-2.36.08-3.53-.03-1.15-.11-1.19.5-1.11,1.32.07.73-.41,1.75,1.08,1.64,1.46-.1,2.94.04,4.41-.03.93-.04.99.42,1,1.15.01.73-.15,1.05-.97,1.03-2.25-.05-4.51-.05-6.77,0-.84.01-1.09-.26-1.05-1.11.08-1.61.02-3.24.02-4.85h-.01Z" fill="#5b5b5b"/><path d="M117.08,6.27c0-1.57.04-3.14-.01-4.71-.03-.9.17-1.34,1.21-1.3,2.11.07,4.22,0,6.32.03.35,0,1.16-.13.79.56-.28.51.59,1.61-.78,1.57-1.42-.04-2.85.05-4.26-.03-1.04-.05-1.05.5-1.06,1.27-.01.81.09,1.3,1.09,1.25,1.27-.07,2.55.02,3.82-.02.88-.03.89.49.9,1.13,0,.69-.1,1.12-.95,1.08-1.32-.06-2.65.01-3.97-.03-1.19-.04-.88.79-.85,1.41.03.63-.43,1.57.88,1.53,1.52-.05,3.04,0,4.56-.01.68,0,1.12.11,1.05.97-.05.71-.08,1.21-1.02,1.18-2.25-.05-4.51-.04-6.76,0-.84.02-.97-.37-.95-1.07.03-1.62,0-3.24,0-4.85h-.01Z" fill="#5b5b5b"/><path d="M39.72,4.38c-.04,1.37.04,2.74-.13,4.11-.19,1.57-1.03,2.64-2.4,3.27-2.02.93-4.1.88-6.13,0-1.69-.73-2.32-2.2-2.37-3.91-.07-2.2,0-4.41-.06-6.62-.03-.97.53-.95,1.22-.98.75-.03,1.06.22,1.04,1-.04,1.96-.06,3.92,0,5.88.08,2.32.95,3.09,3.31,3.1,2.2,0,3.2-.84,3.31-2.99.1-1.96.1-3.92.03-5.88-.03-.97.38-1.15,1.21-1.16.91,0,1.03.46.99,1.21-.05.98-.01,1.96-.01,2.94Z" fill="#5b5b5b"/><path d="M95.26,6.25c0-1.67,0-3.33,0-5,0-.52,0-1.01.73-.98,2.1.06,4.22-.18,6.29.34,1.68.42,2.61,1.59,2.65,3.24.05,1.9-.91,3.32-2.61,3.78-1.19.32-2.41.45-3.64.35-.87-.07-1.29.19-1.19,1.13.06.58.02,1.18.01,1.76,0,.67.16,1.35-.98,1.33-1.1-.01-1.3-.45-1.26-1.4.06-1.52.02-3.04.02-4.56ZM100.1,2.43q-2.72-.04-2.62,2.28c0,.19.01.39.02.58,0,.42.23.6.64.6,1.12,0,2.24.05,3.34-.26.84-.24,1.13-.79,1.13-1.63,0-.85-.48-1.25-1.2-1.41-.57-.12-1.15-.15-1.3-.17Z" fill="#5b5b5b"/><path d="M41.82,6.19c0-1.67,0-3.34,0-5.01,0-.44-.06-.94.62-.92,2.05.07,4.12-.21,6.15.31,1.99.51,2.77,1.48,2.77,3.41,0,2-.95,3.23-2.86,3.72-1.11.28-2.23.38-3.36.28-1-.09-1.3.32-1.2,1.26.06.53-.02,1.08.02,1.62.06.83-.04,1.35-1.13,1.35-1.09,0-1.03-.58-1.03-1.3.01-1.57,0-3.14,0-4.71h0ZM46.11,2.37c-.85.04-1.7-.15-2.16.19-.31.23-.07,1.2-.1,1.84-.01.23-.21.5-.14.68.15.36.24.83.84.82,1.17-.03,2.36.07,3.5-.28.74-.23,1.12-.78,1.11-1.54,0-.77-.4-1.32-1.18-1.47-.67-.13-1.35-.17-1.88-.23Z" fill="#5b5b5b"/><path d="M175.12,6.28c0-1.66.04-3.33-.02-4.99-.03-.91.39-1.05,1.15-1.04.74.01,1.16.12,1.14,1.04-.07,2.45.02,4.9-.05,7.34-.03,1.05.21,1.52,1.37,1.42,1.21-.11,2.45.01,3.67-.03.78-.03,1.13.16,1.15,1.04.02.95-.36,1.15-1.21,1.13-2.05-.05-4.11-.05-6.17,0-.83.02-1.11-.22-1.08-1.07.06-1.61.02-3.23.02-4.84,0,0,.02,0,.02,0Z" fill="#5b5b5b"/></svg>