<?xml version="1.0" encoding="UTF-8"?><svg id="Corporate" xmlns="http://www.w3.org/2000/svg" width="139.92mm" height="25.33mm" viewBox="0 0 396.61 71.79"><path d="M11.69,30.88c-.81-5.25-1.18-10.44.92-15.54C16.45,6.05,24.93.12,35,.05c11.51-.08,23.03-.03,34.54-.03.41,0,.82.04,1.75.09-3.51,3.65-6.71,7-9.92,10.34-.51.44-1.11.8-1.5,1.32-1.66,2.23-3.75,2.99-6.58,2.88-5.87-.22-11.76.16-17.62-.1-9.73-.44-19.29,7.28-21.36,16.92-.19.89-.15,1.92-1.33,2.37-.42-.98-.84-1.97-1.26-2.96Z" fill="#5b5b5b"/><path d="M283.96,27.25c.14.09.28.18.41.26,2.47,1.75,4.46,3.88,5.63,6.74,1.24,3.01,1.13,6.14,1.08,9.28,0,0,0-.01,0-.01-.32,1.2-.64,2.4-.96,3.6-.12.11-.15.24-.1.39-.62.57-.92,1.31-1.07,2.12-.52.67-1.05,1.35-1.57,2.02-6.13,4.97-11.01,5.29-18.49,1.2-.44.59-.24,1.27-.29,1.92,0,0-.02.02-.02.02-2.63.04-5.26.06-7.9.13-1.04.03-1.52-.27-1.52-1.42.03-12.36.02-24.73-.01-37.09,0-1.09.39-1.49,1.49-1.46,2.8.08,5.6.08,8.41.12,0,0,0,0,0,0,0,4.35,0,8.7,0,13.5,5.02-2.95,9.89-3.33,14.9-1.32ZM280.84,41.02c.08-4.23-2.52-7.47-5.99-7.45-3.25.02-5.85,3.05-6,7-.16,4.24,2.38,7.34,6.02,7.34,3.41,0,5.89-2.86,5.97-6.88Z" fill="#5b5b5b"/><path d="M7.08,63.95c.18-.18.36-.35.54-.53,2.05-1.68,3.94-3.52,5.6-5.59.94-.5,1.97-.4,2.98-.4,6.71,0,13.43.01,20.14-.03,2.47-.01,4.92-.23,7.1-1.58,7.2-2.96,11.5-8.31,13.14-15.84.09-1.08.17-2.16.26-3.25.29.1.59.2.88.3,3.17,8.28,3.22,16.34-1.84,23.97-3.39,5.1-8.17,8.37-13.99,10.2-2.02.19-4.01.6-6.06.59-11.04-.05-22.08-.02-33.12-.04-.87,0-1.81.24-2.72-.4,1.12-1.22,2.14-2.33,3.17-3.43.12-.15.25-.29.37-.44.15-.15.31-.3.46-.46.56-.15.78-.62,1.06-1.05.83-.51,1.51-1.18,2.02-2.01Z" fill="#5b5b5b"/><path d="M92.58,54.31c-.26-.18-.52-.35-.78-.53.21-2.21.42-4.42.63-6.63.5-.77-.43-2.12,1.02-2.51,3.4,2.05,7.07,3.21,11.07,2.88,1.89-.16,3.88-.62,4.3-2.84.42-2.19-1.05-3.37-2.94-4.09-.23-.07-.46-.14-.68-.21-1.29-1.06-2.87-1.42-4.43-1.84l-.2-.12s-.23.02-.23.02c-1.18-.54-2.36-1.09-3.55-1.63,0,0,.02.04.02.04-.09-.32-.32-.44-.64-.42h0c-.56-.42-1.12-.85-1.68-1.27,0,0-.1-.12-.1-.12-.56-.59-1.13-1.18-1.69-1.77,0,0,.02.01.02.01-1.43-2.92-1.5-5.97-.91-9.09.14-.31.27-.63.41-.94.96-1.54,2.26-2.79,3.54-4.05,0,0,0,.01,0,.01,2.77-1.6,5.91-2.18,8.92-3.08,1.1.27,2.19.04,3.28-.08.34,0,.68,0,1.02,0,1.09.1,2.17.41,3.27.09,1.97.5,3.93,1,5.9,1.51,0,0-.01-.02-.01-.02,0,.82,0,1.65,0,2.47,0,0,.01,0,.01,0-.32,2.05-.64,4.1-.96,6.16,0,0-.03.02-.03.01-.17-.04-.34-.03-.5.03l-.18-.11s-.21.02-.21.02c-.94-.7-2-1.03-3.17-.99,0,0,0,0,0,0-2.82-1.2-5.71-1.41-8.62-.4-1.02.35-1.71,1.06-1.73,2.24-.02,1.17.31,2.02,1.55,2.54,1.55.64,2.98,1.56,4.7,1.75,0,0,.02,0,.02,0,.33.13.65.25.98.38.16.06.33.11.49.17.25.39.63.49,1.06.45.5.22,1,.45,1.5.67,1.69,1.19,3.37,2.37,5.06,3.56,0,0-.02-.01-.02-.01,1.04,1.92,2.03,3.83,2.16,6.11.28,5.03-2.17,8.47-6.23,11.03,0,0,.01-.02.01-.02-7.06,2.68-14.22,2.13-21.4.67Z" fill="#5b5b5b"/><path d="M233.81,55.8c-.66-.12-1.33-.27-1.85.34.11-.77-.52-.73-.97-.86-5.89-1.73-8.86-5.94-9.86-11.72-1.3-7.5,2.32-14.43,8.71-16.86,2.64-1,5.36-.63,8.07-.53.3.04.59.09.89.13.66.47,1.34.88,2.16.96,0,0,0,0,0,0,.64.63,1.31,1.53,2.23,1.3.58-.15.24-1.17.32-1.8,0,0,.03-.04.03-.04,2.55-.04,5.1.01,7.64-.14,1.68-.1,2.18.47,2.15,2.13-.09,6.43.01,12.87-.06,19.3-.03,2.25,1.03,5.24-.5,6.54-1.31,1.11-4.22.25-6.4.43-1.83.15-3.18-.07-2.83-2.74-1.45,1-2.53,1.76-3.62,2.51,0,0,0,0,0,0-2.04.36-4.07.71-6.11,1.07ZM231.47,41.08c.09.55.12,1.6.43,2.55.79,2.44,2.38,4.14,5.05,4.42,2.57.27,4.35-1.06,5.58-3.2,1.61-2.79,1.27-7.01-.82-9.33-1.6-1.77-3.58-2.57-5.97-1.75-2.68.92-4.26,3.49-4.27,7.32Z" fill="#5b5b5b"/><path d="M311.08,26.14c.18.03.36.05.53.08,1.43,1.22,3.45,1.31,4.96,2.94.06-1.08.09-1.75.13-2.41,0,0,.02-.03.02-.03,2.55-.05,5.1-.03,7.64-.17,1.68-.1,2.18.53,2.16,2.18-.08,6.86-.03,13.73-.02,20.59q0,5.61-5.49,5.61c-.51,0-1.03-.07-1.53.01-1.86.3-3.1-.17-2.78-3-2.58,2.66-5.43,3.16-8.22,3.83-1-.01-2-.03-3-.04-4.44-1.14-7.96-3.45-9.85-7.78-.5-1.14-.92-2.32-1.38-3.49-.03-.3-.06-.6-.09-.9.01-1.52-.1-3.06.06-4.57.63-5.83,3.3-10.24,9.04-12.38,2.56-.95,5.2-.56,7.82-.47ZM316.7,40.78c0-3.38-1.71-6.08-4.41-7.04-2.17-.77-4.68.06-6.3,2.08-2.05,2.56-1.79,7.86.52,10.37,2.25,2.44,5.82,2.53,8.11.13,1.46-1.53,2.12-3.42,2.09-5.54Z" fill="#5b5b5b"/><path d="M342.25,39.98c-.24,4.59-.24,9.19-.03,13.78-.02.3-.04.61-.06.91,0,0,.04-.03.04-.03-2.89.61-5.82.13-8.73.28-.86.04-1.16-.47-1.33-1.17.23-8.16.21-16.32.01-24.49.4-.96-.39-2.46,1.3-2.83.4,0,.8,0,1.19.01.49,0,.99,0,1.48.01,1.05,0,2.11,0,3.16,0,2.11-.2,1.74,1.69,2.19,2.89,1.8-1.1,3.43-2.1,5.05-3.09.48-.07.96-.14,1.44-.21,1.69,0,3.39.02,5.08.03.34.05.68.09,1.02.14,2.43,1.13,4.7,2.47,6.28,4.73,0,.2.09.32.28.37.15.96.57,1.8,1.11,2.6.05.32.1.63.16.95.1,6.63.19,13.26.29,19.89-.29.12-.58.24-.87.36-.87-.35-1.74-.18-2.61.03-1.03-.26-2.06-.26-3.09,0-2.68.29-3.35-.96-3.19-3.5.24-3.88.11-7.79.03-11.69-.07-3.3-2.19-5.46-5.15-5.45-2.95.01-4.91,2.14-5.04,5.47Z" fill="#5b5b5b"/><path d="M147.94,44.55c-.07-.67-.15-1.34-.22-2-.15-3.18.41-6.22,1.72-9.12,0,0,0,0,0,0,.31-.06.42-.27.39-.56.13-.08.18-.19.14-.33,2.44-3.04,5.64-4.96,9.27-6.25.63-.08,1.27-.16,1.9-.24.71.06,1.43.12,2.08-.28.67,0,1.34,0,2.01,0,2.37.53,4.75,1.06,7.12,1.59,0,0-.02-.02-.02-.02,1.06.64,2.11,1.29,3.17,1.93,0,0,.03.02.03.02.11.56.26,1.07,1,.99l.04.02c.65.7,1.3,1.4,1.95,2.11h0c.67,1.39,1.34,2.78,2,4.18.05.29.09.59.14.88.25,3.46.25,6.88-1.16,10.15,0,0,.01-.02.01-.02-.47.7-.94,1.41-1.4,2.11-.49.32-.92.67-.75,1.35l-.05.05c-.58-.36-.68.14-.87.48-.85.32-1.52.88-2.09,1.57,0,0,0-.02,0-.02-.62.25-1.25.5-1.87.76-10.37,4.44-19.94.79-24.54-9.34ZM157.99,41.08c.03.3.01,1.16.18,1.98.61,2.97,2.83,5.11,5.54,5.42,2.51.28,5.19-1.31,6.19-3.96,1.09-2.87,1.16-5.82-.49-8.54-2.45-4.05-8.04-3.89-10.42.18-.81,1.39-.98,2.85-1,4.92Z" fill="#5b5b5b"/><path d="M202.18,52.23c-.04.51-.09,1.01-.13,1.52-.23.49-.46.97-.69,1.46l-.17-.04s-.13.12-.13.12c-.84.05-1.69.02-2.51.17-4.15.72-7.78-.21-10.76-3.27,0,0,.01.01.01.01-.79-1.76-1.66-3.52-1.74-5.49-.11-2.95-.14-5.9-.17-8.85-.03-4.15-.01-4.15-4.17-4.09l-.11.09.09-.11c-.03-1.69-.08-3.38-.08-5.07,0-.62-.18-1.28.79-1.59,3.67-1.18,3.66-1.22,3.33-4.95,0-.34,0-.69,0-1.03.31-3.65.31-3.66,4.05-3.65,2.04,0,4.07.07,6.11.11,0,0,0,0,0,0,0,2.53.05,5.06.01,7.6-.02,1.33.37,1.93,1.88,1.95,4.38.07,4.38.15,4.32,4.63,0,.67-.08,1.35-.12,2.02v.02c-.86-.01-1.7-.04-2.55-.04q-3.68,0-3.43,3.69c-.1,2.38-.24,4.75.08,7.13.24,1.87,1.48,2.65,3.18,3.07,1.11.27,2.66-.83,3.22.39.42.91-.2,2.28-.34,3.45-.03.25,0,.5.01.75Z" fill="#5b5b5b"/><path d="M145.75,49.79c.03.98.06,1.96.09,2.94-.02,1.11-.28,1.93-1.64,2.09-.9.1-1.76.52-2.63.8,0,0-.06-.07-.06-.07-1.3.08-2.6.15-3.9.23-.58-.02-1.16-.04-1.74-.07-3.54-.98-6.87-2.36-9.49-5.05h0c-.48-.69-.96-1.38-1.45-2.07-.19-.33-.38-.66-.57-.99-.12-1.11-.54-2.12-1.06-3.09-.04-.32-.08-.64-.13-.95.01-2.04.03-4.09.04-6.13.04-.29.08-.58.12-.87.53-1.14,1.02-2.29,1.58-3.41,1.81-3.64,5.2-5.31,8.67-6.88,0,0-.02.02-.02.02,3.38-.43,6.77-.39,10.16-.05,0,0-.01,0-.01,0,1.48.47,2.44,1.3,2.11,3.03-.01.34-.03.68-.04,1.02-.01.33-.03.66-.04.98,0,0,.02-.01.02-.01-.11.49-.34.99-.3,1.46.17,2.08-.63,2.36-2.47,1.67-1.38-.51-2.92-.93-4.39-.06,0,0,.01,0,.01,0-3.49.65-5.14,2.82-5.06,6.66,0,.17.02.35.02.52-.09.41-.12.82.22,1.15,0,0-.04.06-.04.06.28,1.16.66,2.24,1.81,2.86h0c2.92,3.06,6.28,1.85,9.57.73.24,1.32.43,2.4.62,3.47Z" fill="#5b5b5b"/><path d="M55.45,37.43c-.48,2.05-.7,4.17-1.66,6.1-.35.69-.56,1.47-1.52,1.47-2.46.01-4.93,0-7.39-.01-1.16,0-1.09-.7-.88-1.56.3-1.23.73-2.49.7-3.72-.06-2.3.83-3.06,3.14-2.86,2.44.21,4.92.04,7.38.03.08.18.15.37.23.55Z" fill="#5b5b5b"/><path d="M16.89,43.54c-.25-2.14-2.26-4.63-.82-6.23,1.21-1.34,4.04-.4,6.15-.39,4.27.03,3.6-.84,3.93,3.72.03.42-.1.87,0,1.26.75,3.1.76,3.09-2.38,3.1-1.96,0-3.91.04-5.87.06,0,0-.03-.01-.03-.01-.16-.18-.32-.37-.49-.55-.16-.32-.33-.65-.49-.97Z" fill="#5b5b5b"/><path d="M18.91,46.69c.34-.04.67-.08,1.01-.11,4.7-.44,9.2-.59,11.13,5.13.54,1.6,2.54,2.33,3.11,4.05-6.55-.57-11.67-3.54-15.25-9.08Z" fill="#5b5b5b"/><path d="M36.85,55.76c.6-2.21,3.04-3.11,3.77-5.17,1.35-3.79,4.15-4.54,7.72-4.05,1,.14,2.03.02,3.35.02-2.25,3.98-5.58,6.32-9.34,8.18-1.83.34-3.67.68-5.5,1.02Z" fill="#5b5b5b"/><path d="M50.57,23.18c.32.57.63,1.15,1.14,2.08-2.82,0-5.41,0-8,0-.56,0-.97-.23-1.19-.76-1.27-2.99-3.46-5.35-5.85-7.97,3.44-.24,6.06,1.09,8.71,2.31.18.09.36.19.55.28,1.11.92,2.23,1.84,3.34,2.76,0,0,.05.03.05.03.26.25.51.5.77.76l.48.51Z" fill="#5b5b5b"/><path d="M35.67,18.11c1.6,1.84,3.31,3.6,4.58,5.71.59.97.55,1.51-.82,1.48-3.03-.05-6.07-.02-9.37-.02,1.13-3.09,3.31-5.06,5.28-7.17.11.05.22.05.32,0Z" fill="#5b5b5b"/><path d="M35.3,35.34c-1.28,0-2.56.1-3.83-.03-1.27-.14-2.76.69-3.78-.58-.49-.62.99-6.9,1.57-7.34.41-.31,12.05-.24,12.43.07.49.41,1.84,6.82,1.56,7.39-.35.72-1.02.47-1.57.48-2.13.03-4.25.01-6.38.01Z" fill="#5b5b5b"/><path d="M35.52,36.9c2.04,0,4.08.05,6.11-.02,1.31-.05,1.75.28,1.59,1.72-.74,6.4-.69,6.41-7.07,6.42-1.27,0-2.59-.22-3.81.02-2.98.58-3.8-1.03-4.21-3.51-.76-4.64-.82-4.63,3.82-4.63,1.19,0,2.38,0,3.57,0Z" fill="#5b5b5b"/><path d="M54.71,30.81c.06,1.52.91,2.97.46,4.54-2.8,0-5.6-.06-8.4,0-1.2.02-1.77-.21-1.94-1.6-.25-2.14-.29-4.35-1.35-6.54,2.07,0,3.96.2,5.78-.05,3.03-.41,4.83.66,5.45,3.65Z" fill="#5b5b5b"/><path d="M15.82,35.37c-.47-2.47.51-4.67,1.34-6.89.2-.53.46-1.22,1.16-1.23,2.73-.05,5.45-.06,8.18-.02.79.01.59.68.48,1.15-.24,1.08-.87,2.18-.75,3.2.41,3.46-1.44,4.14-4.29,3.85-2.04-.02-4.08-.05-6.12-.07Z" fill="#5b5b5b"/><path d="M34.2,17.02c-2.83,1.28-4.03,3.95-5.3,6.46-.72,1.42-1.53,1.93-3.09,1.83-2.17-.14-4.35-.04-6.98-.04,3.7-5.06,8.13-8.05,13.97-8.85.55-.08,1.23-.27,1.41.59,0,0,0,0,0,0Z" fill="#5b5b5b"/><path d="M30.05,46.65h10.81c-1.17,2.74-2.98,4.76-4.8,6.77-.5.55-1.11.47-1.53-.1-1.53-2.07-3.45-3.89-4.48-6.68Z" fill="#5b5b5b"/><path d="M207.09,54.8c.01-8.64.06-17.28,0-25.93-.01-1.72.36-2.49,2.23-2.3,2.44.24,5.57-.96,7.15.5,1.62,1.49.5,4.65.53,7.07.07,6.18-.03,12.37.05,18.55.02,1.71-.35,2.45-2.23,2.32-2.54-.17-5.1-.07-7.65-.08,0,0-.08-.13-.08-.13Z" fill="#5b5b5b"/><path d="M215.33,13.03c.84,1.23,2.06,2.2,2.21,3.87.25,2.67-.95,5-3.27,6-2.16.93-4.88.28-6.47-1.55-1.53-1.76-1.7-4.6-.4-6.61,1.31-2.03,3.73-2.91,6.24-2.24.57.15,1.13.35,1.69.53,0,0,0,0,0,0Z" fill="#5b5b5b"/><path d="M377.52,15.09v22.4c.18.05.35.1.53.14.72-1.07,1.45-2.14,2.17-3.21,1.67-2.19,3.38-4.35,4.99-6.58.6-.84,1.25-1.24,2.3-1.23,2.95.04,5.9.02,8.82.02.5,1.25-.92,1.62-.91,2.55-3.01,3.08-5.31,6.72-8.03,10.03-.72.87,0,1.56.49,2.25,2.53,3.56,5.09,7.1,7.54,10.7.48.71,1.61,1.4,1.04,2.39-.47.81-1.56.31-2.37.35-1.19.07-2.42-.16-3.57.05-3.52.66-5.38-1.2-6.97-3.98-1.63-2.86-3.58-5.53-5.99-8.22v11.96c-2.8.45-5.62.07-8.42.2-1.09.05-1.48-.38-1.48-1.48.03-12.32.03-24.64,0-36.96,0-1.29.56-1.57,1.7-1.53,2.72.09,5.45.1,8.18.14Z" fill="#5b5b5b"/></svg>