<?xml version="1.0" encoding="UTF-8"?><svg id="Corporate" xmlns="http://www.w3.org/2000/svg" width="90.12mm" height="28.84mm" viewBox="0 0 255.47 81.76"><path d="M167.59,81.74c-28.77,0-57.54,0-86.3.02-1.05,0-1.38-.2-1.38-1.33.04-26.37.04-52.75,0-79.12,0-1.04.28-1.3,1.31-1.29,13.97.04,27.94.03,41.91.02C166.81.03,210.49.03,254.16,0c1.04,0,1.3.25,1.3,1.29-.03,26.41-.03,52.82,0,79.23,0,.99-.26,1.24-1.24,1.24-28.88-.03-57.75-.02-86.63-.02ZM214.92,45.2c0-1-.02-1.71,0-2.42.02-.56-.21-.75-.77-.73-.97.03-1.95.06-2.91,0-.76-.05-.86.23-.81.92.21,2.76.25,5.52.23,8.29-.02,4.63-.02,9.27,0,13.9,0,1.03-.46,2.35.21,3,.62.59,1.93.08,2.92.19.91.1,1.15-.24,1.14-1.13-.04-5.24-.02-10.49-.02-15.73,0-.72.02-1.44.1-2.15.34-2.79,2.25-4.41,4.98-4.26,2.36.13,3.58,1.64,3.68,4.54.02.5.02,1.01.02,1.51,0,5.24,0,10.49,0,15.73,0,.22.02.43,0,.65-.09.66.19.89.85.85.79-.05,1.59-.07,2.37,0,.84.07,1.09-.19,1.09-1.06-.04-5.39-.02-10.77-.02-16.16,0-1.26.12-2.51.58-3.7.71-1.82,2.07-2.52,4.58-2.36,1.82.11,3.02,1.11,3.46,2.86.21.84.23,1.7.23,2.57,0,5.6.01,11.21-.02,16.81,0,.76.13,1.12.99,1.05.86-.08,1.73-.05,2.59,0,.57.02.74-.18.74-.74-.02-6.61,0-13.22-.05-19.82-.01-1.56-.49-3.01-1.52-4.28-1.99-2.46-9.06-2.85-11.21.37-.2.3-.32.72-.73.86-2.76-4.39-9.33-4.28-12.73.48ZM120.17,56.58c2.19,0,4.39,0,6.58,0,.51,0,.78-.08.78-.7,0-2.48,0-4.95-.46-7.4-.77-4.11-2.77-6.18-6.7-6.79-1.46-.23-2.95-.23-4.41-.02-4.06.6-6.25,2.66-7.21,6.66-.35,1.47-.49,2.97-.55,4.48-.15,3.67-.16,7.33,1.11,10.85,1,2.76,2.94,4.43,5.87,4.93,1.58.27,3.16.28,4.73.13,4.26-.41,6.82-2.96,7.34-7.15.1-.83.06-1.41-1.05-1.24-.63.1-1.3.09-1.94,0-1.19-.17-1.71.2-1.96,1.46-.45,2.27-2.11,3.5-4.27,3.52-2.58.03-4.03-1-4.73-3.38-.43-1.46-.51-2.96-.57-4.47-.03-.73.26-.91.94-.9,2.16.03,4.32.01,6.48.01ZM153.86,45.31c0-.78-.04-1.56.01-2.34.05-.68-.14-.98-.89-.93-.9.06-1.8.06-2.7,0-.75-.05-1.02.16-.94.95.13,1.28.2,2.58.21,3.87.02,6.11,0,12.21.02,18.32,0,1-.42,2.3.16,2.92.64.68,1.98.11,3,.24.89.11,1.15-.19,1.14-1.1-.04-5.17-.02-10.34,0-15.52,0-1.19.2-2.36.61-3.48.89-2.4,3.01-3.56,5.71-3.13,2.35.38,3.54,1.89,3.61,4.6.01.47.01.93.01,1.4,0,5.42.01,10.85-.02,16.27,0,.74.18,1.03.95.97.79-.07,1.59-.07,2.37,0,.84.08,1.01-.24,1.01-1.03-.03-5.85-.01-11.71-.03-17.56,0-.93-.09-1.87-.23-2.79-.49-3.06-2.12-4.8-5.01-5.28-1.28-.21-2.58-.17-3.87.02-2.29.34-3.8,1.74-5.13,3.6ZM199.9,65.01c0,1.03.03,1.75-.01,2.46-.04.63.12.92.82.87.97-.06,1.95-.06,2.91,0,.72.04.87-.25.78-.88-.24-1.71-.21-3.44-.21-5.16,0-5.64,0-11.28,0-16.92,0-.86-.03-1.73,0-2.59.02-.56-.17-.77-.74-.74-.75.04-1.52.09-2.26-.01-1.16-.16-1.33.33-1.32,1.37.05,5.42.04,10.85.01,16.27-.01,2.93-1.47,5.01-3.88,5.69-2.85.8-5.33-.87-5.61-3.86-.12-1.32-.08-2.65-.09-3.98,0-4.81-.02-9.63.01-14.44,0-.78-.18-1.12-1.02-1.04-.79.07-1.59.06-2.37,0-.71-.05-.93.19-.92.91.04,2.3.01,4.6.02,6.9,0,4.35-.03,8.69.04,13.04.05,3.05,1.78,5.09,4.75,5.69,3.62.72,6.7-.13,9.08-3.57ZM102.02,51.62c0-5.25.01-10.49-.02-15.74,0-.74.18-.99.95-.97,1.65.06,3.31.04,4.97,0,.96-.02,2.21.42,2.8-.19.59-.6.09-1.85.2-2.8.1-.88-.18-1.15-1.1-1.14-6.12.04-12.24.01-18.36.03-1.03,0-2.37-.46-3,.21-.62.66-.1,1.99-.2,3.02-.07.72.22.91.92.9,2.27-.04,4.54.04,6.8-.04,1.05-.04,1.29.27,1.29,1.31-.04,10.35-.02,20.69-.04,31.04,0,.82.18,1.16,1.06,1.08.93-.08,1.87-.07,2.81,0,.79.06.94-.26.94-.98-.03-5.25-.02-10.49-.01-15.74ZM137.63,45.77c-.06-.02-.12-.04-.17-.06,0-.93-.03-1.87.01-2.8.03-.64-.14-.91-.83-.87-.79.06-1.59.08-2.37,0-.92-.09-1.13.25-1.12,1.14.04,7.29.01,14.58.03,21.88,0,1.06-.48,2.46.22,3.09.68.61,2.07.09,3.14.19.79.07.95-.24.94-.97-.03-4.71-.01-9.41-.02-14.12,0-.94.05-1.86.22-2.79.49-2.75,2.17-4.4,4.86-4.72.79-.09,1.58-.01,2.36.14.38.07.81.17.79-.5-.03-1.08-.01-2.16,0-3.23,0-.32-.04-.56-.45-.57-3.09-.05-5.4.37-7.04,3.19-.19.33-.37.67-.56,1ZM178.97,55.28c0-4.09-.02-8.18.02-12.27,0-.75-.2-1.03-.96-.96-.71.06-1.44.07-2.15,0-.93-.1-1.21.19-1.21,1.17.04,7.28.01,14.57.04,21.86,0,1.06-.48,2.48.23,3.08.62.52,1.99.11,3.03.19.79.06,1.04-.17,1.03-1-.04-4.02-.02-8.04-.02-12.06ZM176.83,35.36h.43q2.01,0,2.01-2.04,0-2.51-2.62-2.51-2.22,0-2.22,2.15,0,2.4,2.4,2.4Z" fill="#5b5b5b"/><path d="M36.84,81.74c-11.88,0-23.76,0-35.63.02-.89,0-1.21-.14-1.21-1.14.05-9.55.04-19.11,0-28.66,0-.77.21-1.1.97-1.32,17.13-5.13,34.25-10.28,51.36-15.44.66-.2,1.02-.05,1.44.47,6.41,7.99,12.84,15.96,19.28,23.92.43.53.64,1.05.64,1.75-.03,6.39-.04,12.79,0,19.18,0,.97-.22,1.25-1.23,1.25-11.88-.04-23.76-.02-35.63-.02Z" fill="#5b5b5b"/><path d="M.23,45.47c-.3-.49-.2-.86-.2-1.19,0-14.34,0-28.67-.03-43.01C0,.3.23.01,1.24.01c23.73.03,47.46.03,71.18,0,.95,0,1.28.2,1.28,1.23-.04,13.19-.03,26.37,0,39.56,0,.97-.17,1.07-1.02.6-14.47-8.15-28.96-16.27-43.42-24.44-.93-.52-1.4-.45-2.13.31C18.42,26.41,9.68,35.52.95,44.63c-.24.25-.45.53-.72.84Z" fill="#5b5b5b"/><path d="M117.84,53.31c-1.44,0-2.88,0-4.32,0-.44,0-.77-.05-.75-.63.04-1.84.17-3.66.92-5.37.84-1.93,2.1-2.59,4.65-2.51,2.05.07,3.24.89,3.91,2.78.58,1.64.69,3.36.74,5.09.02.56-.26.65-.72.64-1.48-.02-2.95,0-4.43,0Z" fill="#5b5b5b"/></svg>