<?xml version="1.0" encoding="UTF-8"?><svg id="Headhunting" xmlns="http://www.w3.org/2000/svg" width="77.06mm" height="19.64mm" viewBox="0 0 218.43 55.66"><path d="M163.05.1c-2.74.07-5.49.15-8.23-.02-1.87-.11-2.26.55-2.24,2.29.08,9.53.05,19.06.02,28.59,0,.69.37,1.5-.42,2.2-.55-.7-1.09-1.35-1.59-2.02-6.92-9.09-13.86-18.16-20.73-27.29-1.9-2.53-4.32-3.78-7.46-3.75-1.54.02-3.09.1-4.63-.02-1.49-.11-1.88.45-1.88,1.88.04,17.02.05,34.04,0,51.06,0,1.51.53,1.86,1.93,1.81,2.57-.09,5.15-.15,7.71.01,1.87.12,2.26-.57,2.25-2.3-.08-9.62-.05-19.23-.02-28.85,0-.88-.28-1.83.3-2.7.83.14,1.05.85,1.43,1.35,6.62,8.67,13.53,17.15,19.71,26.12,3.35,4.88,7.01,7.23,12.96,6.24,1.71-.28,2.26-.52,2.24-2.31-.06-7.17.08-14.35.1-21.52.03-9.79,0-19.57.03-29.36,0-1.11-.35-1.47-1.48-1.44Z" fill="#5b5b5b"/><path d="M215.38,44c-8.05.2-16.12,0-24.17.12-2.02.03-2.97-.29-2.74-2.57.22-2.19.16-4.43.01-6.63-.12-1.75.39-2.35,2.24-2.3,5.05.13,10.12.13,15.17.02,2.79-.06,6.62,1.27,8.09-.56,1.39-1.74.3-5.38.46-8.18.1-1.59-.43-2.02-2-1.99-5.06.09-10.12.08-15.17.02-2.81-.04-6.52,1.19-8.19-.45-1.79-1.77-.31-5.49-.61-8.34-.2-1.96.51-2.39,2.4-2.37,8.49.11,16.97,0,25.46.08,1.6.01,2.11-.44,2.02-2.01-.12-2.12-.15-4.26,0-6.38.13-1.84-.34-2.48-2.36-2.46-9.34.12-18.69.13-28.03.02-4.83-.06-7.9,2.21-9.86,6.37-1.19,2.51-1.7,5.15-1.7,7.91,0,6.21,0,12.42,0,18.63,0,6.64.02,13.27-.02,19.91,0,1.28.11,2.02,1.75,2.01,12.86-.06,25.72-.05,38.58-.01,1.22,0,1.68-.37,1.63-1.6-.08-2.04-.18-4.1.02-6.12.24-2.37-.39-3.19-3-3.13Z" fill="#5b5b5b"/><path d="M86.01,1.21c-.35-.81-.81-1.11-1.73-1.13-5.72-.15-11.45,3.44-13.71,8.68-4.15,9.6-8.3,19.2-12.43,28.81-2.44,5.68-4.85,11.37-7.35,17.25,3.62,0,6.96-.07,10.29.03,1.5.05,2.28-.36,2.8-1.86,1.01-2.89,2.35-5.65,3.43-8.52.52-1.39,1.26-1.92,2.81-1.9,6.43.09,12.86.1,19.29,0,1.59-.03,2.27.57,2.78,1.94,1.11,2.94,2.37,5.82,3.55,8.73.36.9.69,1.63,1.95,1.61,3.67-.08,7.35-.03,11.01-.03.03-.33.11-.52.05-.66-7.58-17.65-15.17-35.3-22.74-52.96ZM85.59,32.18c-4.26-.03-8.52-.01-13.19-.01,2.5-6.01,4.82-11.59,7.35-17.69,2.43,5.83,4.63,11.12,6.85,16.4.46,1.1-.01,1.31-1.01,1.3Z" fill="#5b5b5b"/><path d="M48.13,1.66c.02-1.28-.5-1.58-1.67-1.55-2.74.06-5.49.16-8.22-.03-1.97-.13-2.41.51-2.39,2.4.09,10.12.11,20.25,0,30.37-.08,6.69-4.14,11.18-10.19,11.66-7.32.57-12.02-2.88-13.23-9.83-.26-1.5-.25-3.05-.25-4.58-.02-9.1,0-18.2-.04-27.3,0-.84.53-1.88-.49-2.56-3.33-.05-6.66-.05-9.98-.18C.18,0,0,.71,0,1.91c.06,8.14.08,16.29.11,24.44.02,2.62-.11,5.27.1,7.89,1.03,12.91,7.6,19.94,20.54,21.23,13.76,1.36,25.92-4.47,27.06-21.17.74-10.87.12-21.76.32-32.65Z" fill="#5b5b5b"/></svg>