<?xml version="1.0" encoding="UTF-8"?><svg xmlns="http://www.w3.org/2000/svg" width="115.52" height="92.9" xmlns:xlink="http://www.w3.org/1999/xlink" viewBox="0 0 115.52 92.9"><defs><clipPath id="clippath"><rect x="-2577" y="396.07" width="1920" height="975.08" fill="none"/></clipPath></defs><g id="Log_in"><g clip-path="url(#clippath)"><path d="M-884.43,365.29c-55.01,0-110.02.15-165.02-.17-7.3-.04-10.09,2.43-11.39,9.29-6.18,32.45-10.67,65.15-15.09,97.86-9.14,67.71-21.36,134.74-46.19,198.73-14.09,36.33-31.5,70.96-59.23,99.25-38,38.77-84.26,62.09-137.58,70.53-83.85,13.27-161.86-3.91-234.1-47.96-16.74-10.2-31.29-23.05-41.47-40.05-3.51-5.85-7.58-7.82-14.39-7.82-159.26.2-318.53.17-477.79.11-10.64,0-12,2.68-9.5-11.49,25.65-145.38,51.23-290.77,76.8-436.16,23.24-132.17,46.47-264.35,69.55-396.55,1.06-6.04,3.54-7.98,9.67-7.93,36.67.27,73.34.12,110.01.14,7.9,0,8.2.26,6.87,7.86-11.58,65.88-23.24,131.74-34.83,197.62-15.65,88.95-31.25,177.92-46.9,266.87-12.92,73.43-25.88,146.85-38.82,220.28-2.29,13.01-4.45,26.04-6.94,39.01-.93,4.83.35,6.36,5.38,6.35,107.03-.11,214.06-.11,321.09-.02,4.52,0,7.33-1.07,7.89-6.01,4.49-39.67,19.14-76.34,33.85-112.93,11.37-28.28,23.33-56.31,30.86-85.96,3.75-14.75,6.63-29.56,3.68-44.82-3.51-18.15-14.17-30.58-30.86-38.11-11.42-5.15-23.53-7.91-35.91-8.49-35.94-1.69-71.55,1.08-106.57,9.79-7.91,1.96-8.37,1.81-9.32-6.21-3.31-28.12-6.33-56.27-9.7-84.39-.55-4.59.94-6.59,5.21-7.72,23.35-6.22,47.14-9.69,71.19-11.55,23.62-1.83,47.3-2.11,70.92-1.16,31.02,1.24,61.48,5.85,90.28,18.46,43.95,19.24,68.03,52.78,73.81,100.26,5.04,41.39-3.66,80.48-17.93,118.86-12.92,34.76-28.71,68.39-40.43,103.61-8.33,25.02-13.88,50.62-14.26,76.99-.29,20.1,7.18,37.83,20.17,53.24,15.22,18.05,35.64,26.3,57.87,31.55,40.88,9.64,81.05,9.75,120.05-8.04,26.16-11.93,44.91-31.83,60.02-55.71,22.12-34.94,32.63-73.9,39.11-114.11,10-62.03,19.39-124.15,29.24-186.21,1.01-6.36-1.81-7.15-6.97-7.14-33.26.06-66.55.77-99.77-.41-21.55-.77-43,.18-64.49.51-5.93.09-7.34-1.67-6.29-7.39,5.34-29.12,10.46-58.29,15.48-87.47.84-4.9,3.85-5.39,7.8-5.38,20.68.05,41.36.02,62.04.02,34.33,0,68.65-.09,102.98.09,5.64.03,8.17-1.52,9.25-7.56,4.96-27.91,5.92-56.32,11.08-84.2,8.18-44.17,19.37-87.3,39.49-127.82,33.83-68.12,88.23-111.33,160.32-133.29,37.12-11.31,75.22-16.25,113.91-18.31,39.15-2.08,77.92-.82,116.26,7.94,7.94,1.81,8.18,2.01,5.94,9.67-8.39,28.63-16.88,57.23-25.18,85.88-1.23,4.24-2.99,5.76-7.71,4.94-27.98-4.82-56.18-7.54-84.59-6.7-32.8.97-64.9,5.75-95.36,18.88-39.84,17.18-65.62,47.81-82.88,86.48-17.39,38.96-25.56,80.24-29.98,122.4-1.2,11.44-2.81,22.82-4.97,34.12-1.4,7.34-1.27,7.45,6.42,7.45,62.68.02,125.36.01,188.05.01,46.27,0,92.53-.08,138.8.1,6.14.02,8.88-1.29,9.65-8.24,4.21-38.08,7.53-76.29,16.23-113.76,9.39-40.47,22.16-79.6,43.32-115.67,30.84-52.57,75.69-88.07,132.43-109.11,35.63-13.21,72.63-19.82,110.41-22.99,22.75-1.91,45.51-2.81,68.31-2.24,23.69.59,47.13,3.57,70.27,8.83,4.59,1.04,7.31,2.44,5.6,8.14-8.82,29.39-17.41,58.85-25.94,88.32-1.31,4.51-3.98,4.55-7.81,3.88-27.78-4.81-55.77-7.46-83.96-6.6-31.9.97-63.18,5.42-93,17.81-35.49,14.74-60.82,40.01-78.54,73.6-18.14,34.39-27.54,71.45-33.34,109.56-2.85,18.73-4.89,37.58-7.59,56.33-.74,5.15.16,7.17,5.96,7.15,49.68-.21,99.35-.13,149.03-.13,45.41,0,90.82-.13,136.23.17,6.73.04,9.04-2.2,10.35-8.62,12.02-59.13,36.2-112.74,75.34-158.89C-153.64,35.06-91.2.59-16.72-12.25c26.57-4.58,53.37-6.3,80.24-4.92,35.63,1.82,69.61,9.65,99.04,31.4,30.33,22.42,46.98,52.93,52.1,89.8,8.38,60.38-10.47,112.13-50.84,156.85-34.16,37.84-77.59,59.75-125.85,73.34-37.07,10.44-75.02,15.54-113.36,18.37-32.73,2.42-65.49,3.74-98.31,3.89-6.62.03-7.46,1.33-6.55,8.97,6.63,55.46,43.29,93.14,98.86,101.89,39.09,6.15,77.32.98,115.21-8.45,33.23-8.27,65.08-20.29,95.59-35.87,7.74-3.95,7.95-3.84,11.07,3.89,10.37,25.69,20.56,51.46,31.23,77.02,2.46,5.89,1.18,8.69-4.25,11.51-55.45,28.74-113.98,47.53-176.12,54.55-45.5,5.14-90.83,4.29-134.89-9.28-80.2-24.71-127.38-78.74-140.96-161.81-1.83-11.17-2.02-22.47-3.39-33.66-.35-2.87-1.16-5.1-4.62-4.7-13.2,1.53-26.37-.06-39.55-.1-84.64-.27-169.28-.08-253.93-.25-6.37-.01-8.35,2.37-9.07,8.39-12.45,103.47-21.32,210.88-76.66,302.15-56.38,93-151.26,134.85-256.01,147.33-12.69,1.51-25.41,2.73-38.07,4.43-4.57.61-6.66-.22-6.9-5.3-1.43-30.4-3.04-60.8-4.72-91.19-.35-6.3,4.25-6.01,8.09-6.48,15.43-1.88,30.96-3.1,46.31-5.43,31.02-4.71,61.82-13.37,88.72-29.92,27.36-16.84,44.35-38.5,60.57-65.98,37.64-63.75,46.57-128.4,56.93-199.94,2.14-14.75,3.73-29.57,5.7-44.35,1.1-8.27.98-8.58-7.68-8.58-55.22-.01-110.44,0-165.66,0ZM-139.58,256.34c21.31.03,42.56-1.13,63.82-2.44,29.23-1.8,58.11-5.59,86.15-14.31,27.69-8.6,53.14-21.05,71.62-44.49,14.84-18.81,20.94-40.38,18.43-64.06-2.53-23.82-21.85-41.29-49.02-44.47-39.88-4.68-77.96,2.36-113.17,21.34-57.43,30.95-89.35,81.62-107.11,142.65-1.19,4.09-.27,5.95,4.34,5.84,8.31-.2,16.62-.06,24.94-.06Z" fill="#62ba97"/></g></g><g id="Headhunting"><path d="M33.88,0l13.37,18.3c-14.43,12.32-20.76,27.1-20.76,43.63h20.06v30.97H.8C-2.37,55.6,2.91,17.59,33.88,0ZM94.76,61.93h20.06v30.97h-45.75c-3.17-37.3,2.11-75.3,33.08-92.9l13.37,18.3c-14.43,12.32-20.76,27.1-20.76,43.63Z" fill="#f3f4f5"/></g></svg>