<?xml version="1.0" encoding="UTF-8"?><svg id="Home" xmlns="http://www.w3.org/2000/svg" width="62.88" height="62.92" viewBox="0 0 62.88 62.92"><path d="M62.75,62.92h-12.62c0-.46,0-.92,0-1.37,0-7.18.02-14.35,0-21.53,0-3.78-1.76-6.46-4.83-7.5-5.9-2.01-11.44,1.83-11.51,8.06-.07,7.02-.02,14.04-.03,21.06,0,.39,0,.78,0,1.26h-12.59V21.17h11.81v5.76c.34-.3.52-.42.65-.58,5.65-6.75,16.75-8.46,23.99-2.12,3.35,2.93,5.03,6.87,5.13,11.2.21,8.95.07,17.9.07,26.85,0,.19-.05.38-.08.63Z" fill="#f3f4f5"/><path d="M1.01,62.89V21.17h12.83v41.72H1.01Z" fill="#f3f4f5"/><path d="M7.52,0c4.12.04,7.39,3.4,7.35,7.54-.04,4.04-3.44,7.39-7.44,7.34C3.28,14.82-.02,11.49,0,7.38.02,3.29,3.41-.04,7.52,0Z" fill="#f3f4f5"/></svg>