<?xml version="1.0" encoding="UTF-8"?><svg id="Corporate" xmlns="http://www.w3.org/2000/svg" width="99.11" height="113.1" viewBox="0 0 99.11 113.1"><path d="M16.61,108.15c19.01-29.87,40.89-57.92,65.24-83.62-26.74,25.75-49.55,55.56-67.41,88.1,24.36-30.19,48.72-60.38,73.08-90.57" fill="none" stroke="#205b66" stroke-miterlimit="10" stroke-width="1.5"/><path d="M18.64,27.32c23.58,22.18,47.15,44.36,70.73,66.54-24.15-23.12-48.29-46.25-72.44-69.37,25.31,24.03,50.63,48.05,75.94,72.08" fill="none" stroke="#205b66" stroke-miterlimit="10" stroke-width="1.5"/><path d="M53.92,14.46c-.56,31.29-1.12,62.57-1.68,93.86-.2-36.1-.4-72.21-.6-108.31" fill="none" stroke="#205b66" stroke-miterlimit="10" stroke-width="1.5"/><path d="M7.64,64.92c30.48-.75,60.96-1.51,91.44-2.26-33.02-1.11-66.04-2.23-99.06-3.34,31.27.33,62.54.66,93.81.99" fill="none" stroke="#205b66" stroke-miterlimit="10" stroke-width="1.5"/></svg>