<?xml version="1.0" encoding="UTF-8"?><svg id="Home" xmlns="http://www.w3.org/2000/svg" width="61.23" height="62.92" viewBox="0 0 61.23 62.92"><path d="M61.23,62.88c-5.97,0-11.55.04-17.13-.05-.57,0-1.3-.66-1.68-1.21-5.06-7.29-10.08-14.61-15.1-21.92-.3-.44-.62-.87-1.04-1.45-2.54,2.94-5.01,5.79-7.46,8.65-4.27,4.97-8.5,9.97-12.83,14.89-.52.59-1.51.9-2.33,1.03-1.04.17-2.13.04-3.65.04,8.16-9.5,16.06-18.71,24.01-27.97C16.06,23.35,8.16,11.85.12.18.73.12,1.12.05,1.52.05,6.61.04,11.7,0,16.8.08c.66.01,1.53.5,1.92,1.04,4.75,6.78,9.43,13.61,14.13,20.42.36.52.74,1.04,1.19,1.68,2.86-3.31,5.61-6.5,8.36-9.7,3.6-4.19,7.17-8.4,10.82-12.55.43-.49,1.23-.81,1.9-.9,1.17-.14,2.36-.04,3.92-.04-1.2,1.44-2.19,2.67-3.22,3.86-6.22,7.22-12.42,14.45-18.68,21.65-.72.83-.64,1.33-.04,2.19,7.64,11.03,15.23,22.1,22.83,33.15.39.56.75,1.14,1.31,1.99ZM7.63,4.02c12.57,18.26,24.89,36.18,37.23,54.08.23.33.62.76.95.77,2.5.06,5.01.04,7.8.04-.52-.8-.82-1.29-1.15-1.77-3.93-5.7-7.86-11.4-11.79-17.11-7.97-11.59-15.94-23.18-23.92-34.76-.34-.49-.88-1.17-1.36-1.19-2.47-.12-4.94-.06-7.76-.06Z" fill="#f3f4f5"/></svg>