<?xml version="1.0" encoding="UTF-8"?><svg id="Home" xmlns="http://www.w3.org/2000/svg" width="63.15" height="62.92" viewBox="0 0 63.15 62.92"><path d="M31.63,62.89c-4.31,0-8.62-.1-12.93.02C8.71,63.19-.02,55.24,0,44.4c.02-8.77-.06-17.54.05-26.3C.18,7.74,8.18-.01,18.5,0,27.12.02,35.74,0,44.36,0c10.87,0,18.75,7.85,18.78,18.72.02,8.57-.02,17.14,0,25.71.02,10.98-9.02,18.79-18.58,18.48-4.3-.14-8.62-.02-12.93-.02,0,0,0,0,0,.01ZM31.49,57.2h0c4.71,0,9.41.02,14.12-.01,6.25-.05,11.57-5.32,11.6-11.57.04-9.16.05-18.33.01-27.49-.03-6.93-5.18-12.11-12.13-12.15-9.12-.05-18.23-.05-27.35,0-6.48.04-11.77,5.21-11.84,11.68-.1,9.21-.12,18.43-.01,27.64.08,6.8,5.28,11.82,12.08,11.88,4.51.04,9.02,0,13.52,0Z" fill="#f3f4f5"/><path d="M15.24,31.54c-.04-8.91,7.27-16.26,16.21-16.31,9.16-.05,16.5,7.31,16.49,16.51-.02,8.79-7.31,16.16-16.01,16.19-9.45.03-16.64-7.03-16.68-16.38ZM42.14,31.67c-.02-5.95-4.73-10.65-10.66-10.62-5.75.02-10.53,4.78-10.52,10.48,0,5.86,4.91,10.75,10.69,10.67,5.79-.08,10.51-4.82,10.49-10.53Z" fill="#f3f4f5"/><path d="M52.23,14.63c0,2.14-1.56,3.79-3.67,3.84-2.14.05-3.89-1.66-3.9-3.8,0-2.14,1.75-3.9,3.86-3.86,2.08.04,3.7,1.71,3.71,3.83Z" fill="#f3f4f5"/></svg>