<?xml version="1.0" encoding="UTF-8"?><svg id="Headhunting" xmlns="http://www.w3.org/2000/svg" width="423.41" height="96.5" xmlns:xlink="http://www.w3.org/1999/xlink" viewBox="0 0 423.41 96.5"><defs><clipPath id="clippath"><rect x="16.66" y="20.01" width="69.09" height="56.49" fill="#f3f4f5"/></clipPath></defs><rect width="252.04" height="96.5" rx="12.04" ry="12.04" fill="#1a1a1a"/><rect x="16.66" y="20.01" width="69.09" height="56.49" fill="#f3f4f5"/><g clip-path="url(#clippath)"><path d="M16.66,20.01h69.07v56.49H16.66V20.01Z" fill="#f3f4f5"/></g><path d="M97.14,39.97c-.76,0-1.35.31-1.77.93-.42.61-.62,1.46-.62,2.54,0,2.24.86,3.36,2.58,3.36.51,0,1.01-.06,1.5-.2.48-.15.97-.32,1.46-.53v2.67c-.98.44-2.08.66-3.31.66-1.77,0-3.12-.51-4.06-1.53-.94-1.02-1.41-2.5-1.41-4.44,0-1.21.22-2.27.68-3.18.45-.92,1.1-1.63,1.96-2.12.86-.5,1.87-.75,3.03-.75,1.25,0,2.46.27,3.62.82l-.97,2.48c-.43-.19-.86-.36-1.3-.49-.43-.15-.89-.22-1.39-.22Z" fill="#f3f4f5"/><path d="M113.99,43.37c0,1.97-.49,3.47-1.46,4.49-.96,1.02-2.37,1.53-4.22,1.53s-3.25-.51-4.22-1.53c-.98-1.03-1.46-2.54-1.46-4.51s.48-3.42,1.44-4.44c.97-1.03,2.38-1.55,4.24-1.55s3.28.51,4.24,1.53c.96,1.01,1.44,2.5,1.44,4.48ZM105.95,43.37c0,2.27.79,3.4,2.36,3.4.79,0,1.38-.27,1.77-.82.39-.55.58-1.41.58-2.58s-.2-2.03-.6-2.58c-.39-.56-.98-.84-1.75-.84-1.57,0-2.36,1.14-2.36,3.42Z" fill="#f3f4f5"/><path d="M127.7,49.24h-4.13l-4.28-8.24h-.07c.1,1.31.15,2.3.15,2.98v5.26h-2.8v-11.69h4.13l4.26,8.13h.04c-.07-1.18-.11-2.12-.11-2.83v-5.3h2.81v11.69Z" fill="#f3f4f5"/><path d="M138.35,45.69c0,.72-.18,1.37-.55,1.94-.37.56-.9,1-1.59,1.32-.69.3-1.51.46-2.43.46-.78,0-1.44-.05-1.97-.16-.53-.11-1.07-.3-1.64-.58v-2.81c.61.32,1.23.56,1.88.73.66.17,1.25.26,1.79.26.48,0,.82-.08,1.04-.24.22-.16.33-.37.33-.62,0-.17-.05-.31-.15-.42-.09-.12-.23-.24-.42-.37-.2-.12-.71-.37-1.55-.75-.76-.35-1.33-.69-1.72-1-.38-.33-.66-.7-.84-1.11-.18-.42-.27-.93-.27-1.52,0-1.07.39-1.9,1.17-2.5.78-.61,1.85-.91,3.23-.91,1.21,0,2.43.28,3.69.84l-.97,2.45c-1.09-.51-2.02-.77-2.81-.77-.42,0-.72.07-.91.22-.18.15-.27.33-.27.55s.11.42.35.6c.24.18.89.51,1.94.99,1.01.47,1.71.96,2.1,1.48.39.51.58,1.16.58,1.96Z" fill="#f3f4f5"/><path d="M150.59,37.54v7.03c0,1.53-.43,2.72-1.3,3.56-.87.84-2.11,1.26-3.75,1.26s-2.82-.41-3.67-1.22c-.85-.81-1.28-1.99-1.28-3.53v-7.11h3.16v6.87c0,.83.15,1.43.46,1.81.32.37.78.55,1.39.55s1.1-.18,1.39-.55c.29-.37.44-.99.44-1.83v-6.85h3.16Z" fill="#f3f4f5"/><path d="M153.52,49.24v-11.69h3.16v9.14h4.49v2.56h-7.66Z" fill="#f3f4f5"/><path d="M168.69,49.24h-3.14v-9.1h-2.87v-2.59h8.86v2.59h-2.85v9.1Z" fill="#f3f4f5"/><path d="M173.7,49.24v-11.69h3.18v11.69h-3.18Z" fill="#f3f4f5"/><path d="M191.01,49.24h-4.13l-4.28-8.24h-.07c.1,1.31.15,2.3.15,2.98v5.26h-2.8v-11.69h4.13l4.26,8.13h.04c-.07-1.18-.11-2.12-.11-2.83v-5.3h2.81v11.69Z" fill="#f3f4f5"/><path d="M198.72,42.38h5.04v6.3c-1.37.48-2.87.71-4.51.71-1.8,0-3.2-.52-4.18-1.57-.98-1.05-1.46-2.54-1.46-4.48s.53-3.33,1.61-4.39c1.07-1.06,2.58-1.59,4.53-1.59.73,0,1.42.07,2.06.22.66.14,1.23.31,1.72.51l-1,2.48c-.84-.41-1.77-.62-2.78-.62-.91,0-1.63.3-2.14.9-.5.6-.75,1.46-.75,2.58s.22,1.92.68,2.5c.46.58,1.12.86,1.97.86.48,0,.9-.05,1.3-.15v-1.83h-2.08v-2.45Z" fill="#f3f4f5"/><path d="M96.65,60.39c0,.58-.11,1.1-.31,1.53-.2.44-.48.78-.84,1.02-.36.23-.78.35-1.26.35s-.9-.11-1.28-.35c-.37-.24-.65-.58-.86-1-.2-.44-.29-.94-.29-1.5v-.44c0-.58.1-1.1.29-1.53.21-.45.49-.79.86-1.02.37-.23.79-.35,1.26-.35s.91.12,1.28.35c.37.23.64.58.84,1.02.21.44.31.95.31,1.53v.38ZM95.87,59.99c0-.7-.15-1.25-.44-1.63-.28-.39-.69-.58-1.21-.58s-.9.2-1.19.58c-.28.38-.43.9-.44,1.57v.46c0,.69.15,1.24.44,1.64.29.39.69.58,1.21.58s.9-.19,1.19-.57c.28-.37.42-.91.44-1.61v-.46Z" fill="#f3f4f5"/><path d="M101.93,60.77h-1.41v2.43h-.8v-6.03h1.99c.68,0,1.21.16,1.57.48.37.31.55.75.55,1.33,0,.38-.11.71-.31.99-.2.28-.48.49-.84.62l1.43,2.56v.05h-.86l-1.32-2.43ZM100.52,60.11h1.22c.39,0,.7-.1.93-.31.23-.21.35-.48.35-.82,0-.37-.11-.64-.33-.84-.22-.21-.54-.31-.97-.31h-1.21v2.28Z" fill="#f3f4f5"/><path d="M111.26,62.42c-.21.29-.49.51-.86.66s-.79.22-1.28.22-.93-.11-1.32-.35c-.38-.23-.67-.56-.88-.99-.21-.42-.31-.92-.31-1.48v-.53c0-.9.21-1.6.62-2.1.42-.5,1.02-.75,1.79-.75.63,0,1.14.16,1.52.48.39.32.63.78.71,1.37h-.8c-.15-.8-.62-1.21-1.43-1.21-.53,0-.93.19-1.21.57-.27.38-.41.92-.42,1.63v.49c0,.67.15,1.21.46,1.61.32.4.74.6,1.26.6.3,0,.57-.03.79-.09.23-.07.42-.19.57-.35v-1.35h-1.41v-.64h2.19v2.21Z" fill="#f3f4f5"/><path d="M117.78,61.63h-2.52l-.57,1.57h-.82l2.3-6.03h.69l2.32,6.03h-.82l-.58-1.57ZM115.5,60.97h2.06l-1.04-2.81-1.02,2.81Z" fill="#f3f4f5"/><path d="M126.5,63.2h-.8l-3.03-4.64v4.64h-.8v-6.03h.8l3.05,4.66v-4.66h.79v6.03Z" fill="#f3f4f5"/><path d="M130.63,63.2h-.8v-6.03h.8v6.03Z" fill="#f3f4f5"/><path d="M134.55,62.54h3.45v.66h-4.4v-.6l3.31-4.77h-3.25v-.66h4.2v.58l-3.31,4.79Z" fill="#f3f4f5"/><path d="M144.22,61.63h-2.52l-.57,1.57h-.82l2.3-6.03h.69l2.32,6.03h-.82l-.58-1.57ZM141.94,60.97h2.06l-1.04-2.81-1.02,2.81Z" fill="#f3f4f5"/><path d="M152.46,57.83h-1.94v5.37h-.79v-5.37h-1.94v-.66h4.66v.66Z" fill="#f3f4f5"/><path d="M156.09,63.2h-.8v-6.03h.8v6.03Z" fill="#f3f4f5"/><path d="M164.04,60.39c0,.58-.11,1.1-.31,1.53-.2.44-.48.78-.84,1.02-.36.23-.78.35-1.26.35s-.9-.11-1.28-.35c-.37-.24-.65-.58-.86-1-.2-.44-.29-.94-.29-1.5v-.44c0-.58.1-1.1.29-1.53.21-.45.49-.79.86-1.02.37-.23.79-.35,1.26-.35s.91.12,1.28.35c.37.23.64.58.84,1.02.21.44.31.95.31,1.53v.38ZM163.26,59.99c0-.7-.15-1.25-.44-1.63-.28-.39-.69-.58-1.21-.58s-.9.2-1.19.58c-.28.38-.43.9-.44,1.57v.46c0,.69.15,1.24.44,1.64.29.39.69.58,1.21.58s.9-.19,1.19-.57c.28-.37.42-.91.44-1.61v-.46Z" fill="#f3f4f5"/><path d="M171.75,63.2h-.8l-3.03-4.64v4.64h-.8v-6.03h.8l3.05,4.66v-4.66h.79v6.03Z" fill="#f3f4f5"/><path d="M178.35,61.63h-2.52l-.57,1.57h-.82l2.3-6.03h.69l2.32,6.03h-.82l-.58-1.57ZM176.06,60.97h2.06l-1.04-2.81-1.02,2.81Z" fill="#f3f4f5"/><path d="M183.23,62.54h2.85v.66h-3.65v-6.03h.8v5.37Z" fill="#f3f4f5"/><path d="M92.01,74.52v-6.03h1.7c.52,0,.99.12,1.39.35.41.23.73.56.95.99.22.43.33.92.33,1.48v.38c0,.58-.11,1.07-.33,1.5-.22.43-.54.76-.95.99-.4.23-.87.35-1.41.35h-1.68ZM92.82,69.15v4.71h.84c.61,0,1.08-.19,1.43-.57.34-.37.51-.92.51-1.63v-.35c0-.68-.16-1.21-.49-1.59-.32-.39-.77-.58-1.35-.58h-.93Z" fill="#f3f4f5"/><path d="M102.86,71.74h-2.61v2.12h3.03v.66h-3.84v-6.03h3.8v.66h-3v1.94h2.61v.66Z" fill="#f3f4f5"/><path d="M108.13,73.46l1.74-4.97h.86l-2.23,6.03h-.71l-2.23-6.03h.88l1.7,4.97Z" fill="#f3f4f5"/><path d="M116.82,71.74h-2.61v2.12h3.03v.66h-3.84v-6.03h3.8v.66h-3v1.94h2.61v.66Z" fill="#f3f4f5"/><path d="M120.9,73.86h2.85v.66h-3.65v-6.03h.8v5.37Z" fill="#f3f4f5"/><path d="M131.17,71.7c0,.58-.11,1.1-.31,1.53-.2.44-.48.78-.84,1.02-.36.23-.78.35-1.26.35s-.9-.11-1.28-.35c-.37-.24-.65-.58-.86-1-.2-.44-.29-.94-.29-1.5v-.44c0-.58.1-1.1.29-1.53.21-.45.49-.79.86-1.02.37-.23.79-.35,1.26-.35s.91.12,1.28.35c.37.23.64.58.84,1.02.21.44.31.95.31,1.53v.38ZM130.38,71.3c0-.7-.15-1.25-.44-1.63-.28-.39-.69-.58-1.21-.58s-.9.2-1.19.58c-.28.38-.43.9-.44,1.57v.46c0,.69.15,1.24.44,1.64.29.39.69.58,1.21.58s.9-.19,1.19-.57c.28-.37.42-.91.44-1.61v-.46Z" fill="#f3f4f5"/><path d="M135.03,72.16v2.36h-.8v-6.03h2.23c.66,0,1.17.17,1.55.51.37.33.57.78.57,1.33,0,.58-.19,1.04-.57,1.35-.37.32-.89.48-1.55.48h-1.43ZM135.03,71.5h1.43c.42,0,.75-.1.97-.29.23-.21.35-.5.35-.88,0-.35-.12-.63-.35-.84-.22-.22-.53-.33-.93-.35h-1.46v2.36Z" fill="#f3f4f5"/><path d="M142.47,68.49l1.97,4.92,1.97-4.92h1.04v6.03h-.8v-2.34l.07-2.54-1.97,4.88h-.6l-1.99-4.86.09,2.52v2.34h-.8v-6.03h1.02Z" fill="#f3f4f5"/><path d="M154.14,71.74h-2.61v2.12h3.03v.66h-3.84v-6.03h3.8v.66h-3v1.94h2.61v.66Z" fill="#f3f4f5"/><path d="M162.05,74.52h-.8l-3.03-4.64v4.64h-.8v-6.03h.8l3.05,4.66v-4.66h.79v6.03Z" fill="#f3f4f5"/><path d="M169.49,69.15h-1.94v5.37h-.79v-5.37h-1.94v-.66h4.66v.66Z" fill="#f3f4f5"/><path d="M178,71.83c-.67-.19-1.16-.43-1.48-.71-.31-.29-.46-.64-.46-1.06,0-.48.19-.86.57-1.17.37-.32.87-.48,1.48-.48.41,0,.78.08,1.1.24.33.16.58.38.75.66.18.28.27.59.27.93h-.8c0-.37-.12-.65-.35-.86-.23-.22-.56-.33-.97-.33s-.69.09-.91.27c-.22.17-.33.41-.33.71,0,.25.1.45.31.62.21.17.56.33,1.06.48.5.14.89.29,1.17.46.28.17.48.37.62.6.15.22.22.48.22.79,0,.49-.2.89-.58,1.19-.38.29-.89.44-1.52.44-.42,0-.8-.08-1.17-.24-.36-.17-.63-.39-.82-.66-.2-.28-.29-.59-.29-.95h.8c0,.37.13.66.4.88.26.21.63.31,1.08.31.41,0,.73-.08.95-.26.23-.17.35-.4.35-.69s-.11-.53-.31-.69c-.21-.16-.58-.32-1.13-.48Z" fill="#f3f4f5"/><path d="M187.77,71.7c0,.58-.11,1.1-.31,1.53-.2.44-.48.78-.84,1.02-.36.23-.78.35-1.26.35s-.9-.11-1.28-.35c-.37-.24-.65-.58-.86-1-.2-.44-.29-.94-.29-1.5v-.44c0-.58.1-1.1.29-1.53.21-.45.49-.79.86-1.02.37-.23.79-.35,1.26-.35s.91.12,1.28.35c.37.23.64.58.84,1.02.21.44.31.95.31,1.53v.38ZM186.98,71.3c0-.7-.15-1.25-.44-1.63-.28-.39-.69-.58-1.21-.58s-.9.2-1.19.58c-.28.38-.43.9-.44,1.57v.46c0,.69.15,1.24.44,1.64.29.39.69.58,1.21.58s.9-.19,1.19-.57c.28-.37.42-.91.44-1.61v-.46Z" fill="#f3f4f5"/><path d="M191.63,73.86h2.85v.66h-3.65v-6.03h.8v5.37Z" fill="#f3f4f5"/><path d="M201.52,68.49v4.09c-.01.58-.2,1.04-.55,1.41-.36.36-.84.55-1.44.6l-.2.02c-.66,0-1.19-.17-1.59-.53-.39-.37-.58-.86-.58-1.48v-4.11h.79v4.09c0,.43.11.76.35,1,.24.25.59.37,1.04.37s.79-.11,1.02-.35.37-.58.37-1.02v-4.09h.8Z" fill="#f3f4f5"/><path d="M208.8,69.15h-1.94v5.37h-.79v-5.37h-1.94v-.66h4.66v.66Z" fill="#f3f4f5"/><path d="M212.42,74.52h-.8v-6.03h.8v6.03Z" fill="#f3f4f5"/><path d="M220.38,71.7c0,.58-.11,1.1-.31,1.53-.2.44-.48.78-.84,1.02-.36.23-.78.35-1.26.35s-.9-.11-1.28-.35c-.37-.24-.65-.58-.86-1-.2-.44-.29-.94-.29-1.5v-.44c0-.58.1-1.1.29-1.53.21-.45.49-.79.86-1.02.37-.23.79-.35,1.26-.35s.91.12,1.28.35c.37.23.64.58.84,1.02.21.44.31.95.31,1.53v.38ZM219.59,71.3c0-.7-.15-1.25-.44-1.63-.28-.39-.69-.58-1.21-.58s-.9.2-1.19.58c-.28.38-.43.9-.44,1.57v.46c0,.69.15,1.24.44,1.64.29.39.69.58,1.21.58s.9-.19,1.19-.57c.28-.37.42-.91.44-1.61v-.46Z" fill="#f3f4f5"/><path d="M228.08,74.52h-.8l-3.03-4.64v4.64h-.8v-6.03h.8l3.05,4.66v-4.66h.79v6.03Z" fill="#f3f4f5"/><path d="M233.13,71.83c-.67-.19-1.16-.43-1.48-.71-.31-.29-.46-.64-.46-1.06,0-.48.19-.86.57-1.17.37-.32.87-.48,1.48-.48.41,0,.78.08,1.1.24.33.16.58.38.75.66.18.28.27.59.27.93h-.8c0-.37-.12-.65-.35-.86-.23-.22-.56-.33-.97-.33s-.69.09-.91.27c-.22.17-.33.41-.33.71,0,.25.1.45.31.62.21.17.56.33,1.06.48.5.14.89.29,1.17.46.28.17.48.37.62.6.15.22.22.48.22.79,0,.49-.2.89-.58,1.19-.38.29-.89.44-1.52.44-.42,0-.8-.08-1.17-.24-.36-.17-.63-.39-.82-.66-.2-.28-.29-.59-.29-.95h.8c0,.37.13.66.4.88.26.21.63.31,1.08.31.41,0,.73-.08.95-.26.23-.17.35-.4.35-.69s-.11-.53-.31-.69c-.21-.16-.58-.32-1.13-.48Z" fill="#f3f4f5"/><path d="M24.61,39.5v20.15h-2.43v-24.67h1.88l16.34,20.54v-20.52h2.43v24.65h-2.12l-16.1-20.15Z" fill="#1a1a1a"/><path d="M59.34,35.15h2.3l3.47,8.75,3.51-8.75h2.32l-4.29,10.52,4.71,11.16,8.93-21.85h2.65l-10.47,24.67h-2.16l-5.17-12.21-5.23,12.21h-2.12l-10.42-24.67h2.59l8.97,21.85,4.7-11.16-4.31-10.52Z" fill="#1a1a1a"/><path d="M93.27,22.91v9.5h-1.13v-11.62h.88l7.69,9.67v-9.65h1.15v11.6h-1l-7.58-9.5Z" fill="#f3f4f5"/><path d="M109.97,31.47c.73,0,1.34-.14,1.83-.42.48-.28.87-.64,1.15-1.1.29-.45.49-.96.6-1.53.12-.58.18-1.17.18-1.75v-5.87h1.15v5.87c0,.78-.09,1.53-.27,2.23-.17.71-.45,1.33-.84,1.86-.39.54-.9.96-1.52,1.28-.62.31-1.38.46-2.27.46s-1.71-.16-2.34-.49c-.62-.33-1.12-.77-1.5-1.32-.38-.55-.65-1.17-.82-1.86-.16-.69-.24-1.41-.24-2.16v-5.87h1.13v5.87c0,.61.05,1.21.16,1.79.12.58.33,1.09.62,1.53.29.44.68.8,1.15,1.08.48.27,1.09.4,1.81.4Z" fill="#f3f4f5"/><path d="M122.47,20.87h1.08l1.64,4.13,1.64-4.13h1.1l-2.03,4.97,2.23,5.24,4.2-10.29h1.24l-4.92,11.62h-1.02l-2.43-5.74-2.47,5.74h-.99l-4.92-11.62h1.22l4.22,10.29,2.21-5.24-2.03-4.97Z" fill="#f3f4f5"/><path d="M139.31,20.79h.97l4.82,11.62h-1.21l-1.52-3.64h-5.23l-1.48,3.64h-1.22l4.86-11.62ZM142.12,27.88l-2.34-5.76-2.38,5.76h4.71Z" fill="#f3f4f5"/><path d="M147.32,20.79l3.8,6.25,3.84-6.25h1.24l-4.49,7.29v4.33h-1.15v-4.35l-4.49-7.27h1.26Z" fill="#f3f4f5"/><path d="M165.2,22.97c-.33-.37-.77-.66-1.32-.9-.55-.23-1.17-.35-1.86-.35-1.02,0-1.77.2-2.25.58-.48.39-.71.91-.71,1.57,0,.36.06.65.18.88.13.22.33.41.58.57.26.16.6.3,1,.42.41.12.9.25,1.46.37.62.14,1.18.29,1.68.46.5.16.92.36,1.26.6.35.25.62.54.8.9.18.34.27.78.27,1.3s-.11,1-.31,1.41c-.21.39-.5.72-.88.99-.37.26-.8.45-1.32.57-.51.12-1.07.18-1.68.18-1.8,0-3.36-.56-4.66-1.68l.57-.93c.21.22.46.43.75.62.29.2.61.37.97.51.35.15.73.26,1.13.35.4.09.83.13,1.28.13.92,0,1.64-.16,2.16-.49.52-.34.79-.85.79-1.52,0-.37-.07-.67-.22-.91-.15-.24-.37-.46-.66-.64s-.66-.33-1.1-.46c-.44-.13-.95-.26-1.53-.4-.61-.15-1.15-.29-1.61-.44-.45-.16-.84-.35-1.15-.57-.32-.23-.56-.5-.71-.82-.16-.33-.24-.73-.24-1.21,0-.53.1-1.01.29-1.43.21-.42.49-.77.86-1.04.37-.28.81-.49,1.32-.64.5-.16,1.06-.24,1.68-.24.77,0,1.45.12,2.06.37.61.23,1.16.56,1.64.99l-.55.91Z" fill="#f3f4f5"/><rect x="266.9" width="156.51" height="96.5" rx="12.04" ry="12.04" fill="#1a1a1a"/><path d="M347.21,48.11c-2.02,0-4.04,0-6.07,0-.27,0-.37.09-.42.34-.23,1.19-.39,2.39-.55,3.6-.34,2.49-.79,4.95-1.7,7.3-.52,1.34-1.16,2.61-2.18,3.65-1.4,1.43-3.1,2.28-5.06,2.59-3.08.49-5.95-.14-8.6-1.76-.62-.38-1.15-.85-1.52-1.47-.13-.22-.28-.29-.53-.29-5.85,0-11.71,0-17.56,0-.39,0-.44.1-.35-.42.94-5.34,1.88-10.69,2.82-16.03.85-4.86,1.71-9.72,2.56-14.58.04-.22.13-.29.36-.29,1.35,0,2.7,0,4.04,0,.29,0,.3,0,.25.29-.43,2.42-.85,4.84-1.28,7.26-.58,3.27-1.15,6.54-1.72,9.81-.47,2.7-.95,5.4-1.43,8.1-.08.48-.16.96-.26,1.43-.03.18.01.23.2.23,3.93,0,7.87,0,11.8,0,.17,0,.27-.04.29-.22.16-1.46.7-2.81,1.24-4.15.42-1.04.86-2.07,1.13-3.16.14-.54.24-1.09.14-1.65-.13-.67-.52-1.12-1.13-1.4-.42-.19-.86-.29-1.32-.31-1.32-.06-2.63.04-3.92.36-.29.07-.31.07-.34-.23-.12-1.03-.23-2.07-.36-3.1-.02-.17.03-.24.19-.28.86-.23,1.73-.36,2.62-.42.87-.07,1.74-.08,2.61-.04,1.14.05,2.26.22,3.32.68,1.62.71,2.5,1.94,2.71,3.69.19,1.52-.13,2.96-.66,4.37-.47,1.28-1.06,2.51-1.49,3.81-.31.92-.51,1.86-.52,2.83-.01.74.26,1.39.74,1.96.56.66,1.31.97,2.13,1.16,1.5.35,2.98.36,4.41-.3.96-.44,1.65-1.17,2.21-2.05.81-1.28,1.2-2.72,1.44-4.19.37-2.28.71-4.56,1.07-6.84.04-.23-.07-.26-.26-.26-1.22,0-2.45.03-3.67-.02-.79-.03-1.58,0-2.37.02-.22,0-.27-.06-.23-.27.2-1.07.38-2.14.57-3.22.03-.18.14-.2.29-.2.76,0,1.52,0,2.28,0,1.26,0,2.52,0,3.79,0,.21,0,.3-.06.34-.28.18-1.03.22-2.07.41-3.09.3-1.62.71-3.21,1.45-4.7,1.24-2.5,3.24-4.09,5.89-4.9,1.36-.42,2.76-.6,4.19-.67,1.44-.08,2.86-.03,4.27.29.29.07.3.07.22.36-.31,1.05-.62,2.1-.93,3.16-.05.16-.11.21-.28.18-1.03-.18-2.07-.28-3.11-.25-1.21.04-2.39.21-3.5.69-1.46.63-2.41,1.76-3.05,3.18-.64,1.43-.94,2.95-1.1,4.5-.04.42-.1.84-.18,1.25-.05.27-.05.27.24.27,2.3,0,4.61,0,6.91,0,1.7,0,3.4,0,5.1,0,.23,0,.33-.05.35-.3.15-1.4.28-2.8.6-4.18.35-1.49.81-2.93,1.59-4.25,1.13-1.93,2.78-3.24,4.87-4.01,1.31-.49,2.67-.73,4.06-.84.84-.07,1.67-.1,2.51-.08.87.02,1.73.13,2.58.32.17.04.27.09.21.3-.32,1.08-.64,2.16-.95,3.25-.05.17-.15.17-.29.14-1.02-.18-2.05-.27-3.09-.24-1.17.04-2.32.2-3.42.65-1.3.54-2.24,1.47-2.89,2.71-.67,1.26-1.01,2.63-1.23,4.03-.1.69-.18,1.38-.28,2.07-.03.19,0,.26.22.26,1.83,0,3.65,0,5.48,0,1.67,0,3.34,0,5.01,0,.25,0,.33-.08.38-.32.44-2.17,1.33-4.14,2.77-5.84,1.8-2.12,4.09-3.39,6.83-3.86.98-.17,1.96-.23,2.95-.18,1.31.07,2.56.35,3.64,1.15,1.11.82,1.73,1.95,1.91,3.3.31,2.22-.38,4.12-1.87,5.77-1.26,1.39-2.85,2.2-4.63,2.7-1.36.38-2.76.57-4.17.68-1.2.09-2.41.14-3.61.14-.24,0-.27.05-.24.33.24,2.04,1.59,3.42,3.63,3.74,1.44.23,2.84.04,4.23-.31,1.22-.3,2.39-.75,3.51-1.32.28-.15.29-.14.41.14.38.94.76,1.89,1.15,2.83.09.22.04.32-.16.42-2.04,1.06-4.19,1.75-6.47,2.01-1.67.19-3.34.16-4.96-.34-2.95-.91-4.68-2.89-5.18-5.95-.07-.41-.07-.83-.12-1.24-.01-.11-.04-.19-.17-.17-.49.06-.97,0-1.45,0-3.11,0-6.22,0-9.33,0-.23,0-.31.09-.33.31-.46,3.8-.78,7.75-2.82,11.11-2.07,3.42-5.56,4.96-9.41,5.42-.47.06-.93.1-1.4.16-.17.02-.24,0-.25-.19-.05-1.12-.11-2.23-.17-3.35-.01-.23.16-.22.3-.24.57-.07,1.14-.11,1.7-.2,1.14-.17,2.27-.49,3.26-1.1s1.63-1.42,2.23-2.43c1.38-2.34,1.71-4.72,2.09-7.35.08-.54.14-1.09.21-1.63.04-.3.04-.32-.28-.32-2.03,0-4.06,0-6.09,0ZM374.59,44.11c.78,0,1.56-.04,2.35-.09,1.07-.07,2.14-.21,3.17-.53,1.02-.32,1.95-.77,2.63-1.64.55-.69.77-1.48.68-2.35-.09-.88-.8-1.52-1.8-1.63-1.47-.17-2.87.09-4.16.78-2.11,1.14-3.28,3-3.94,5.24-.04.15,0,.22.16.21.31,0,.61,0,.92,0Z" fill="#f3f4f5"/><path d="M373.73,62.08c-4.19,0-8.38,0-12.58,0-.36,0-.36,0-.27-.35.29-1.19.57-2.37.85-3.56.05-.22.15-.28.37-.28,8.41,0,16.83,0,25.24,0,.32,0,.33.02.26.32-.29,1.21-.58,2.42-.86,3.63-.05.23-.18.25-.37.25-4.22,0-8.43,0-12.65,0Z" fill="#f3f4f5"/><path d="M323.79,37.43c0-1.66,1.27-2.92,2.94-2.91,1.68,0,2.89,1.27,2.91,2.98.01,1.52-1.35,2.94-3.02,2.88-1.57-.06-2.83-1.33-2.83-2.94Z" fill="#f3f4f5"/></svg>