<?xml version="1.0" encoding="UTF-8"?><svg id="Home" xmlns="http://www.w3.org/2000/svg" width="84.51" height="90" xmlns:xlink="http://www.w3.org/1999/xlink" viewBox="0 0 84.51 90"><defs><linearGradient id="Degradado_sin_nombre_6" x1="0" y1="28.53" x2="84.51" y2="28.53" gradientUnits="userSpaceOnUse"><stop offset="0" stop-color="#000"/><stop offset=".2" stop-color="#040404"/><stop offset=".42" stop-color="#111"/><stop offset=".64" stop-color="#272727"/><stop offset=".87" stop-color="#454545"/><stop offset=".97" stop-color="#545454"/></linearGradient><linearGradient id="Degradado_sin_nombre_6-2" x1="8.51" y1="69.33" x2="76" y2="69.33" xlink:href="#Degradado_sin_nombre_6"/><linearGradient id="Degradado_sin_nombre_6-3" x1="8.76" y1="14.07" x2="28.64" y2="14.07" xlink:href="#Degradado_sin_nombre_6"/></defs><polygon points="84.51 43.99 79.99 48.51 46.43 14.95 38.08 14.95 28.64 24.39 28.64 24.45 28.58 24.45 26.23 26.8 17.01 36.03 4.52 48.51 0 43.99 35.43 8.56 49.08 8.56 84.51 43.99" fill="url(#Degradado_sin_nombre_6)"/><polygon points="76 90 8.51 90 8.51 48.66 14.91 48.66 14.91 83.6 69.61 83.6 69.61 48.66 76 48.66 76 90" fill="url(#Degradado_sin_nombre_6-2)"/><polygon points="28.64 0 28.64 8.26 22.74 14.16 22.74 5.9 14.66 5.9 14.66 22.24 8.76 28.14 8.76 0 28.64 0" fill="url(#Degradado_sin_nombre_6-3)"/></svg>