<?xml version="1.0" encoding="UTF-8"?><svg id="Home" xmlns="http://www.w3.org/2000/svg" width="66.48" height="90" xmlns:xlink="http://www.w3.org/1999/xlink" viewBox="0 0 66.48 90"><defs><linearGradient id="Degradado_sin_nombre_6" x1="0" y1="38.66" x2="66.48" y2="38.66" gradientUnits="userSpaceOnUse"><stop offset="0" stop-color="#000"/><stop offset=".2" stop-color="#040404"/><stop offset=".42" stop-color="#111"/><stop offset=".64" stop-color="#272727"/><stop offset=".87" stop-color="#454545"/><stop offset=".97" stop-color="#545454"/></linearGradient><linearGradient id="Degradado_sin_nombre_6-2" x1="14.83" y1="33.2" x2="51.65" y2="33.2" xlink:href="#Degradado_sin_nombre_6"/><linearGradient id="Degradado_sin_nombre_6-3" x1="19.65" y1="85.54" x2="46.83" y2="85.54" xlink:href="#Degradado_sin_nombre_6"/></defs><path d="M43.73,77.33h-20.98l-3.04-3.04v-10.69C7.84,58.3,0,46.36,0,33.24,0,14.91,14.91,0,33.24,0s33.24,14.91,33.24,33.24c0,13.12-7.84,25.06-19.71,30.36v10.69l-3.04,3.04ZM25.79,71.25h14.9v-9.69l1.98-2.85c10.6-3.93,17.72-14.17,17.72-25.47,0-14.98-12.18-27.16-27.16-27.16S6.08,18.26,6.08,33.24c0,11.31,7.12,21.55,17.72,25.47l1.98,2.85v9.69Z" fill="url(#Degradado_sin_nombre_6)"/><path d="M33.1,46.94c-.15,0-.29,0-.43,0-3.26-.16-5.95-2.3-6.86-5.45-.84-2.9.02-5.87,2.17-7.84l-13.16-9.18,3.48-4.98,14.93,10.42,14.93-10.42,3.48,4.98-13.16,9.18c2.16,1.96,3.01,4.94,2.17,7.84-.91,3.16-3.6,5.3-6.85,5.45-.2,0-.39.01-.58,0-.05,0-.09,0-.14,0ZM33.24,37.3l-.97.68c-.88.61-.69,1.54-.61,1.81.11.38.42,1.02,1.3,1.07.07,0,.15,0,.23,0h.12c.08,0,.15,0,.23,0,.87-.04,1.18-.68,1.29-1.06.08-.27.26-1.2-.61-1.81l-.97-.68Z" fill="url(#Degradado_sin_nombre_6-2)"/><rect x="19.65" y="81.08" width="27.17" height="8.92" fill="url(#Degradado_sin_nombre_6-3)"/></svg>