<?xml version="1.0" encoding="UTF-8"?><svg id="Home" xmlns="http://www.w3.org/2000/svg" width="90" height="90" xmlns:xlink="http://www.w3.org/1999/xlink" viewBox="0 0 90 90"><defs><linearGradient id="Degradado_sin_nombre_5" x1="40.49" y1="24.76" x2="90" y2="24.76" gradientUnits="userSpaceOnUse"><stop offset="0" stop-color="#c1272d"/><stop offset=".51" stop-color="#e24a26"/><stop offset=".81" stop-color="#f15a24"/></linearGradient><linearGradient id="Degradado_sin_nombre_5-2" x1="0" x2="49.51" xlink:href="#Degradado_sin_nombre_5"/><linearGradient id="Degradado_sin_nombre_5-3" y1="65.24" y2="65.24" xlink:href="#Degradado_sin_nombre_5"/><linearGradient id="Degradado_sin_nombre_5-4" x1="0" y1="65.24" x2="49.51" y2="65.24" xlink:href="#Degradado_sin_nombre_5"/></defs><path d="M90,49.51c-27.3,0-49.51-22.21-49.51-49.51h9.02c0,22.33,18.16,40.49,40.49,40.49v9.02Z" fill="url(#Degradado_sin_nombre_5)"/><path d="M0,49.51v-9.02c22.33,0,40.49-18.16,40.49-40.49h9.02c0,27.3-22.21,49.51-49.51,49.51Z" fill="url(#Degradado_sin_nombre_5-2)"/><path d="M49.51,90h-9.02c0-27.3,22.21-49.51,49.51-49.51v9.02c-22.33,0-40.49,18.16-40.49,40.49Z" fill="url(#Degradado_sin_nombre_5-3)"/><path d="M49.51,90h-9.02c0-22.33-18.16-40.49-40.49-40.49v-9.02c27.3,0,49.51,22.21,49.51,49.51Z" fill="url(#Degradado_sin_nombre_5-4)"/></svg>