<?xml version="1.0" encoding="UTF-8"?><svg id="Home" xmlns="http://www.w3.org/2000/svg" width="100" height="130" xmlns:xlink="http://www.w3.org/1999/xlink" viewBox="0 0 100 130"><defs><linearGradient id="Degradado_sin_nombre_5" x1="5.16" y1="51.19" x2="100" y2="51.19" gradientUnits="userSpaceOnUse"><stop offset="0" stop-color="#c1272d"/><stop offset=".51" stop-color="#e24a26"/><stop offset=".81" stop-color="#f15a24"/></linearGradient><linearGradient id="Degradado_sin_nombre_5-2" x1="0" y1="99.88" x2="89.19" y2="99.88" xlink:href="#Degradado_sin_nombre_5"/></defs><path d="M94.07,102.37l-7.37-4c4.63-8.21,6.03-18.46,3.94-28.86-4.53-22.5-21.83-37.41-40.24-51.01,3.18,8.64,4.29,18.02,3.02,27.15-.5,3.6-1.57,8.87-5.06,13.15-3.84,4.7-9.95,6.88-15.22,5.43-7.14-1.97-10.55-9.6-10.16-15.85,0-.35.02-.69.04-1.03-4.25,5.05-7.71,10.38-10.18,15.73l-7.67-3.4c5.55-12.05,15.51-23.87,28.05-33.29l6.23,5.31c-.78,1.35-1.66,2.74-2.52,4.08-2.71,4.24-5.52,8.63-5.52,12.75v.29c-.23,3,1.25,6.7,4.01,7.46,1.99.55,4.67-.56,6.37-2.64,1.67-2.04,2.71-4.93,3.29-9.1,1.93-13.94-2.6-28.54-12.12-39.05l6.3-5.48c.96,1.06,2.5,2.09,3.98,3.09.68.45,1.34.9,1.97,1.35l2.2,1.59c21.42,15.46,45.69,32.99,51.51,61.88,2.48,12.31.76,24.54-4.83,34.46Z" fill="url(#Degradado_sin_nombre_5)"/><path d="M49.48,130C22.2,130,0,108.23,0,81.48c0-3.96.49-7.91,1.45-11.72l8.17,1.99c-.8,3.17-1.21,6.44-1.21,9.74,0,22.2,18.42,40.26,41.06,40.26,13.11,0,25.12-5.92,32.96-16.25l6.76,4.93c-9.3,12.26-24.15,19.58-39.72,19.58Z" fill="url(#Degradado_sin_nombre_5-2)"/></svg>