<?xml version="1.0" encoding="UTF-8"?><svg id="liffe_skills" xmlns="http://www.w3.org/2000/svg" width="67.89" height="91.92" viewBox="0 0 67.89 91.92"><path d="M44.66,78.98h-21.43l-3.1-3.1v-10.91C8,59.55,0,47.35,0,33.95,0,15.23,15.23,0,33.95,0s33.95,15.23,33.95,33.95c0,13.4-8,25.6-20.13,31.01v10.91l-3.1,3.1ZM26.34,72.77h15.22v-9.89l2.03-2.91c10.83-4.01,18.1-14.47,18.1-26.02,0-15.3-12.44-27.74-27.74-27.74S6.21,18.65,6.21,33.95c0,11.55,7.28,22.01,18.1,26.02l2.03,2.91v9.89Z" fill="#e74920"/><path d="M33.81,47.94c-.15,0-.3,0-.44,0-3.33-.16-6.07-2.35-7-5.57-.85-2.96.02-6,2.22-8l-13.44-9.38,3.55-5.09,15.25,10.64,15.25-10.64,3.55,5.09-13.44,9.38c2.2,2.01,3.07,5.04,2.22,8.01-.93,3.22-3.67,5.41-6.99,5.57-.2,0-.39.01-.59,0-.05,0-.09,0-.14,0ZM33.95,38.1l-.99.69c-.9.63-.71,1.57-.63,1.85.11.39.43,1.05,1.33,1.09.07,0,.15,0,.23,0h.13c.08,0,.16,0,.24,0,.89-.04,1.21-.7,1.32-1.09.08-.28.27-1.22-.63-1.85l-.99-.69Z" fill="#e74920"/><rect x="20.07" y="82.81" width="27.75" height="9.11" fill="#e74920"/></svg>