<?xml version="1.0" encoding="UTF-8"?><svg id="liffe_skills" xmlns="http://www.w3.org/2000/svg" width="90" height="90" viewBox="0 0 90 90"><path d="M90,49.51c-27.3,0-49.51-22.21-49.51-49.51h9.02c0,22.33,18.16,40.49,40.49,40.49v9.02Z" fill="#143932"/><path d="M0,49.51v-9.02c22.33,0,40.49-18.16,40.49-40.49h9.02c0,27.3-22.21,49.51-49.51,49.51Z" fill="#143932"/><path d="M49.51,90h-9.02c0-27.3,22.21-49.51,49.51-49.51v9.02c-22.33,0-40.49,18.16-40.49,40.49Z" fill="#143932"/><path d="M49.51,90h-9.02c0-22.33-18.16-40.49-40.49-40.49v-9.02c27.3,0,49.51,22.21,49.51,49.51Z" fill="#143932"/></svg>