<?xml version="1.0" encoding="UTF-8"?><svg id="liffe_skills" xmlns="http://www.w3.org/2000/svg" width="82.77" height="75" viewBox="0 0 82.77 75"><path d="M60.16,60.18h-16.09v-4.78h11.31v-5.19l1.85-.43c2.25-.52,4.37-1.41,6.32-2.66l1.62-1.04,3.54,3.54,3.82-3.82-3.58-3.58.98-1.61c1.13-1.84,1.95-3.85,2.44-5.97l.43-1.85h5.19v-5.41h-5.19l-.43-1.85c-.49-2.12-1.31-4.13-2.44-5.97l-.98-1.61,3.58-3.58-3.82-3.82-3.54,3.54-1.62-1.04c-1.95-1.24-4.07-2.14-6.32-2.66l-1.85-.43v-5.19h-5.41v5.19l-1.85.43c-2.31.53-4.49,1.46-6.48,2.76l-1.63,1.06-3.58-3.58-3.82,3.82,3.67,3.67-.96,1.6c-1.08,1.8-1.86,3.75-2.34,5.81l-4.66-1.07c.44-1.93,1.11-3.78,1.99-5.54l-4.46-4.46,10.58-10.58,4.27,4.27c1.43-.78,2.93-1.42,4.49-1.91V0h14.97v6.24c1.48.46,2.92,1.07,4.29,1.8l4.25-4.25,10.58,10.58-4.35,4.35c.64,1.25,1.17,2.54,1.58,3.88h6.24v14.97h-6.24c-.42,1.34-.95,2.64-1.58,3.88l4.35,4.35-10.58,10.58-4.25-4.25c-1.37.74-2.81,1.34-4.29,1.8v6.24ZM52.68,40.89c-5.96,0-10.8-4.85-10.8-10.8s4.85-10.8,10.8-10.8,10.8,4.85,10.8,10.8-4.85,10.8-10.8,10.8ZM52.68,24.07c-3.32,0-6.02,2.7-6.02,6.02s2.7,6.02,6.02,6.02,6.02-2.7,6.02-6.02-2.7-6.02-6.02-6.02Z" fill="#62ba97"/><path d="M13.81,75L0,61.19l11.52-11.52c-.59-1.97-.89-4.01-.89-6.08,0-11.66,9.48-21.14,21.14-21.14,2.83,0,5.58.55,8.17,1.64l3.28,1.38-10.46,10.46,6.31,6.31,10.52-10.52,1.43,3.14c1.25,2.76,1.89,5.7,1.89,8.73,0,11.66-9.48,21.14-21.14,21.14-2.27,0-4.5-.36-6.63-1.06l-11.32,11.32ZM6.76,61.19l7.05,7.05,10.16-10.16,1.48.62c2,.84,4.13,1.26,6.31,1.26,9.02,0,16.36-7.34,16.36-16.36,0-1.12-.11-2.23-.34-3.31l-8.72,8.72-13.07-13.07,8.47-8.47c-.89-.15-1.79-.22-2.7-.22-9.02,0-16.36,7.34-16.36,16.36,0,2.01.36,3.98,1.08,5.86l.56,1.45-10.28,10.28Z" fill="#62ba97"/></svg>